<svg width="41" height="48" viewBox="0 0 41 48" version="1.1" xmlns="http://www.w3.org/2000/svg" xmlns:xlink="http://www.w3.org/1999/xlink">
<title>26 &#208;&#155;&#208;&#149;&#208;&#162;</title>
<desc>Created using Figma</desc>
<g id="Canvas" transform="translate(-13119 -6967)">
<g id="26 &#208;&#155;&#208;&#149;&#208;&#162;">
<use xlink:href="#path0_fill" transform="translate(13119 6967)" fill="#005392"/>
<use xlink:href="#path1_fill" transform="translate(13119 6967)" fill="#005392"/>
<use xlink:href="#path2_fill" transform="translate(13119 6967)" fill="#005392"/>
<use xlink:href="#path3_fill" transform="translate(13119 6967)" fill="#005392"/>
<use xlink:href="#path4_fill" transform="translate(13119 6967)" fill="#005392"/>
</g>
</g>
<defs>
<path id="path0_fill" d="M 0.61773 4.66379L 0.348257 0.963593C 3.27397 0.321198 6.12268 0 8.8944 0C 11.7688 0 13.8989 0.423981 15.2848 1.27194C 16.6963 2.09421 17.4021 3.6745 17.4021 6.01282C 17.4021 7.63165 17.0941 9.09632 16.4781 10.4068C 15.8622 11.6916 14.6945 13.2719 12.975 15.1477L 5.9302 22.7408C 6.98243 22.5866 8.35546 22.5095 10.0493 22.5095L 18.249 22.5095L 18.249 27.0577L 0.155777 27.0577L 0.155777 24.1669C 0.155777 23.3189 0.386753 22.6509 0.848707 22.1626L 7.77802 14.4924C 10.986 11.0749 12.5772 8.37683 12.5515 6.39826C 12.5259 5.47321 12.1922 4.8822 11.5506 4.62525C 10.9347 4.34259 9.88247 4.20126 8.39395 4.20126C 5.9302 4.20126 3.33813 4.35544 0.61773 4.66379Z"/>
<path id="path1_fill" d="M 38.9343 0.655243L 38.6264 4.00855C 37.3945 3.95715 35.5467 3.93146 33.0829 3.93146C 31.5944 3.93146 30.4652 4.11133 29.6953 4.47107C 28.9253 4.83081 28.3222 5.58884 27.8859 6.74515C 27.4497 7.87576 27.193 9.55884 27.116 11.7944C 27.9373 10.9721 28.8098 10.394 29.7338 10.0599C 30.6833 9.72586 31.851 9.55884 33.2369 9.55884C 36.0343 9.55884 37.9719 10.2012 39.0498 11.486C 40.1277 12.7708 40.6667 14.9935 40.6667 18.1541C 40.6667 19.6958 40.5512 21.0063 40.3202 22.0855C 40.0892 23.1391 39.6658 24.1027 39.0498 24.9763C 38.4339 25.8243 37.5228 26.4667 36.3166 26.9035C 35.136 27.3146 33.6347 27.5202 31.8125 27.5202C 27.9886 27.5202 25.4607 26.6209 24.2288 24.8221C 22.9969 22.9977 22.381 19.4132 22.381 14.0685C 22.381 11.653 22.5221 9.61023 22.8044 7.94C 23.1124 6.24408 23.523 4.8822 24.0363 3.85437C 24.5753 2.82654 25.3067 2.02997 26.2306 1.46466C 27.1802 0.873657 28.1682 0.48822 29.1948 0.30835C 30.247 0.102783 31.5431 0 33.0829 0C 35.4184 0 37.3688 0.218414 38.9343 0.655243ZM 31.851 23.5887C 33.6219 23.5887 34.7639 23.1905 35.2772 22.3939C 35.8161 21.5716 36.0856 20.1712 36.0856 18.1926C 36.0856 16.3425 35.7905 15.0706 35.2002 14.3768C 34.6356 13.6573 33.532 13.2976 31.8895 13.2976C 30.2727 13.2976 28.6687 13.8886 27.0775 15.0706C 27.0775 18.6166 27.347 20.9292 27.8859 22.0085C 28.4249 23.062 29.7466 23.5887 31.851 23.5887Z"/>
<path id="path2_fill" d="M 13.0245 32.4217L 13.0245 47.9355L 10.1951 47.9355L 10.1951 34.6026L 7.79226 34.6026C 6.87905 34.6026 6.37753 35.0748 6.28771 36.0191C 6.07812 38.5673 5.8835 40.4409 5.70385 41.6401C 5.5242 42.8242 5.24724 43.8734 4.87297 44.7878C 3.94479 47.0961 2.39532 48.1604 0.224561 47.9805L 0 45.7996C 0.568888 45.6647 1.03298 45.4698 1.39228 45.215C 1.75158 44.9452 2.02853 44.5555 2.22315 44.0458C 2.56748 43.1764 2.82947 42.1647 3.00912 41.0105C 3.18876 39.8414 3.36841 38.0277 3.54806 35.5694C 3.72771 33.4709 4.88046 32.4217 7.0063 32.4217L 13.0245 32.4217Z"/>
<path id="path3_fill" d="M 26.3868 45.6647L 26.4991 47.8006C 25.1367 47.9205 22.8612 47.9805 19.6724 47.9805C 18.6544 47.9805 17.8535 47.7182 17.2696 47.1936C 16.6858 46.6689 16.3938 45.9495 16.3938 45.0351L 16.3938 35.3221C 16.3938 34.4078 16.6858 33.6883 17.2696 33.1637C 17.8535 32.639 18.6544 32.3767 19.6724 32.3767C 22.8612 32.3767 25.1367 32.4367 26.4991 32.5566L 26.3868 34.715L 20.3012 34.715C 19.897 34.715 19.6125 34.8125 19.4479 35.0073C 19.2832 35.2022 19.2008 35.5394 19.2008 36.0191L 19.2008 38.7396L 25.5335 38.7396L 25.5335 40.8981L 19.2008 40.8981L 19.2008 44.3606C 19.2008 44.8403 19.2832 45.1775 19.4479 45.3724C 19.6125 45.5672 19.897 45.6647 20.3012 45.6647L 26.3868 45.6647Z"/>
<path id="path4_fill" d="M 40.3625 34.8275L 35.5794 34.8275L 35.5794 47.9355L 32.7499 47.9355L 32.7499 34.8275L 28.0117 34.8275L 28.0117 32.4217L 40.3625 32.4217L 40.3625 34.8275Z"/>
</defs>
</svg>
