<svg width="120" height="65" viewBox="0 0 120 65" version="1.1" xmlns="http://www.w3.org/2000/svg" xmlns:xlink="http://www.w3.org/1999/xlink">
<title>1</title>
<desc>Created using Figma</desc>
<g id="Canvas" transform="translate(-24767 -2176)">
<g id="1">
<g id="Vector">
<use xlink:href="#path0_fill" transform="translate(24767 2176)" fill="#00B1EB"/>
</g>
<g id="404">
<use xlink:href="#path1_fill" transform="translate(24462 2191.16)" fill="#FFFFFF"/>
</g>
</g>
</g>
<defs>
<path id="path0_fill" fill-rule="evenodd" d="M 113.936 0.262367L 69.1678 12.8424L 69.1657 12.8424L 45.5856 19.469L 6.05571 30.5771L 0 32.2776L 0 37.6638L 0 60.6107C 0 63.572 2.728 65.2332 6.06287 64.2946L 50.83 51.7152L 50.835 51.7122L 74.4158 45.0874L 113.941 33.9805L 120 32.277L 120 26.8919L 120 3.94634C 119.999 0.981993 117.272 -0.675557 113.936 0.262367Z"/>
<path id="path1_fill" d="M 356.017 21.372L 353.703 21.606L 353.703 26L 351.545 26L 351.545 21.606L 344.109 21.606C 343.381 21.606 342.835 21.3113 342.471 20.722C 342.124 20.1327 342.098 19.5 342.393 18.824L 347.489 8.06L 349.751 8.06L 344.733 18.668C 344.594 19.0147 344.586 19.2833 344.707 19.474C 344.846 19.6473 345.071 19.734 345.383 19.734L 351.545 19.734L 351.545 14.456L 351.935 11.492L 353.703 11.492L 353.703 19.734L 356.017 19.734L 356.017 21.372ZM 360.209 9.88C 361.128 8.44133 362.722 7.722 364.993 7.722C 367.264 7.722 368.858 8.44133 369.777 9.88C 370.713 11.3187 371.181 13.702 371.181 17.03C 371.181 20.358 370.713 22.7413 369.777 24.18C 368.858 25.6187 367.264 26.338 364.993 26.338C 362.722 26.338 361.128 25.6187 360.209 24.18C 359.29 22.7413 358.831 20.358 358.831 17.03C 358.831 13.702 359.29 11.3187 360.209 9.88ZM 368.061 11.362C 367.489 10.27 366.466 9.724 364.993 9.724C 363.52 9.724 362.497 10.27 361.925 11.362C 361.353 12.454 361.067 14.3433 361.067 17.03C 361.067 19.7167 361.353 21.606 361.925 22.698C 362.497 23.79 363.52 24.336 364.993 24.336C 366.466 24.336 367.489 23.79 368.061 22.698C 368.65 21.606 368.945 19.7167 368.945 17.03C 368.945 14.3433 368.65 12.454 368.061 11.362ZM 387.679 21.372L 385.365 21.606L 385.365 26L 383.207 26L 383.207 21.606L 375.771 21.606C 375.043 21.606 374.497 21.3113 374.133 20.722C 373.786 20.1327 373.76 19.5 374.055 18.824L 379.151 8.06L 381.413 8.06L 376.395 18.668C 376.256 19.0147 376.248 19.2833 376.369 19.474C 376.508 19.6473 376.733 19.734 377.045 19.734L 383.207 19.734L 383.207 14.456L 383.597 11.492L 385.365 11.492L 385.365 19.734L 387.679 19.734L 387.679 21.372Z"/>
</defs>
</svg>
