<svg width="150" height="150" viewBox="0 0 150 150" version="1.1" xmlns="http://www.w3.org/2000/svg" xmlns:xlink="http://www.w3.org/1999/xlink">
<title>9001eng</title>
<desc>Created using Figma</desc>
<g id="Canvas" transform="matrix(3 0 0 3 -40269 -22050)">
<g id="9001eng">
<g id="Union">
<use xlink:href="#path0_fill" transform="translate(13433.3 7358.34)" fill="#00529B"/>
</g>
<g id="Vector">
<use xlink:href="#path1_fill" transform="translate(13430.3 7389.77)" fill="#00529B"/>
<use xlink:href="#path2_stroke" transform="translate(13430.3 7389.77)" fill="#00529B"/>
</g>
<g id="Vector">
<use xlink:href="#path3_stroke" transform="translate(13424 7351)" fill="#00529B"/>
</g>
<g id="Vector">
<use xlink:href="#path4_fill" transform="translate(13426.1 7353.68)" fill="#00529B"/>
<use xlink:href="#path5_fill" transform="translate(13426.1 7353.68)" fill="#00529B"/>
<use xlink:href="#path6_fill" transform="translate(13426.1 7353.68)" fill="#00529B"/>
<use xlink:href="#path7_fill" transform="translate(13426.1 7353.68)" fill="#00529B"/>
<use xlink:href="#path8_fill" transform="translate(13426.1 7353.68)" fill="#00529B"/>
<use xlink:href="#path9_fill" transform="translate(13426.1 7353.68)" fill="#00529B"/>
<use xlink:href="#path10_fill" transform="translate(13426.1 7353.68)" fill="#00529B"/>
<use xlink:href="#path11_fill" transform="translate(13426.1 7353.68)" fill="#00529B"/>
<use xlink:href="#path12_fill" transform="translate(13426.1 7353.68)" fill="#00529B"/>
<use xlink:href="#path13_fill" transform="translate(13426.1 7353.68)" fill="#00529B"/>
<use xlink:href="#path14_fill" transform="translate(13426.1 7353.68)" fill="#00529B"/>
<use xlink:href="#path15_fill" transform="translate(13426.1 7353.68)" fill="#00529B"/>
<use xlink:href="#path16_fill" transform="translate(13426.1 7353.68)" fill="#00529B"/>
<use xlink:href="#path17_fill" transform="translate(13426.1 7353.68)" fill="#00529B"/>
<use xlink:href="#path18_fill" transform="translate(13426.1 7353.68)" fill="#00529B"/>
<use xlink:href="#path19_fill" transform="translate(13426.1 7353.68)" fill="#00529B"/>
<use xlink:href="#path20_fill" transform="translate(13426.1 7353.68)" fill="#00529B"/>
<use xlink:href="#path21_fill" transform="translate(13426.1 7353.68)" fill="#00529B"/>
<use xlink:href="#path22_fill" transform="translate(13426.1 7353.68)" fill="#00529B"/>
<use xlink:href="#path23_fill" transform="translate(13426.1 7353.68)" fill="#00529B"/>
<use xlink:href="#path24_fill" transform="translate(13426.1 7353.68)" fill="#00529B"/>
<use xlink:href="#path25_fill" transform="translate(13426.1 7353.68)" fill="#00529B"/>
<use xlink:href="#path26_fill" transform="translate(13426.1 7353.68)" fill="#00529B"/>
<use xlink:href="#path27_fill" transform="translate(13426.1 7353.68)" fill="#00529B"/>
<use xlink:href="#path28_fill" transform="translate(13426.1 7353.68)" fill="#00529B"/>
</g>
<g id="9001">
<use xlink:href="#path29_fill" transform="translate(13436.4 7391.1)" fill="#FFFFFF"/>
<use xlink:href="#path30_fill" transform="translate(13436.4 7391.1)" fill="#FFFFFF"/>
<use xlink:href="#path31_fill" transform="translate(13436.4 7391.1)" fill="#FFFFFF"/>
<use xlink:href="#path32_fill" transform="translate(13436.4 7391.1)" fill="#FFFFFF"/>
<use xlink:href="#path33_fill" transform="translate(13436.4 7391.1)" fill="#FFFFFF"/>
<use xlink:href="#path34_fill" transform="translate(13436.4 7391.1)" fill="#FFFFFF"/>
<use xlink:href="#path35_fill" transform="translate(13436.4 7391.1)" fill="#FFFFFF"/>
</g>
</g>
</g>
<defs>
<path id="path0_fill" fill-rule="evenodd" d="M 1.99561 22.7804L 2.00635 23.1436C 2.01514 23.7179 1.96729 24.2208 1.58936 24.4601C 1.44385 24.8116 1.57178 24.9405 1.7251 25.0943C 1.92041 25.2906 2.15674 25.5279 1.91944 26.318C 2.64991 26.3414 3.12159 26.7174 3.31006 27.4229L 3.5083 27.5387C 4.33643 28.025 5.16553 28.5118 6.25733 28.0113C 6.0669 27.7306 5.8794 27.4498 5.69287 27.17C 5.39502 26.7242 5.1001 26.2813 4.79639 25.8477C 4.34717 25.7306 4.01807 26.1534 3.73487 26.8121C 3.93702 25.6456 4.03174 24.4366 4.04053 23.1432L 4.04053 22.9542C 4.09815 23.0186 4.15772 23.0816 4.21827 23.1436C 4.95752 23.8912 5.94092 24.4308 6.96436 24.9303L 6.62159 25.0147C 6.12256 25.1349 5.70264 25.2364 5.64502 25.4474L 5.64893 25.4547C 6.23487 26.485 6.54248 27.025 7.38916 27.6822C 8.28467 27.941 9.39307 27.235 9.60596 26.0836C 10.1714 26.5299 10.5952 26.6939 10.7134 26.1768C 10.855 25.2594 11.3022 24.4361 12.5991 23.8722C 12.4585 23.4019 11.9624 23.4019 11.3735 23.4254C 11.48 23.359 11.5815 23.2652 11.6772 23.1451C 11.9194 22.839 12.1138 22.3643 12.1987 21.755C 12.3647 20.7911 12.812 20.485 13.4019 20.4615C 11.9634 19.6148 12.1987 18.5333 13.4019 17.9918C 12.8355 17.8746 12.3403 17.357 12.0581 16.2047C 11.6567 16.1573 11.3735 16.1808 10.855 16.2516C 11.0542 16.0875 11.2544 15.8707 11.4546 15.6534C 11.6558 15.4356 11.8569 15.2174 12.0581 15.0523C 11.4683 13.6178 10.8315 12.8185 10.1948 12.8883C 10.4312 15.9693 8.78077 16.7452 6.30518 16.4869C 5.99854 16.7691 5.90479 17.0514 5.95166 17.2862L 5.86475 17.2188C 5.46729 16.9093 5.04932 16.5836 4.32471 16.2989C 2.93311 16.0162 2.3208 15.7809 2.06104 12.9122C 1.86573 12.609 1.45166 12.6441 1.14698 12.67L 1.0708 12.6764C 1.77881 12.2535 2.24952 11.2892 2.34424 9.97226C 2.79151 8.42001 3.2876 6.93808 5.05518 6.89072L 5.11573 6.8829C 5.43311 6.84287 5.62842 6.81796 5.73877 6.39706C 5.73877 5.83261 6.37549 5.66806 6.77588 5.87949C 7.17725 6.06796 7.43702 5.92734 7.5542 5.45615C 7.88428 4.77451 8.42627 4.53915 9.27588 4.77451C 10.1011 5.47958 10.9966 5.62119 12.0103 4.82138C 11.9868 5.4332 12.2222 5.73886 12.6939 5.69199C 13.1421 5.62119 13.5894 5.80966 14.0386 6.04453L 14.0386 4.82138C 11.1616 4.25693 11.7505 -0.0228573 14.6743 9.19547e-05C 17.5747 9.19547e-05 18.1401 4.28085 15.311 4.82138L 15.311 6.04453C 15.7583 5.80966 16.2065 5.62119 16.6548 5.69199C 17.1265 5.73886 17.3628 5.4332 17.3149 4.82138C 18.3521 5.62119 19.2485 5.47958 20.0737 4.77451C 20.898 4.53915 21.4644 4.77451 21.7944 5.45615C 21.8892 5.92734 22.1489 6.06796 22.5728 5.87949C 22.9741 5.66806 23.5864 5.83261 23.6099 6.39706C 23.7222 6.82236 23.898 6.84335 24.2388 6.88388L 24.2935 6.89072C 26.061 6.93808 26.5571 8.42001 26.981 9.97226C 27.0991 11.2892 27.5474 12.2535 28.2778 12.6764L 28.2046 12.6705C 27.897 12.6446 27.4614 12.608 27.2876 12.9122C 27.0054 15.7809 26.3921 16.0162 25.0249 16.2989C 24.2583 16.6002 23.811 16.9469 23.3931 17.2721L 23.3745 17.2862C 23.4448 17.0514 23.3267 16.7691 23.0444 16.4869C 20.5454 16.7452 18.9185 15.9693 19.1538 12.8883C 18.4937 12.8185 17.8804 13.6178 17.2671 15.0523C 17.4673 15.2169 17.6665 15.4337 17.8667 15.651C 18.0679 15.8687 18.269 16.087 18.4692 16.2516C 17.9507 16.1808 17.6675 16.1573 17.2671 16.2047C 17.0083 17.3575 16.4897 17.8746 15.9233 17.9918C 17.1255 18.5333 17.3862 19.6148 15.9233 20.4615C 16.5366 20.485 16.9849 20.7911 17.1255 21.755C 17.2271 22.3639 17.4146 22.839 17.6606 23.1436C 17.7573 23.2652 17.8628 23.359 17.9751 23.4254C 17.3618 23.4019 16.8911 23.4019 16.7495 23.8722C 18.0464 24.4361 18.4937 25.2594 18.6118 26.1768C 18.729 26.6939 19.1538 26.5299 19.7202 26.0836C 19.9321 27.235 21.064 27.941 21.9595 27.6822C 22.7671 27.0553 23.063 26.5348 23.5972 25.5929L 23.6802 25.4474C 23.6226 25.2364 23.2017 25.1349 22.7017 25.0147L 22.3608 24.9303C 23.4058 24.4308 24.3716 23.8912 25.1255 23.1446L 25.3081 23.1441C 25.3159 24.4366 25.4106 25.6456 25.5903 26.8121C 25.3306 26.1534 25.0005 25.7306 24.5298 25.8477L 24.2007 26.339C 23.8315 26.8893 23.4546 27.4508 23.0913 28.0113C 24.1587 28.5108 24.9849 28.0265 25.812 27.5411L 26.0151 27.4229C 26.2036 26.7169 26.6753 26.3414 27.4302 26.318C 27.1763 25.5216 27.4116 25.2867 27.6099 25.0899C 27.7622 24.9376 27.8931 24.8082 27.7593 24.4601C 27.3814 24.2208 27.3335 23.7179 27.3413 23.1422L 27.3521 22.7779C 27.394 21.5621 27.4409 20.211 25.1899 20.3434C 25.2788 20.1773 25.3882 20.0372 25.4966 19.8985C 25.6187 19.7433 25.7397 19.5894 25.8267 19.4029C 24.5064 18.839 23.3032 19.2857 22.1245 19.9908C 21.6528 18.3917 19.9087 19.8033 19.7192 21.8966C 19.8481 22.4806 20.0552 22.8824 20.2983 23.1436C 20.9292 23.8263 21.7993 23.5743 22.1704 23.1446C 22.4165 22.8585 22.4429 22.4937 22.0298 22.2726C 21.4175 22.8839 20.9458 22.7896 20.6626 22.2486C 20.1665 21.2608 21.8882 20.1559 22.8794 21.9898C 23.021 22.4522 23.0122 22.8336 22.9214 23.1436C 22.7407 23.7672 22.2271 24.107 21.9126 24.2481C 20.8501 24.5929 19.7524 24.1607 19.2544 23.1441C 18.8355 22.2887 18.8413 21.0191 19.6499 19.4503C 19.5083 19.0743 19.1079 18.7921 18.564 18.4859C 19.273 18.7184 20.0601 18.505 20.9302 18.2691C 22.3462 17.8853 23.981 17.4425 25.8501 18.7682C 26.5571 18.9796 26.7925 18.8619 26.9351 18.2979C 27.2856 19.4947 27.855 20.3053 28.3511 21.0118C 28.855 21.7301 29.2847 22.3414 29.3345 23.1436C 29.354 23.4605 29.3149 23.8067 29.1978 24.2013C 28.8442 24.6246 28.7261 24.9298 28.9146 25.3062C 29.0005 26.106 28.6548 26.2945 28.3257 26.4742C 28.0259 26.6378 27.7388 26.794 27.8062 27.3995C 26.769 29.6812 23.2329 29.3521 22.2671 28.8102C 21.5562 29.9264 20.0679 30.462 18.5591 31.0055C 17.0151 31.5611 15.4497 32.1251 14.6743 33.3263C 13.8989 32.1251 12.3335 31.5611 10.7896 31.0055C 9.28174 30.462 7.79346 29.9264 7.08252 28.8102C 6.09229 29.3521 2.55518 29.6812 1.51807 27.3995C 1.59717 26.7921 1.31006 26.6368 1.00635 26.4727C 0.675296 26.2935 0.32471 26.1041 0.410648 25.3062C 0.622562 24.9298 0.504398 24.6246 0.150882 24.2013C 0.0297885 23.8072 -0.0131802 23.4605 0.00342136 23.1432C 0.0473667 22.338 0.476078 21.7247 0.98096 21.003C 1.47412 20.2984 2.04053 19.4898 2.39014 18.2979C 2.55518 18.8614 2.76709 18.9796 3.49854 18.7677C 5.36768 17.4425 6.99268 17.8853 8.40186 18.2691C 9.26709 18.505 10.0513 18.7184 10.7603 18.4859C 10.2417 18.7921 9.8169 19.0733 9.69971 19.4503C 10.5073 21.0186 10.5132 22.2887 10.0942 23.1436C 9.59717 24.1607 8.49952 24.5929 7.43702 24.2481C 7.12256 24.107 6.59815 23.7672 6.41553 23.1446C 6.32471 22.8336 6.31983 22.4518 6.46924 21.9893C 7.43604 20.1554 9.15674 21.2608 8.66162 22.2486C 8.37842 22.7896 7.90772 22.8834 7.31787 22.2726C 6.90479 22.4933 6.93116 22.858 7.17725 23.1436C 7.54834 23.5743 8.41553 23.8263 9.0376 23.1446C 9.27686 22.8819 9.48096 22.4806 9.60498 21.8966C 9.43995 19.8033 7.6958 18.3917 7.19971 19.9908C 6.04444 19.2857 4.81885 18.8385 3.49854 19.4029C 3.59327 19.5797 3.71045 19.7267 3.82862 19.8736C 3.94678 20.0206 4.06494 20.1671 4.15869 20.3434C 1.90674 20.2105 1.95362 21.5631 1.99561 22.7804ZM 25.3071 22.9542L 25.3081 23.1436L 25.1255 23.1427C 25.187 23.0816 25.2485 23.0186 25.3071 22.9542ZM 10.6655 10.9835C 10.689 11.6417 10.9253 12.065 11.1372 12.3238C 12.5698 13.1812 12.9497 14.2105 13.1978 14.8829C 13.3169 15.2061 13.4048 15.4469 13.5659 15.546C 13.6597 15.6158 13.8013 15.6158 13.9663 15.5694L 13.9663 12.606L 13.5659 12.2769C 13.1411 11.9474 12.7642 11.6651 12.5044 11.5475L 12.5044 10.3951C 12.3667 10.3873 12.23 10.3858 12.0923 10.3849C 11.4048 10.378 10.7163 10.3717 10.0288 9.54843C 9.60498 8.63144 10.6421 8.11386 11.1128 8.8663C 11.0894 9.40732 11.5142 9.68954 12.5513 9.57187C 12.5513 9.32529 12.5454 9.07822 12.5405 8.83163C 12.5347 8.58456 12.5288 8.33749 12.5288 8.09042C 12.8814 7.9498 13.2358 7.69052 13.5659 7.4083C 13.6831 7.31455 13.8013 7.2208 13.9429 7.12656C 14.0845 6.84433 13.895 6.58505 13.5659 6.42099C 12.9995 6.11533 12.0093 6.11533 12.0562 6.82089C 10.7495 6.00449 10.2339 6.34921 9.71241 6.69833C 9.22705 7.02255 8.73682 7.35068 7.60108 6.75009C 6.97315 7.5333 6.53662 7.4957 6.22217 7.46835C 5.92334 7.44247 5.73389 7.42636 5.59619 8.13779C 5.25244 9.04062 4.68897 9.37851 4.21827 9.66122C 3.46338 10.1143 2.94385 10.4259 3.9458 12.6998C 3.23877 12.6529 2.93213 12.7706 2.88526 12.9825L 2.88526 13.0997C 2.93213 13.4059 3.38037 13.8521 4.06397 14.3936C 5.1958 15.8043 6.06787 15.7345 6.79932 14.9576C 6.11573 16.6749 9.51026 15.6402 9.43995 14.1119L 9.36866 12.7003C 9.43995 12.3238 8.77979 12.3707 8.16651 12.4181C 8.52002 11.6417 8.21338 11.3834 7.19971 11.6656C 5.94971 11.8541 5.36084 13.3824 6.56299 13.7589C 6.35108 12.2774 8.68506 11.9478 8.07178 13.8761C 7.41162 14.7935 6.63428 14.5582 5.83252 14.0641C 4.86573 12.6534 5.50244 11.5948 7.03467 10.9366C 7.15284 10.631 7.01123 10.3487 6.84619 10.066C 7.85987 10.1368 8.52002 10.5841 9.01514 10.9605C 9.11573 11.0372 9.2085 11.1329 9.3003 11.2271C 9.65772 11.5963 9.98975 11.9391 10.6655 10.9835ZM 13.2124 9.61972L 13.5659 9.61972L 13.9897 9.61972L 13.9897 7.97372C 13.9194 8.03183 13.8501 8.08408 13.7798 8.13632C 13.7085 8.19003 13.6372 8.24326 13.5659 8.30283C 13.2827 8.56113 13.0942 8.9371 13.2124 9.61972ZM 13.9897 11.6417L 13.9897 10.419L 13.5659 10.419L 13.1655 10.419C 13.2358 10.8658 13.354 11.2188 13.5659 11.4303C 13.6831 11.5479 13.8257 11.6183 13.9897 11.6417ZM 17.2915 6.82089C 17.3384 6.11581 16.3481 6.11581 15.7583 6.42099C 15.4526 6.58554 15.2642 6.84433 15.4058 7.12705L 15.7593 7.40927C 16.1128 7.6915 16.4673 7.95029 16.8208 8.0914C 16.7974 8.58505 16.7974 9.0787 16.7974 9.57285C 17.8345 9.69003 18.2349 9.40829 18.2114 8.86728C 18.6831 8.11484 19.7437 8.63193 19.3198 9.54892C 18.6314 10.3731 17.9429 10.379 17.2407 10.3853C 17.1011 10.3868 16.9605 10.3878 16.8198 10.3956L 16.8198 11.5484C 16.5845 11.6661 16.1841 11.9478 15.7593 12.2779C 15.6841 12.3521 15.5991 12.4176 15.5112 12.4854L 15.3579 12.607L 15.3579 15.5704C 15.5474 15.6168 15.6646 15.6168 15.7593 15.5465C 15.9087 15.4493 15.9849 15.2193 16.0864 14.9112C 16.3062 14.2481 16.645 13.2223 18.0923 12.3712C 18.4009 12.2296 18.7065 11.7125 18.7769 11.0069C 19.3784 12.1446 19.5786 11.8453 19.9067 11.357C 19.9517 11.2896 19.9995 11.2193 20.0503 11.1485C 20.4272 10.631 21.2759 10.1602 22.479 10.0665C 22.313 10.3487 22.1958 10.631 22.2896 10.9371C 23.8452 11.5953 24.4829 12.6539 23.5161 14.0645C 22.6909 14.5587 21.937 14.7935 21.2759 13.8761C 20.6401 11.9478 22.9966 12.2779 22.7847 13.7589C 23.9644 13.3829 23.398 11.8541 22.1489 11.6656C 21.1343 11.3839 20.8042 11.6417 21.1812 12.4181C 20.5679 12.3712 19.9087 12.3243 19.9556 12.7003C 19.9439 12.9356 19.938 13.171 19.9321 13.4063C 19.9263 13.6417 19.9204 13.8766 19.9087 14.1119C 19.8384 15.6407 23.2319 16.6754 22.5483 14.9581C 23.2798 15.7345 24.1284 15.8043 25.2603 14.3936C 25.9683 13.8521 26.3921 13.4063 26.4624 13.0997L 26.4624 12.9825C 26.4155 12.7711 26.0864 12.6534 25.4019 12.7003C 26.3892 10.4278 25.8657 10.1153 25.1089 9.66269C 24.6362 9.37997 24.0718 9.04208 23.7271 8.13779C 23.5894 7.42636 23.4009 7.44296 23.105 7.46884C 22.7935 7.4957 22.3628 7.5333 21.7476 6.75058C 20.6099 7.35165 20.1138 7.02255 19.6255 6.69736C 19.1011 6.34872 18.5845 6.00546 17.2915 6.82089ZM 16.1597 10.419L 15.7583 10.419L 15.3579 10.4195L 15.3579 11.6417C 15.522 11.6183 15.6636 11.5479 15.7583 11.4303C 15.9937 11.2188 16.1118 10.8658 16.1597 10.419ZM 15.3579 7.97372L 15.3579 9.61972L 15.7583 9.61972L 16.1353 9.61972C 16.229 8.9371 16.0415 8.56113 15.7583 8.30283C 15.6821 8.22665 15.5962 8.16025 15.5064 8.09091C 15.4575 8.05331 15.4077 8.01523 15.3579 7.97372ZM 13.5659 3.22226C 13.8726 3.7164 14.273 3.50497 14.6743 3.19882C 15.0747 3.50497 15.4761 3.7164 15.7583 3.22226C 15.8052 3.15195 15.8296 3.10507 15.853 3.03476C 15.9478 2.56406 15.8999 2.21152 15.7583 1.92929C 15.5708 1.52939 15.1694 1.31747 14.6743 1.20029C 14.1548 1.31796 13.7778 1.52939 13.5659 1.92929C 13.4478 2.21152 13.4009 2.56406 13.4712 3.03476C 13.519 3.10507 13.5425 3.15195 13.5659 3.22226ZM 13.5669 27.8936C 13.7554 27.6353 13.896 27.3287 14.0386 26.9762L 14.0386 24.0841C 13.896 24.3893 13.7319 24.672 13.5669 24.9537C 13.0005 25.8951 12.2935 26.6241 11.5151 26.859C 10.9497 27.0943 11.1147 27.4703 11.5855 27.9171C 9.88819 27.7286 8.85108 27.8936 8.42627 28.4112C 9.20459 28.9518 12.0103 30.1983 13.5669 27.8936ZM 15.2876 26.9762C 15.4292 27.3287 15.5942 27.6349 15.7593 27.8936C 17.3384 30.1983 20.1216 28.9518 20.8989 28.4112C 20.4985 27.8936 19.437 27.7291 17.7632 27.9171C 18.2349 27.4703 18.3774 27.0943 17.8335 26.859C 17.0562 26.6241 16.3491 25.8951 15.7593 24.9537C 15.5942 24.672 15.4292 24.3893 15.2876 24.0841L 15.2876 26.9762Z"/>
<path id="path1_fill" d="M 17.7356 8.32951C 10.6256 8.32951 4.24445 5.08125 -1.85951e-06 -1.74006e-06L 7.63051 -1.74006e-06C 10.5108 1.97833 13.9931 3.13932 17.7356 3.13932C 21.4782 3.13932 24.9607 1.97833 27.8408 -1.74006e-06L 35.4715 -1.74006e-06C 31.2271 5.08125 24.8457 8.32951 17.7356 8.32951Z"/>
<path id="path2_stroke" d="M -1.85951e-06 -1.74006e-06L -1.85951e-06 -0.500002L -1.06915 -0.500002L -0.383738 0.320539L -1.85951e-06 -1.74006e-06ZM 7.63051 -1.74006e-06L 7.91359 -0.412149L 7.78568 -0.500002L 7.63051 -0.500002L 7.63051 -1.74006e-06ZM 27.8408 -1.74006e-06L 27.8408 -0.500002L 27.6856 -0.500002L 27.5577 -0.412137L 27.8408 -1.74006e-06ZM 35.4715 -1.74006e-06L 35.8553 0.320539L 36.5407 -0.500002L 35.4715 -0.500002L 35.4715 -1.74006e-06ZM 17.7356 7.82951C 10.7812 7.82951 4.53802 4.65276 0.383734 -0.320543L -0.383738 0.320539C 3.95088 5.50973 10.47 8.82951 17.7356 8.82951L 17.7356 7.82951ZM -1.85951e-06 0.499998L 7.63051 0.499998L 7.63051 -0.500002L -1.85951e-06 -0.500002L -1.85951e-06 0.499998ZM 7.34743 0.412146C 10.288 2.42595 13.913 3.63286 17.7356 3.63932L 17.7356 2.63932C 14.0732 2.64578 10.7336 1.53071 7.91359 -0.412149L 7.34743 0.412146ZM 17.7356 3.63932C 21.5583 3.63286 25.1835 2.42595 28.1239 0.412134L 27.5577 -0.412137C 24.7379 1.53071 21.3981 2.64577 17.7356 2.63932L 17.7356 3.63932ZM 27.8408 0.499998L 35.4715 0.499998L 35.4715 -0.500002L 27.8408 -0.500002L 27.8408 0.499998ZM 35.0878 -0.320543C 30.9335 4.65276 24.6901 7.82951 17.7356 7.82951L 17.7356 8.82951C 25.0012 8.82951 31.5207 5.50973 35.8553 0.320539L 35.0878 -0.320543Z"/>
<path id="path3_stroke" d="M 5.3925 37.6603L 4.98533 37.9606L 5.13698 38.1662L 5.3925 38.1662L 5.3925 37.6603ZM 42.6075 37.6603L 42.6075 38.1662L 42.863 38.1662L 43.0146 37.9606L 42.6075 37.6603ZM 35.5578 37.6603L 35.2308 37.2744L 34.1784 38.1662L 35.5578 38.1662L 35.5578 37.6603ZM 12.4426 37.6603L 12.4426 38.1662L 13.8221 38.1662L 12.7697 37.2744L 12.4426 37.6603ZM 48 24.0299L 48.5059 24.0299L 48.5059 24.0299L 48 24.0299ZM 5.79967 37.3601C 3.0177 33.5966 1.39859 29.0301 1.4059 24.0289L 0.394102 24.0289C 0.40141 29.2014 2.12394 34.0709 4.98533 37.9606L 5.79967 37.3601ZM 1.4059 24.0289C 1.4059 11.567 11.5645 1.40596 24 1.40596L 24 0.394165C 11.0048 0.394165 0.394102 11.0091 0.394102 24.0289L 1.4059 24.0289ZM 24 1.40596C 36.4354 1.40596 46.5941 11.5673 46.5941 24.0289L 47.6059 24.0289C 47.6059 11.0094 36.9952 0.394165 24 0.394165L 24 1.40596ZM 46.5941 24.0289C 46.6014 29.0301 44.9823 33.5966 42.2003 37.3601L 43.0146 37.9606C 45.876 34.0709 47.5986 29.2014 47.6059 24.0289L 46.5941 24.0289ZM 42.6075 37.1544L 35.5578 37.1544L 35.5578 38.1662L 42.6075 38.1662L 42.6075 37.1544ZM 35.8849 38.0463C 39.8731 34.6664 42.4159 29.6261 42.4159 24.0223L 41.4041 24.0223C 41.4041 29.3135 39.0039 34.0768 35.2308 37.2744L 35.8849 38.0463ZM 42.4159 24.0223C 42.4159 13.8652 34.1384 5.58411 24.0002 5.58411L 24.0002 6.59591C 33.5787 6.59591 41.4041 14.423 41.4041 24.0223L 42.4159 24.0223ZM 24.0002 5.58411C 13.862 5.58411 5.58478 13.8652 5.58478 24.0223L 6.59658 24.0223C 6.59658 14.423 14.4217 6.59591 24.0002 6.59591L 24.0002 5.58411ZM 5.58478 24.0223C 5.58478 29.6261 8.12741 34.6664 12.1156 38.0463L 12.7697 37.2744C 8.99659 34.0768 6.59658 29.3136 6.59658 24.0223L 5.58478 24.0223ZM 12.4426 37.1544L 5.3925 37.1544L 5.3925 38.1662L 12.4426 38.1662L 12.4426 37.1544ZM 24 47.4941C 11.0684 47.4941 0.5059 36.9267 0.5059 24.0299L -0.5059 24.0299C -0.5059 37.4862 10.5103 48.5059 24 48.5059L 24 47.4941ZM 0.5059 24.0299C 0.5059 11.0719 11.0692 0.5059 24 0.5059L 24 -0.5059C 10.5095 -0.5059 -0.5059 10.5141 -0.5059 24.0299L 0.5059 24.0299ZM 24 0.5059C 36.931 0.5059 47.4941 11.0719 47.4941 24.0299L 48.5059 24.0299C 48.5059 10.5141 37.4908 -0.5059 24 -0.5059L 24 0.5059ZM 47.4941 24.0299C 47.4939 36.9267 36.9316 47.4941 24 47.4941L 24 48.5059C 37.4897 48.5059 48.5056 37.4862 48.5059 24.0299L 47.4941 24.0299Z"/>
<path id="path4_fill" d="M 1.94832 25.1353C 2.24308 25.1088 2.43349 25.1366 2.58861 25.1923C 2.94405 25.3158 3.11669 25.5935 3.15985 25.7668C 3.20276 25.9404 3.16188 26.1535 3.01666 26.3266C 2.85697 26.5175 2.59115 26.6404 2.17453 26.7448L 1.56292 26.8978C 1.09755 27.0141 0.87946 26.9884 0.757595 26.953C 0.553725 26.8906 0.386669 26.7107 0.327006 26.4706C 0.261758 26.2085 0.351633 25.9829 0.550171 25.7587C 0.656548 25.6375 0.808372 25.51 1.0191 25.4102L 0.994721 25.3125L 0 25.5708L 0.0309763 25.695C 0.162997 25.6762 0.205903 25.7742 0.218089 25.8228C 0.230276 25.8717 0.219104 25.9218 0.213518 26.0506C 0.207933 26.2362 0.203363 26.3884 0.248554 26.5707C 0.340207 26.9393 0.579365 27.2007 0.821826 27.3615C 1.06987 27.526 1.53931 27.7296 2.12883 27.5822C 2.33727 27.5301 2.53225 27.4435 2.71403 27.3038C 2.89124 27.165 3.06541 26.9563 3.17737 26.7254C 3.31168 26.4513 3.36169 26.1603 3.27537 25.8137C 3.20352 25.525 3.09511 25.3916 2.99661 25.2605C 2.93237 25.1727 2.908 25.1315 2.89911 25.0961C 2.88464 25.0383 2.908 24.9619 2.98569 24.9141L 2.95471 24.7896L 1.91785 25.0111L 1.94832 25.1353Z"/>
<path id="path5_fill" fill-rule="evenodd" d="M 2.16912 22.1808C 2.29378 22.2431 2.40675 22.3299 2.49663 22.4139C 2.60656 22.5191 2.70126 22.658 2.71853 22.854C 2.73478 23.0409 2.64439 23.1592 2.53522 23.2242C 2.43544 23.288 2.30418 23.3087 2.12672 23.3244L 1.71263 23.3606L 1.60448 22.1199C 1.38208 22.1441 1.15155 22.2378 0.986522 22.3948C 0.787476 22.5822 0.678307 22.854 0.702172 23.1277C 0.720452 23.3374 0.806516 23.5874 1.04441 23.7915C 1.25259 23.971 1.53314 24.0843 1.84237 24.0573C 2.25189 24.0211 2.48673 23.7709 2.57762 23.6571C 2.74696 23.4446 2.83658 23.1564 2.81068 22.8599C 2.78961 22.6181 2.69415 22.4702 2.55452 22.3399C 2.45956 22.2515 2.3377 22.1658 2.21279 22.1031L 2.16912 22.1808ZM 1.62606 23.3682L 1.33028 23.3944C 1.07564 23.4166 0.819973 23.4301 0.796108 23.1562C 0.78773 23.0602 0.812106 22.9202 1.01648 22.8426C 1.10966 22.807 1.30033 22.7856 1.35948 22.7805L 1.57325 22.7616L 1.62606 23.3682Z"/>
<path id="path6_fill" d="M 0.643889 20.3605C 0.677148 20.4578 0.700756 20.5642 0.694409 20.7472L 0.677399 21.2369L 0.768546 21.24L 0.776669 21.0066L 2.5889 21.0699L 2.58103 21.2942L 2.67243 21.2975L 2.71026 20.2083L 2.61886 20.205L 2.61124 20.4292L 1.41976 20.3875C 1.17781 20.3791 1.04274 20.3239 0.966576 20.2755C 0.863752 20.2121 0.757883 20.0986 0.763215 19.9476C 0.764738 19.9018 0.775145 19.87 0.820844 19.8718C 0.857404 19.8731 0.884064 19.897 0.915292 19.9163C 0.973431 19.955 1.0501 19.9853 1.12754 19.9879C 1.31922 19.9945 1.44286 19.8568 1.44972 19.6646C 1.45302 19.5686 1.419 19.494 1.35273 19.4319C 1.27327 19.3558 1.18238 19.339 1.10012 19.336C 0.999581 19.3327 0.866291 19.3553 0.765752 19.4895C 0.679685 19.6009 0.665213 19.7516 0.662166 19.8433C 0.65785 19.9667 0.677401 20.0637 0.733002 20.1711C 0.78454 20.2646 0.842171 20.3216 0.904627 20.3648L 0.904375 20.3694L 0.643889 20.3605Z"/>
<path id="path7_fill" d="M 0.291649 18.1732L 0.905291 18.2707L 0.868732 18.5013L 0.95886 18.5158L 0.995419 18.2852L 2.4842 18.5217C 2.56087 18.5339 2.73225 18.5611 2.86731 18.4387C 2.96937 18.3483 3.00137 18.205 3.01355 18.1281C 3.03564 17.9879 3.03539 17.7837 2.90083 17.5539L 2.80714 17.59C 2.82644 17.644 2.82821 17.6908 2.82187 17.7316C 2.8112 17.7995 2.78962 17.8471 2.73428 17.8751C 2.66395 17.9105 2.60226 17.8912 2.53447 17.8805L 1.09545 17.6519L 1.1546 17.2764L 1.06448 17.2622L 1.00532 17.6376L 0.224877 17.5137L 0.291649 18.1732Z"/>
<path id="path8_fill" fill-rule="evenodd" d="M 1.42999 15.5249C 1.44573 15.6428 1.43507 15.7537 1.39241 15.9131L 1.267 16.382L 1.35535 16.4056L 1.4145 16.1844L 3.1658 16.6548L 3.10791 16.8717L 3.19627 16.8954L 3.47757 15.8426L 3.38922 15.8189L 3.33133 16.0358L 1.42999 15.5249ZM 0.655385 15.9996C 0.827519 16.0457 1.00092 15.9454 1.04688 15.7728C 1.09308 15.6002 0.992798 15.4264 0.820664 15.3803C 0.64853 15.3342 0.475129 15.4345 0.429176 15.6069C 0.383223 15.7794 0.483251 15.9533 0.655385 15.9996Z"/>
<path id="path9_fill" d="M 2.08476 14.2814L 3.69667 14.9018L 3.61645 15.1113L 3.70175 15.1441L 4.09121 14.1267L 4.00591 14.0938L 3.92568 14.3033L 2.31376 13.683L 2.45949 13.3025L 2.3785 13.2714L 2.23277 13.652L 2.09618 13.5993C 1.90018 13.5239 1.86261 13.5193 1.76232 13.5002C 1.69606 13.4944 1.62726 13.4824 1.54602 13.4514C 1.29035 13.3529 1.32945 13.1864 1.36373 13.0968C 1.39495 13.0156 1.44116 12.9843 1.4668 12.9942C 1.49244 13.0041 1.50565 13.0584 1.5191 13.0879C 1.53586 13.1334 1.5841 13.1864 1.65671 13.2144C 1.78898 13.2653 1.94055 13.2009 2.00275 13.0385C 2.06648 12.8718 1.95274 12.7348 1.83341 12.6888C 1.73947 12.6526 1.61685 12.6788 1.52773 12.733C 1.38657 12.8209 1.3033 12.9998 1.26573 13.0981C 1.20022 13.2691 1.16036 13.4498 1.22663 13.6471C 1.2868 13.8222 1.40917 13.9625 1.55287 14.0473C 1.6402 14.1005 1.85448 14.1926 1.9012 14.2109L 2.00352 14.2504L 1.90374 14.5111L 1.98473 14.5421L 2.08476 14.2814Z"/>
<path id="path10_fill" fill-rule="evenodd" d="M 3.01506 11.5672C 3.00592 11.6858 2.9724 11.7922 2.89776 11.9391L 2.6779 12.3716L 2.75939 12.4131L 2.86298 12.2092L 4.4787 13.0347L 4.37715 13.2345L 4.45865 13.2762L 4.9522 12.3051L 4.8707 12.2634L 4.76915 12.4635L 3.01506 11.5672ZM 2.15896 11.8699C 2.31764 11.9508 2.50805 11.889 2.58904 11.7299C 2.66978 11.5708 2.60808 11.3799 2.44915 11.2987C 2.29047 11.2177 2.10006 11.2796 2.01932 11.4387C 1.93833 11.598 2.00003 11.7889 2.15896 11.8699Z"/>
<path id="path11_fill" fill-rule="evenodd" d="M 5.82797 9.86329C 5.88764 9.98954 5.92369 10.1275 5.94298 10.2492C 5.96507 10.4001 5.95441 10.5679 5.84752 10.7331C 5.74546 10.8906 5.60151 10.9278 5.47609 10.9115C 5.35803 10.9003 5.24201 10.8357 5.09272 10.7384L 4.74414 10.5114L 5.42074 9.4667C 5.23058 9.34834 4.99168 9.28012 4.76496 9.30201C 4.49279 9.32696 4.23992 9.47332 4.09064 9.70394C 3.97614 9.8806 3.89058 10.1306 3.95253 10.4386C 4.00635 10.7086 4.15792 10.9708 4.41815 11.1403C 4.76293 11.3649 5.10186 11.3124 5.24328 11.2791C 5.50732 11.2159 5.75486 11.0441 5.91633 10.7947C 6.04835 10.591 6.06383 10.4157 6.03362 10.2268C 6.01305 10.0987 5.96964 9.95569 5.90973 9.82944L 5.82797 9.86329ZM 4.67102 10.464L 4.42196 10.3019C 4.20743 10.1621 3.99797 10.015 4.14726 9.78438C 4.19956 9.70369 4.30466 9.60849 4.51336 9.67314C 4.60856 9.70241 4.77207 9.80347 4.82183 9.8358L 5.00183 9.95314L 4.67102 10.464Z"/>
<path id="path12_fill" fill-rule="evenodd" d="M 5.96548 5.85623C 5.92841 5.95219 5.87839 6.04866 5.75628 6.1851L 5.42927 6.54935L 5.49706 6.6107L 5.65294 6.43711L 6.49483 7.19718C 6.42221 7.16841 6.36331 7.15874 6.27014 7.16663C 6.10918 7.18165 5.99899 7.23612 5.8949 7.35169C 5.72378 7.54234 5.65091 7.81522 5.6697 8.05424C 5.69382 8.39024 5.85732 8.61169 6.04063 8.7774C 6.20362 8.92453 6.38439 9.04467 6.65808 9.08209C 7.06201 9.1386 7.32046 8.94667 7.46416 8.78682C 7.58628 8.65063 7.61878 8.5259 7.61674 8.42536C 7.61548 8.33779 7.57333 8.21358 7.54033 8.14078L 7.77111 8.34925L 8.34869 7.70601L 8.28091 7.64467L 8.13112 7.8114L 5.96548 5.85623ZM 6.23282 8.00179C 6.15817 7.93434 6.07185 7.83201 6.02819 7.73681C 5.95481 7.57212 6.00585 7.43314 6.07008 7.36161C 6.13736 7.28678 6.38007 7.10528 6.83478 7.51587L 7.03179 7.69354C 7.16407 7.81292 7.38266 8.03489 7.46568 8.20238C 7.5812 8.42995 7.50783 8.57325 7.44969 8.63765C 7.40983 8.68194 7.31919 8.74177 7.17549 8.71707C 7.03839 8.69187 6.86728 8.57427 6.74186 8.461L 6.23282 8.00179Z"/>
<path id="path13_fill" d="M 8.56168 3.49532L 8.61474 3.58059C 8.65739 3.55386 8.80007 3.48055 8.90239 3.49761C 9.00699 3.51848 9.07858 3.62488 9.10524 3.66739L 10.088 5.24404C 10.1269 5.30615 10.2632 5.53397 10.246 5.69586C 10.2358 5.78317 10.1744 5.89212 10.0746 5.96542L 10.1279 6.0507L 10.8636 5.58946L 10.8106 5.50419C 10.6984 5.57445 10.5892 5.57267 10.5166 5.54263C 10.4252 5.50801 10.3302 5.41637 10.1947 5.19873L 9.10042 3.44339L 11.4136 5.24506L 11.491 5.1967L 10.8822 2.32745L 12.2862 4.57993L 11.9607 4.78382L 12.0137 4.8691L 13.257 4.09019L 13.2037 4.00466L 12.8823 4.20626L 11.4034 1.83338L 11.7248 1.63178L 11.6718 1.54651L 10.7189 2.14342L 11.1399 4.1584L 9.50257 2.90528L 8.56168 3.49532Z"/>
<path id="path14_fill" fill-rule="evenodd" d="M 16.0766 2.70724C 16.0476 2.7724 16.0162 2.84341 15.9606 2.8648C 15.8496 2.90731 15.8108 2.78003 15.7732 2.68178L 15.3248 1.51036C 15.2969 1.43756 15.221 1.29018 14.9648 1.28585C 14.8955 1.28331 14.7381 1.29476 14.4268 1.41439C 14.2562 1.48007 14.0983 1.56534 13.9549 1.68931C 13.7391 1.88022 13.6591 2.09225 13.7312 2.28062C 13.7934 2.44302 13.9533 2.5288 14.141 2.45626C 14.3372 2.38091 14.3598 2.21011 14.3123 2.08614C 14.2862 2.01767 14.2334 1.96931 14.1788 1.94131C 14.1239 1.91331 14.0496 1.89803 14.0282 1.84229C 14.0054 1.78247 14.059 1.65392 14.2636 1.57502C 14.4342 1.50934 14.5396 1.54243 14.5962 1.5745C 14.6761 1.61727 14.7066 1.68422 14.7262 1.73538L 14.9112 2.2185C 14.6543 2.3272 14.4329 2.45167 14.2395 2.58505C 14.0612 2.70749 13.7883 2.94015 13.929 3.30771C 14.0026 3.50015 14.1404 3.57931 14.2522 3.61495C 14.3854 3.65695 14.5441 3.64982 14.7064 3.58746C 14.847 3.53349 14.9491 3.45484 15.044 3.34462C 15.1293 3.24815 15.1832 3.15854 15.2238 3.03509C 15.2781 3.08778 15.3545 3.14658 15.434 3.17484C 15.531 3.21124 15.6572 3.22142 15.7851 3.17203C 15.8834 3.13436 15.9603 3.08015 16.0189 3.00353C 16.0888 2.91775 16.1329 2.80269 16.1576 2.73931L 16.0766 2.70724ZM 15.1913 2.94982C 15.1248 3.0832 15.0623 3.20054 14.9171 3.25654C 14.7038 3.33851 14.6208 3.15982 14.57 3.0272C 14.5225 2.90323 14.4593 2.75102 14.5634 2.58811C 14.6337 2.47764 14.8262 2.35443 14.944 2.30429L 15.1913 2.94982Z"/>
<path id="path15_fill" d="M 17.2888 0.571849C 17.2071 0.626576 17.1101 0.675451 16.9314 0.713632L 16.449 0.816467L 16.468 0.906072L 16.6957 0.857452L 17.0728 2.63571L 16.845 2.68433L 16.8641 2.77393L 17.9096 2.5512L 17.8905 2.4616L 17.6986 2.50259L 17.4346 1.25735C 17.4165 1.17233 17.4236 1.09571 17.4602 1.00382C 17.5333 0.819782 17.6537 0.770651 17.725 0.755378C 17.8144 0.736287 17.8781 0.750799 17.9345 0.818254C 17.9972 0.893854 18.0228 1.01476 18.0533 1.15807L 18.3107 2.372L 18.1231 2.41196L 18.1421 2.50156L 19.1742 2.28164L 19.1551 2.19204L 18.9363 2.23862L 18.6486 0.881377C 18.623 0.760468 18.5781 0.592212 18.4407 0.494975C 18.3087 0.401302 18.0893 0.401303 17.9375 0.43363C 17.7765 0.467994 17.6869 0.529088 17.5983 0.618434C 17.494 0.720252 17.4244 0.833268 17.3703 0.95265L 17.2888 0.571849Z"/>
<path id="path16_fill" fill-rule="evenodd" d="M 22.1458 1.84764C 22.0973 1.89983 22.0445 1.95658 21.9851 1.95888C 21.8665 1.96295 21.8708 1.83008 21.8673 1.7247L 21.8236 0.470798C 21.8208 0.392907 21.7969 0.228983 21.5562 0.141165C 21.4915 0.115965 21.3392 0.0754905 21.0061 0.0871997C 20.8235 0.0935633 20.6463 0.12284 20.4706 0.193095C 20.2048 0.303059 20.0601 0.477676 20.0672 0.679022C 20.073 0.852877 20.1967 0.986256 20.3975 0.979128C 20.6075 0.971747 20.6844 0.817747 20.6798 0.685128C 20.6773 0.611819 20.643 0.54895 20.6004 0.504659C 20.5577 0.460368 20.4922 0.421421 20.4902 0.361857C 20.4879 0.297966 20.5803 0.193602 20.7994 0.18622C 20.982 0.179856 21.0711 0.245526 21.114 0.294399C 21.1757 0.360835 21.1828 0.433892 21.1848 0.488874L 21.2028 1.00611C 20.9248 1.02494 20.675 1.07025 20.4485 1.13338C 20.2404 1.19116 19.9068 1.322 19.9205 1.71553C 19.9276 1.92146 20.0324 2.0416 20.1261 2.1116C 20.2388 2.19459 20.3912 2.23964 20.5646 2.23379C 20.7151 2.22844 20.8372 2.18746 20.9627 2.1144C 21.0746 2.05077 21.1546 1.98383 21.2333 1.88048C 21.2676 1.94793 21.3206 2.02863 21.3866 2.08132C 21.4666 2.14724 21.5826 2.19815 21.7197 2.19331C 21.8249 2.18975 21.9152 2.16353 21.9955 2.11033C 22.0894 2.05204 22.1686 1.95761 22.2123 1.90568L 22.1458 1.84764ZM 21.2295 1.78808C 21.1236 1.8927 21.0261 1.98306 20.8708 1.98866C 20.6425 1.99655 20.6222 1.8003 20.6169 1.65851C 20.6123 1.52589 20.6019 1.3612 20.7532 1.24131C 20.8555 1.15986 21.0777 1.10614 21.2051 1.09724L 21.2295 1.78808Z"/>
<path id="path17_fill" fill-rule="evenodd" d="M 24.2623 2.43283C 24.4126 2.44683 24.5187 2.5568 24.501 2.70215C 24.4837 2.84316 24.3865 2.92334 24.2973 2.97247C 24.0602 3.10483 23.7418 3.0748 23.6603 3.06487C 23.1978 3.00785 23.2239 2.75738 23.2308 2.70291C 23.2402 2.62578 23.2998 2.54992 23.3747 2.50385C 23.3151 2.42749 23.2325 2.38498 23.1556 2.37556C 23.0378 2.36105 22.8601 2.42214 22.8367 2.61305C 22.8261 2.69934 22.8271 2.87956 23.0399 3.02109C 23.1203 3.07709 23.2683 3.14607 23.5634 3.18222C 23.749 3.20513 23.9554 3.212 24.1732 3.16058C 24.391 3.10891 24.5644 3.0104 24.6962 2.87422C 24.8178 2.74618 24.896 2.59421 24.9178 2.4173C 24.9412 2.2264 24.8701 2.09302 24.7797 2.00342C 24.6647 1.89244 24.4905 1.84789 24.2905 1.82778L 23.508 1.75447C 23.2762 1.73054 23.2305 1.61422 23.2399 1.53709C 23.2478 1.47345 23.3217 1.39479 23.391 1.35737C 23.5809 1.45894 23.751 1.49865 23.896 1.51647C 24.1044 1.54218 24.3766 1.53861 24.5865 1.44011C 24.7383 1.36654 24.9067 1.23036 24.9397 0.962319C 24.9729 0.689445 24.877 0.497774 24.6109 0.340465C 24.6396 0.293119 24.6807 0.256722 24.7124 0.260795C 24.7533 0.265631 24.7873 0.325197 24.8061 0.359815C 24.8488 0.424979 24.896 0.453997 24.9684 0.462906C 25.1453 0.484797 25.1824 0.332317 25.1857 0.305081C 25.2055 0.141408 25.1006 0.0225394 24.942 0.00293936C 24.7922 -0.0153879 24.6959 0.0558811 24.6391 0.108827C 24.5822 0.161772 24.5281 0.224395 24.4888 0.283959C 24.3435 0.229232 24.2133 0.204026 24.0635 0.185444C 23.8779 0.162535 23.6164 0.153632 23.393 0.287268C 23.2589 0.367705 23.1216 0.512284 23.0924 0.748757C 23.0663 0.962322 23.1335 1.12752 23.2894 1.2805C 23.0467 1.38461 22.9203 1.59029 22.8969 1.7812C 22.8718 1.9856 22.9576 2.1116 23.0061 2.16836C 23.1394 2.31854 23.3168 2.33585 23.4941 2.35291L 24.2623 2.43283ZM 23.8442 0.549699C 23.8513 0.490644 23.8688 0.386791 23.9348 0.334864C 23.9703 0.306864 24.0224 0.294905 24.077 0.301523C 24.1359 0.30865 24.1978 0.330286 24.2296 0.407923C 24.2555 0.461887 24.2588 0.582285 24.2516 0.64134L 24.1917 1.13236C 24.1839 1.19599 24.1638 1.28585 24.1204 1.34032C 24.0706 1.40803 24.0191 1.41541 23.9556 1.40777C 23.8604 1.39607 23.8048 1.36145 23.7825 1.24334C 23.7771 1.21025 23.7713 1.14509 23.7865 1.0224L 23.8442 0.549699Z"/>
<path id="path18_fill" fill-rule="evenodd" d="M 27.4583 2.40738C 27.3585 2.50538 27.2402 2.58404 27.1318 2.64207C 26.9967 2.71207 26.8347 2.75662 26.6443 2.70902C 26.4625 2.66346 26.3805 2.53924 26.3549 2.41477C 26.3272 2.29921 26.3501 2.16837 26.3932 1.99502L 26.4938 1.5908L 27.6992 1.89218C 27.7487 1.67328 27.7355 1.42458 27.6411 1.21687C 27.5291 0.967161 27.3082 0.775238 27.0427 0.708547C 26.8386 0.657638 26.575 0.657889 26.3049 0.816726C 26.068 0.955708 25.8697 1.18454 25.7946 1.48669C 25.695 1.88658 25.8547 2.19076 25.9324 2.31396C 26.0777 2.54382 26.3204 2.72226 26.6085 2.7943C 26.8434 2.8531 27.014 2.81059 27.1823 2.72073C 27.2963 2.65939 27.4172 2.57182 27.5167 2.47382L 27.4583 2.40738ZM 26.5151 1.50604L 26.5869 1.21713C 26.6489 0.968435 26.7195 0.721781 26.9855 0.788217C 27.0785 0.811381 27.2024 0.880365 27.2095 1.09902C 27.2128 1.19906 27.1709 1.38666 27.1564 1.44444L 27.1046 1.65342L 26.5151 1.50604Z"/>
<path id="path19_fill" d="M 29.8715 1.60225C 29.7527 1.59716 29.6458 1.56738 29.4965 1.49764L 29.0578 1.29246L 29.0192 1.37571L 29.2261 1.47243L 28.4596 3.12011L 28.2568 3.02542L 28.2182 3.1084L 29.1746 3.55538L 29.2132 3.4724L 29.039 3.3912L 29.5757 2.23734C 29.6105 2.16276 29.6889 2.04771 29.8573 2.00011C 29.9504 1.97313 30.0261 1.97312 30.117 2.01563C 30.1916 2.0505 30.2315 2.09454 30.2383 2.18847C 30.2432 2.28647 30.1909 2.39872 30.1292 2.5316L 29.6059 3.65618L 29.4317 3.57498L 29.3934 3.65797L 30.3206 4.09145L 30.3589 4.00847L 30.185 3.92702L 30.7217 2.77342C 30.7565 2.69884 30.835 2.58378 31.0033 2.53618C 31.0965 2.5092 31.1719 2.50894 31.263 2.55145C 31.3374 2.58632 31.3775 2.63036 31.3844 2.72429C 31.3892 2.82254 31.3366 2.93455 31.275 3.06742L 30.7517 4.192L 30.5778 4.1108L 30.5392 4.19378L 31.4956 4.64077L 31.5342 4.55778L 31.3313 4.46284L 31.9163 3.20538C 31.9683 3.09338 32.0336 2.93149 31.982 2.77113C 31.9307 2.61076 31.7535 2.48222 31.6253 2.4224C 31.4679 2.34884 31.3638 2.34552 31.2292 2.3636C 31.1051 2.38141 30.9896 2.41323 30.8365 2.50334C 30.8571 2.42698 30.8837 2.28291 30.7794 2.12789C 30.7093 2.02938 30.5859 1.93647 30.4783 1.88607C 30.3211 1.8125 30.2168 1.8092 30.0822 1.82752C 29.9621 1.84712 29.8443 1.87283 29.7057 1.95454L 29.8715 1.60225Z"/>
<path id="path20_fill" fill-rule="evenodd" d="M 33.9149 5.71903C 33.7869 5.77452 33.648 5.80557 33.5262 5.82059C 33.3748 5.83739 33.208 5.82085 33.0471 5.70808C 32.8937 5.60041 32.8617 5.45481 32.8823 5.32957C 32.8978 5.21172 32.9661 5.09768 33.0681 4.95157L 33.3065 4.61023L 34.3241 5.32473C 34.4488 5.13841 34.5252 4.90117 34.5112 4.67361C 34.4957 4.39997 34.3586 4.1416 34.1342 3.98404C 33.9621 3.86313 33.7161 3.7687 33.4071 3.82012C 33.1362 3.86466 32.8694 4.00721 32.6911 4.26226C 32.4553 4.59979 32.4956 4.94114 32.5243 5.08419C 32.5776 5.35096 32.7406 5.60499 32.9839 5.77579C 33.1819 5.91503 33.3566 5.93667 33.5457 5.91325C 33.6742 5.89721 33.8181 5.85852 33.9461 5.80302L 33.9149 5.71903ZM 33.3566 4.53896L 33.5267 4.2951C 33.6734 4.0851 33.8278 3.88019 34.052 4.03775C 34.1307 4.09299 34.2218 4.20168 34.1499 4.40837C 34.1175 4.50307 34.0111 4.66317 33.9771 4.71179L 33.8539 4.88819L 33.3566 4.53896Z"/>
<path id="path21_fill" d="M 36.3647 5.78597C 36.2738 5.74881 36.1791 5.69536 36.0476 5.56809L 35.6929 5.22445L 35.6295 5.29038L 35.7968 5.45278L 34.5372 6.76038L 34.3697 6.59823L 34.3062 6.66416L 35.075 7.40871L 35.1387 7.34278L 34.9973 7.20609L 35.8793 6.29023C 35.9394 6.22761 36.0067 6.1907 36.1032 6.16957C 36.2964 6.12732 36.4043 6.19986 36.4569 6.25077C 36.5226 6.31441 36.5465 6.3755 36.5221 6.46026C 36.4947 6.5547 36.4091 6.64354 36.3073 6.74892L 35.4474 7.64162L 35.3096 7.50798L 35.2458 7.5739L 36.0047 8.30878L 36.0684 8.24285L 35.9072 8.08707L 36.8687 7.08899C 36.9542 6.9999 37.0682 6.86856 37.0718 6.70005C 37.0756 6.53816 36.9527 6.35565 36.841 6.24746C 36.7229 6.13292 36.6221 6.0927 36.4988 6.06877C 36.3558 6.03874 36.2238 6.04434 36.0948 6.06623L 36.3647 5.78597Z"/>
<path id="path22_fill" d="M 38.6266 7.37918L 38.144 7.77118L 37.9975 7.58969L 37.9266 7.64747L 38.0731 7.82896L 36.9017 8.77994C 36.8415 8.82881 36.7065 8.93853 36.707 9.12078C 36.7055 9.25747 36.7903 9.37685 36.8393 9.43744C 36.9284 9.54791 37.0794 9.68409 37.3404 9.7378L 37.3762 9.64387C 37.3234 9.62198 37.2874 9.5922 37.2617 9.56013C 37.2186 9.50667 37.1975 9.45907 37.2137 9.39874C 37.2348 9.32263 37.2901 9.28954 37.3435 9.24627L 38.4758 8.32685L 38.7142 8.62238L 38.7853 8.56459L 38.5466 8.26933L 39.1608 7.77067L 38.6266 7.37918Z"/>
<path id="path23_fill" d="M 41.3775 12.6106L 42.1343 12.224L 42.0597 12.0771C 41.9962 12.0532 41.9282 12.0002 41.8993 11.9432C 41.8703 11.8862 41.8698 11.8146 41.8627 11.7205C 41.8515 11.5978 41.8157 11.4565 41.7431 11.3137C 41.6248 11.081 41.4605 10.9288 41.2861 10.8481C 40.9538 10.6888 40.6405 10.8181 40.51 10.8848C 40.3716 10.9556 40.2399 11.0693 40.1556 11.246C 40.0568 11.4453 40.0563 11.636 40.0761 11.8261L 40.1317 12.4093C 40.1581 12.6837 40.1873 13.0029 39.8781 13.1609C 39.7438 13.2294 39.5803 13.2205 39.4531 13.1518C 39.4099 13.1273 39.2766 13.0466 39.1606 12.8181C 39.0423 12.5857 39.0405 12.3604 39.0601 12.227C 39.0794 12.0837 39.1395 11.9297 39.2205 11.7958C 39.3434 11.5942 39.5059 11.4496 39.5544 11.4041L 39.5046 11.3063L 38.5647 11.807L 38.6394 11.9539C 38.7559 11.9613 38.8097 12.0366 38.8283 12.0735C 38.8549 12.1265 38.8618 12.1901 38.8834 12.3332C 38.9133 12.5337 38.9225 12.6524 39.0408 12.8848C 39.1715 13.1418 39.3279 13.3188 39.6026 13.4254C 39.9426 13.5601 40.2401 13.4595 40.3988 13.3783C 40.5737 13.289 40.6953 13.1653 40.774 13.0273C 40.8992 12.8094 40.9058 12.6004 40.8857 12.3897L 40.819 11.6937C 40.8078 11.5609 40.7806 11.4667 40.8142 11.3313C 40.8459 11.202 40.9106 11.1279 41.0206 11.0716C 41.1224 11.0197 41.2244 10.9983 41.3453 11.0548C 41.4745 11.1174 41.555 11.2457 41.6131 11.36C 41.6901 11.511 41.769 11.7273 41.6489 12.0356C 41.589 12.1896 41.4697 12.3688 41.3278 12.5131L 41.3775 12.6106Z"/>
<path id="path24_fill" d="M 41.6152 13.5321L 41.5281 13.5603L 41.5847 13.7347L 39.8088 15.3678C 39.6905 15.3582 39.5275 15.3294 39.4252 15.2953C 39.2853 15.2492 39.1733 15.1703 39.1393 15.0657C 39.1139 14.9873 39.1576 14.944 39.1969 14.9316C 39.2358 14.9188 39.2891 14.9351 39.331 14.9456C 39.4031 14.9606 39.4681 14.954 39.5161 14.9382C 39.6854 14.8829 39.7313 14.7284 39.6877 14.5935C 39.641 14.45 39.4833 14.2893 39.2487 14.3657C 39.1228 14.4069 39.0558 14.4818 39.0103 14.5928C 38.9529 14.7269 38.9491 14.8631 38.9969 15.0112C 39.0448 15.1594 39.1307 15.276 39.3264 15.3612C 39.5496 15.4569 39.9032 15.4814 40.0911 15.4829L 41.7492 15.487C 41.8937 15.488 42.0018 15.5106 42.0795 15.5575C 42.1529 15.6058 42.2215 15.699 42.2484 15.7817L 42.2664 15.8382L 42.3535 15.81L 42.0656 14.9216L 41.9785 14.9499L 41.9998 15.0153C 42.0422 15.1459 42.0285 15.208 42.0183 15.2355C 41.9945 15.3106 41.9249 15.3477 41.8642 15.3676C 41.799 15.3887 41.7556 15.3885 41.7081 15.3895L 40.7317 15.3849L 41.7964 14.3878L 41.8713 14.6187L 41.9582 14.5905L 41.6152 13.5321Z"/>
<path id="path25_fill" d="M 42.2434 18.1386L 42.8487 18.0207L 42.8314 17.9306C 42.7837 17.9258 42.7222 17.896 42.7083 17.8242C 42.6971 17.7657 42.7126 17.702 42.7263 17.6061C 42.7451 17.4859 42.7512 17.3495 42.7304 17.2416C 42.704 17.1066 42.6334 16.9572 42.5496 16.8615C 42.3767 16.6665 42.171 16.6368 41.9332 16.6831C 41.8121 16.7068 41.664 16.7587 41.5539 16.9343C 41.5016 17.0239 41.4767 17.1128 41.4673 17.2077L 41.4302 17.6394C 41.4132 17.8387 41.3825 18.064 41.1446 18.1103C 41.0014 18.1383 40.8222 18.0798 40.7587 17.7517C 40.7376 17.6437 40.7181 17.447 40.8671 17.2314C 40.9539 17.1026 41.14 16.959 41.3302 16.8847L 41.3083 16.7724L 40.5373 16.9226L 40.5591 17.0349C 40.6444 17.0183 40.7087 17.0616 40.7226 17.1336C 40.7341 17.1922 40.7077 17.2487 40.6912 17.3077C 40.6373 17.4862 40.6368 17.603 40.6655 17.7514C 40.7127 17.9942 40.8216 18.1734 40.9494 18.2791C 41.0819 18.3885 41.2807 18.4524 41.5226 18.4053C 41.6618 18.3784 41.8055 18.3038 41.8958 18.1928C 41.9931 18.0711 42.0208 17.9258 42.0301 17.8074L 42.0642 17.3576C 42.0774 17.2105 42.1012 16.9959 42.2937 16.9585C 42.379 16.942 42.5813 16.9537 42.6412 17.264C 42.6727 17.4259 42.644 17.6132 42.5671 17.7448C 42.4975 17.8657 42.3671 17.9843 42.2269 18.0538L 42.2434 18.1386Z"/>
<path id="path26_fill" d="M 43.5821 19.2334L 42.9631 19.2876L 42.9428 19.0549L 42.8519 19.0628L 42.8722 19.2955L 41.3707 19.4273C 41.2933 19.434 41.1207 19.4492 41.0191 19.6007C 40.9417 19.7132 40.9455 19.8601 40.9521 19.9375C 40.9645 20.079 41.0138 20.2768 41.2001 20.4674L 41.2821 20.4096C 41.2506 20.3618 41.2374 20.317 41.2339 20.276C 41.228 20.2075 41.2374 20.1561 41.2842 20.1154C 41.3436 20.0642 41.4083 20.0675 41.4766 20.0617L 42.9281 19.9344L 42.9611 20.3129L 43.0522 20.305L 43.019 19.9263L 43.8062 19.8573L 43.5821 19.2334Z"/>
<path id="path27_fill" fill-rule="evenodd" d="M 41.5387 23.0559C 41.4226 22.9785 41.3211 22.879 41.2421 22.7846C 41.1457 22.6664 41.0685 22.5173 41.0756 22.3205C 41.0819 22.1329 41.1863 22.0265 41.3023 21.9759C 41.4092 21.9244 41.5417 21.9199 41.7202 21.9262L 42.1356 21.941L 42.0921 23.1857C 42.3161 23.1893 42.556 23.1241 42.739 22.9887C 42.9594 22.8268 43.1008 22.5705 43.1105 22.2958C 43.1176 22.0856 43.0627 21.827 42.8513 21.5951C 42.6664 21.3914 42.4019 21.2448 42.0916 21.2339C 41.6808 21.2193 41.4173 21.4393 41.3132 21.5411C 41.1193 21.7312 40.9954 22.0064 40.985 22.304C 40.9766 22.5466 41.0535 22.7049 41.1761 22.8512C 41.2594 22.9505 41.3703 23.0506 41.4866 23.1279L 41.5387 23.0559ZM 42.2221 21.9435L 42.5189 21.954C 42.7746 21.9629 43.0297 21.981 43.0203 22.2556C 43.0168 22.3518 42.9757 22.4878 42.7634 22.5399C 42.6667 22.5641 42.4747 22.5618 42.4153 22.5598L 42.2008 22.5524L 42.2221 21.9435Z"/>
<path id="path28_fill" fill-rule="evenodd" d="M 42.7818 25.3033C 42.7643 25.1854 42.7729 25.0745 42.8125 24.9146L 42.9298 24.4434L 42.841 24.4213L 42.7859 24.6435L 41.0262 24.2034L 41.0803 23.986L 40.9917 23.9636L 40.7363 24.9902L 40.8251 25.0123L 40.8716 24.8258L 42.1037 25.1338C 42.1834 25.1536 42.3109 25.2091 42.3898 25.3657C 42.4342 25.4522 42.4485 25.5268 42.4243 25.6245C 42.4043 25.7045 42.369 25.7523 42.2781 25.777C 42.1829 25.8002 42.0633 25.7704 41.9217 25.7347L 40.7208 25.4346L 40.7672 25.2481L 40.6784 25.2259L 40.4308 26.2212L 40.5197 26.2433L 40.5662 26.0567L 41.7983 26.3647C 41.878 26.3846 42.0054 26.4401 42.0841 26.5966C 42.1286 26.6834 42.1428 26.7578 42.1187 26.8555C 42.0989 26.9354 42.0633 26.9833 41.9727 27.008C 41.8775 27.0314 41.7576 27.0014 41.616 26.966L 40.4151 26.6656L 40.4618 26.479L 40.373 26.4569L 40.1175 27.4832L 40.2064 27.5054L 40.2605 27.2877L 41.6033 27.6235C 41.7231 27.6533 41.8937 27.6866 42.041 27.6054C 42.1882 27.5245 42.2801 27.3254 42.3144 27.1877C 42.3563 27.0187 42.3398 26.9156 42.2964 26.7868C 42.2553 26.6679 42.2022 26.5602 42.0846 26.4271C 42.1634 26.4325 42.3096 26.4314 42.4411 26.2991C 42.5241 26.2113 42.5917 26.0723 42.6203 25.9567C 42.6625 25.7879 42.6457 25.6848 42.6026 25.5558C 42.5602 25.4415 42.5127 25.3305 42.4063 25.2096L 42.7818 25.3033Z"/>
<path id="path29_fill" d="M 1.9968 3.88005C 1.98284 3.90728 1.96887 3.93477 1.95491 3.96175C 1.28846 3.61786 0.635982 3.2363 0 2.81783C 0.0167564 2.79212 0.0335123 2.76641 0.0502687 2.7407C 0.0906364 2.76717 0.130746 2.79364 0.171114 2.81986C 0.276984 2.88859 0.371941 2.92804 0.455216 2.9395C 0.514371 2.94943 0.57124 2.93772 0.625826 2.90539C 0.666447 2.88401 0.730934 2.80128 0.81954 2.6572C 1.20621 2.02797 1.59312 1.39898 1.98004 0.769744C 2.07017 0.623125 2.11816 0.525893 2.12349 0.478548C 2.12882 0.431202 2.11435 0.377746 2.08008 0.318183C 2.04555 0.258364 1.98512 0.200579 1.8983 0.144324C 1.86402 0.121924 1.82975 0.099528 1.79547 0.0768734C 1.81223 0.0511642 1.82899 0.0257092 1.846 0C 2.38169 0.353055 2.93161 0.674291 3.4932 0.964219C 3.47924 0.991201 3.46527 1.0187 3.45106 1.04593C 3.41526 1.02735 3.37946 1.00877 3.34366 0.989931C 3.24998 0.940804 3.1667 0.915604 3.09333 0.91535C 3.04103 0.913313 2.98975 0.930621 2.93897 0.966767C 2.90241 0.991967 2.84351 1.07851 2.76201 1.22666C 2.40607 1.87397 2.05037 2.52128 1.69442 3.16859C 1.6114 3.31953 1.57003 3.41983 1.57053 3.46921C 1.57104 3.51859 1.59439 3.57459 1.64111 3.6367C 1.68782 3.69881 1.7645 3.75837 1.87088 3.81386C 1.91277 3.83652 1.95466 3.85841 1.9968 3.88005Z"/>
<path id="path30_fill" d="M 5.97835 1.9376C 5.86765 2.29549 5.75747 2.65364 5.64779 3.01179C 5.61174 2.99957 5.57569 2.9871 5.53963 2.97488C 5.57975 2.69081 5.531 2.43422 5.39873 2.20309C 5.26645 1.97171 5.09559 1.81389 4.87877 1.72506C 4.71121 1.65608 4.56192 1.64131 4.42813 1.68102C 4.29458 1.72073 4.20267 1.79353 4.15469 1.90094C 4.12422 1.96891 4.11483 2.03738 4.12676 2.10611C 4.14428 2.19902 4.19201 2.3044 4.27173 2.42175C 4.33114 2.50626 4.4789 2.67553 4.7272 2.92244C 5.07553 3.26633 5.30758 3.53819 5.40456 3.75328C 5.49977 3.9671 5.51678 4.17964 5.44849 4.39092C 5.36242 4.6587 5.1616 4.84986 4.83688 4.9527C 4.51292 5.05528 4.14453 5.03008 3.74669 4.87022C 3.62178 4.82008 3.5083 4.76128 3.40649 4.69484C 3.30468 4.62841 3.18231 4.53143 3.04217 4.40314C 2.96371 4.33212 2.89568 4.28223 2.83677 4.25525C 2.78727 4.23234 2.72836 4.22317 2.65905 4.22699C 2.59 4.23106 2.52373 4.25524 2.46001 4.30004C 2.42472 4.28324 2.38943 4.26593 2.35414 4.24888C 2.53922 3.86731 2.7243 3.48575 2.90913 3.10419C 2.94214 3.12022 2.9754 3.13651 3.00866 3.1523C 2.933 3.51299 2.9726 3.83448 3.13204 4.1127C 3.29123 4.39092 3.51591 4.58972 3.7962 4.70248C 4.01277 4.79004 4.20496 4.80888 4.36872 4.76205C 4.53273 4.71496 4.63606 4.62714 4.6815 4.50088C 4.70841 4.42604 4.71019 4.3451 4.68759 4.25728C 4.665 4.16946 4.61676 4.07629 4.5439 3.97677C 4.47103 3.87724 4.33165 3.73062 4.13184 3.53258C 3.85206 3.25437 3.6685 3.03062 3.56948 2.86924C 3.47072 2.70709 3.41284 2.54876 3.3943 2.39476C 3.37602 2.24102 3.40217 2.09313 3.47098 1.95186C 3.58802 1.71029 3.78681 1.55375 4.05948 1.47255C 4.33266 1.3916 4.61067 1.41298 4.90466 1.5344C 5.0118 1.57869 5.11107 1.63266 5.20323 1.69731C 5.27305 1.74567 5.35379 1.81643 5.44697 1.90858C 5.54014 2.00047 5.61021 2.05418 5.6554 2.07022C 5.69882 2.08575 5.73741 2.08549 5.77117 2.06894C 5.80494 2.05265 5.84911 2.00047 5.90345 1.9124C 5.92858 1.9208 5.95346 1.9292 5.97835 1.9376Z"/>
<path id="path31_fill" d="M 8.41466 2.60782C 8.97042 2.69182 9.39542 2.90564 9.71735 3.27626C 10.0383 3.64611 10.1944 4.07451 10.155 4.57393C 10.121 4.99979 9.94712 5.36456 9.6125 5.65754C 9.17074 6.04496 8.55582 6.18877 7.81067 6.05055C 7.06349 5.91106 6.5349 5.56412 6.25334 5.06165C 6.03017 4.66354 5.99388 4.24888 6.12082 3.822C 6.26376 3.34193 6.56791 3.00007 7.00789 2.772C 7.44914 2.54342 7.90689 2.492 8.41466 2.60782ZM 8.41619 2.77022C 8.09629 2.7104 7.82311 2.81095 7.58243 3.07924C 7.38669 3.29942 7.22776 3.64255 7.11427 4.11295C 6.97946 4.67168 6.9957 5.11408 7.1785 5.43685C 7.30519 5.66187 7.52633 5.80772 7.83556 5.86576C 8.04349 5.90445 8.22527 5.89274 8.37735 5.83368C 8.57132 5.75732 8.73354 5.60968 8.86252 5.39281C 8.99124 5.17568 9.07832 4.88092 9.12732 4.50954C 9.18571 4.06764 9.18318 3.73088 9.12479 3.49924C 9.06588 3.26761 8.97677 3.0968 8.85617 2.98506C 8.73608 2.87331 8.5901 2.80255 8.41619 2.77022Z"/>
<path id="path32_fill" d="M 12.0193 6.40235C 12.019 6.37918 12.0188 6.35602 12.0185 6.33285C 12.3595 6.2654 12.6446 6.16052 12.8721 6.02561C 13.0998 5.89045 13.273 5.72525 13.3923 5.53434C 13.5116 5.34343 13.5845 5.12783 13.6142 4.88855C 13.5005 4.9527 13.4014 4.99827 13.3189 5.02525C 13.2367 5.05249 13.1483 5.06954 13.0554 5.07565C 12.7568 5.09525 12.5024 5.01328 12.3014 4.8351C 12.0998 4.65692 12.0005 4.40543 11.9964 4.08597C 11.9934 3.86401 12.0416 3.65987 12.1366 3.47303C 12.2315 3.28645 12.3664 3.13906 12.541 3.02935C 12.7162 2.91939 12.8965 2.85754 13.0879 2.84328C 13.2933 2.8275 13.4911 2.86568 13.6871 2.95757C 13.8833 3.04946 14.0511 3.19277 14.1913 3.38954C 14.3314 3.5863 14.4236 3.81921 14.4622 4.08979C 14.5122 4.44081 14.4655 4.79132 14.3073 5.13929C 14.1489 5.48674 13.8737 5.78227 13.4776 6.01263C 13.0828 6.24249 12.5918 6.37816 12.0193 6.40235ZM 13.6373 4.67652C 13.6391 4.48994 13.632 4.32677 13.6183 4.18652C 13.5888 3.88641 13.5226 3.61074 13.4243 3.35848C 13.3684 3.21874 13.2971 3.1187 13.2093 3.05761C 13.1628 3.02477 13.1052 3.01103 13.0351 3.01612C 12.9485 3.02248 12.883 3.06244 12.8381 3.13652C 12.7759 3.23808 12.7512 3.42619 12.7665 3.7011C 12.7916 4.15954 12.8698 4.47238 13.0064 4.63809C 13.0955 4.745 13.2105 4.79361 13.3499 4.78215C 13.4246 4.77604 13.521 4.74118 13.6373 4.67652Z"/>
<path id="path33_fill" d="M 17.3661 3.8243C 17.462 4.14655 17.4994 4.46347 17.4707 4.77529C 17.4549 4.9662 17.4054 5.13293 17.3229 5.27445C 17.2396 5.41624 17.133 5.53842 17.0028 5.641C 16.873 5.74333 16.7202 5.81536 16.546 5.85558C 16.348 5.90165 16.1594 5.89936 15.9827 5.851C 15.807 5.80238 15.6437 5.71278 15.4939 5.58321C 15.3865 5.48852 15.284 5.35412 15.188 5.18052C 15.0616 4.94507 14.9785 4.69332 14.9346 4.42681C 14.8755 4.06536 14.8793 3.72376 14.9369 3.40278C 14.9846 3.13703 15.0857 2.92168 15.2383 2.75394C 15.3916 2.58619 15.5632 2.48055 15.7595 2.43524C 15.9596 2.38891 16.1604 2.4075 16.3691 2.49022C 16.577 2.57295 16.7547 2.70888 16.9007 2.90132C 17.1033 3.16554 17.261 3.4715 17.3661 3.8243ZM 16.5133 4.05365C 16.3703 3.48143 16.2838 3.14848 16.2528 3.05557C 16.1797 2.83641 16.1007 2.69565 16.0164 2.63252C 15.9613 2.59154 15.8859 2.58237 15.7902 2.60452C 15.7168 2.62132 15.6633 2.65364 15.6285 2.70201C 15.5775 2.77252 15.5559 2.88197 15.563 3.03037C 15.5709 3.17852 15.664 3.68175 15.8438 4.53983C 15.9415 5.00692 16.0271 5.31594 16.1002 5.46612C 16.1543 5.57507 16.2142 5.64253 16.2787 5.66925C 16.3437 5.69573 16.4221 5.69827 16.5143 5.67715C 16.6148 5.65373 16.6839 5.60969 16.721 5.54631C 16.7829 5.43558 16.7956 5.28463 16.7603 5.09372C 16.6786 4.74677 16.596 4.40008 16.5133 4.05365Z"/>
<path id="path34_fill" d="M 20.1263 2.76462C 20.2692 3.06855 20.353 3.3768 20.3695 3.6904C 20.382 3.88182 20.3568 4.05492 20.2946 4.20739C 20.2322 4.36063 20.1436 4.49859 20.0286 4.62001C 19.9141 4.74143 19.7716 4.83637 19.6036 4.90281C 19.4126 4.97841 19.224 5.00514 19.0407 4.98426C 18.8582 4.96288 18.6825 4.89899 18.5144 4.79387C 18.393 4.71623 18.2712 4.59889 18.1501 4.44183C 17.9894 4.22776 17.8698 3.99128 17.7868 3.73444C 17.6748 3.38597 17.6283 3.04743 17.6387 2.7211C 17.6474 2.45077 17.7167 2.22244 17.8441 2.03332C 17.9723 1.84393 18.1285 1.71309 18.3174 1.638C 18.5106 1.56164 18.7139 1.54891 18.9346 1.59855C 19.1544 1.64844 19.352 1.75535 19.5259 1.92309C 19.7673 2.1532 19.9697 2.43193 20.1263 2.76462ZM 19.3075 3.12429C 19.0808 2.57982 18.9455 2.26343 18.9011 2.17612C 18.7959 1.97044 18.6964 1.84342 18.603 1.79378C 18.5421 1.76171 18.4656 1.76426 18.3732 1.80066C 18.3024 1.82841 18.2536 1.86888 18.226 1.92208C 18.1856 1.99971 18.1798 2.1112 18.209 2.2568C 18.2387 2.40215 18.4052 2.88604 18.7104 3.70772C 18.8764 4.15496 19.0069 4.44768 19.1019 4.58514C 19.172 4.68467 19.2415 4.74245 19.3098 4.75874C 19.3786 4.77503 19.4573 4.76561 19.5462 4.73074C 19.6434 4.6923 19.7056 4.63808 19.7335 4.56935C 19.7792 4.45048 19.7701 4.29877 19.7069 4.11524C 19.5739 3.78484 19.4406 3.45419 19.3075 3.12429Z"/>
<path id="path35_fill" d="M 21.1205 0.232398C 21.6006 1.01513 22.0805 1.79785 22.5606 2.58109C 22.6685 2.75724 22.7477 2.86364 22.7972 2.90055C 22.847 2.93695 22.9132 2.95095 22.9952 2.94255C 23.0775 2.9339 23.1887 2.88502 23.326 2.79568C 23.3537 2.77761 23.3816 2.75928 23.4093 2.74095C 23.4261 2.76666 23.4428 2.79236 23.4596 2.81807C 22.8193 3.2396 22.162 3.62346 21.4905 3.96939C 21.4765 3.94215 21.4628 3.91466 21.4486 3.88768C 21.4823 3.87037 21.5161 3.85255 21.5496 3.83524C 21.7121 3.75022 21.8195 3.67285 21.872 3.60692C 21.9251 3.54023 21.9492 3.47455 21.9447 3.41091C 21.9408 3.34651 21.8865 3.22229 21.7839 3.03673C 21.5014 2.52764 21.2188 2.01855 20.9365 1.50945C 20.8608 1.37327 20.8062 1.29233 20.773 1.26662C 20.7395 1.2404 20.6963 1.22666 20.644 1.22436C 20.5912 1.22207 20.5392 1.23506 20.4874 1.2628C 20.4048 1.30735 20.3173 1.38397 20.2215 1.49266C 20.1934 1.47357 20.1649 1.45473 20.137 1.43539C 20.4579 1.05891 20.7605 0.673017 21.0446 0.27847C 21.0703 0.263198 21.0957 0.247925 21.1205 0.232398Z"/>
</defs>
</svg>
