<svg width="20" height="20" viewBox="0 0 20 20" version="1.1" xmlns="http://www.w3.org/2000/svg" xmlns:xlink="http://www.w3.org/1999/xlink">
<title>add_to_list</title>
<desc>Created using Figma</desc>
<g id="Canvas" transform="translate(-21928 -197)">
<g id="add_to_list">
<g id="Vector">
<use xlink:href="#path0_fill" transform="translate(21928 197)" fill="#005392"/>
</g>
</g>
</g>
<defs>
<path id="path0_fill" d="M 17.1429 11.7143L 17.1429 1.42857C 17.1429 0.619048 16.5238 0 15.7143 0L 1.42857 0C 0.619048 0 0 0.619048 0 1.42857L 0 15.7143C 0 16.5238 0.619048 17.1429 1.42857 17.1429L 11.7143 17.1429C 12.2857 18.8095 13.8571 20 15.7143 20C 18.0952 20 20 18.0952 20 15.7143C 20 13.8571 18.8095 12.2857 17.1429 11.7143ZM 1.42857 16.1905C 1.14286 16.1905 0.952381 16 0.952381 15.7143L 0.952381 1.42857C 0.952381 1.14286 1.14286 0.952381 1.42857 0.952381L 15.7143 0.952381C 16 0.952381 16.1905 1.14286 16.1905 1.42857L 16.1905 11.4762C 16.0476 11.4762 15.8571 11.4286 15.7143 11.4286C 13.3333 11.4286 11.4286 13.3333 11.4286 15.7143C 11.4286 15.8571 11.4762 16.0476 11.4762 16.1905L 1.42857 16.1905ZM 15.7143 19.0476C 13.8571 19.0476 12.381 17.5714 12.381 15.7143C 12.381 13.8571 13.8571 12.381 15.7143 12.381C 17.5714 12.381 19.0476 13.8571 19.0476 15.7143C 19.0476 17.5714 17.5714 19.0476 15.7143 19.0476ZM 18.0952 15.7143C 18.0952 16 17.9048 16.1905 17.619 16.1905L 16.1905 16.1905L 16.1905 17.619C 16.1905 17.9048 16 18.0952 15.7143 18.0952C 15.4286 18.0952 15.2381 17.9048 15.2381 17.619L 15.2381 16.1905L 13.8095 16.1905C 13.5238 16.1905 13.3333 16 13.3333 15.7143C 13.3333 15.4286 13.5238 15.2381 13.8095 15.2381L 15.2381 15.2381L 15.2381 13.8095C 15.2381 13.5238 15.4286 13.3333 15.7143 13.3333C 16 13.3333 16.1905 13.5238 16.1905 13.8095L 16.1905 15.2381L 17.619 15.2381C 17.9048 15.2381 18.0952 15.4286 18.0952 15.7143ZM 6.66667 8.57143C 6.66667 8.28571 6.85714 8.09524 7.14286 8.09524L 13.8095 8.09524C 14.0952 8.09524 14.2857 8.28571 14.2857 8.57143C 14.2857 8.85714 14.0952 9.04762 13.8095 9.04762L 7.14286 9.04762C 6.85714 9.04762 6.66667 8.85714 6.66667 8.57143ZM 4.7619 8.57143C 4.7619 9.09524 4.33333 9.52381 3.80952 9.52381C 3.28571 9.52381 2.85714 9.09524 2.85714 8.57143C 2.85714 8.04762 3.28571 7.61905 3.80952 7.61905C 4.33333 7.61905 4.7619 8.04762 4.7619 8.57143ZM 4.7619 5.2381C 4.7619 5.7619 4.33333 6.19048 3.80952 6.19048C 3.28571 6.19048 2.85714 5.7619 2.85714 5.2381C 2.85714 4.71429 3.28571 4.28571 3.80952 4.28571C 4.33333 4.28571 4.7619 4.71429 4.7619 5.2381ZM 6.66667 5.2381C 6.66667 4.95238 6.85714 4.7619 7.14286 4.7619L 11.9048 4.7619C 12.1905 4.7619 12.381 4.95238 12.381 5.2381C 12.381 5.52381 12.1905 5.71429 11.9048 5.71429L 7.14286 5.71429C 6.85714 5.71429 6.66667 5.52381 6.66667 5.2381ZM 4.7619 11.9048C 4.7619 12.4286 4.33333 12.8571 3.80952 12.8571C 3.28571 12.8571 2.85714 12.4286 2.85714 11.9048C 2.85714 11.381 3.28571 10.9524 3.80952 10.9524C 4.33333 10.9524 4.7619 11.381 4.7619 11.9048ZM 10.4762 11.9048C 10.4762 12.1905 10.2857 12.381 10 12.381L 7.14286 12.381C 6.85714 12.381 6.66667 12.1905 6.66667 11.9048C 6.66667 11.619 6.85714 11.4286 7.14286 11.4286L 10 11.4286C 10.2857 11.4286 10.4762 11.619 10.4762 11.9048Z"/>
</defs>
</svg>
