<svg width="48" height="48" viewBox="0 0 48 48" version="1.1" xmlns="http://www.w3.org/2000/svg" xmlns:xlink="http://www.w3.org/1999/xlink">
<title>Vector</title>
<desc>Created using Figma</desc>
<g id="Canvas" transform="translate(-13385 -6967)">
<g id="Vector">
<use xlink:href="#path0_fill" transform="translate(13385 6967)" fill="#005392"/>
</g>
</g>
<defs>
<path id="path0_fill" d="M 37.2744 16.3643C 37.7073 16.3643 38.032 16.0668 38.032 15.6701L 38.032 14.5791C 38.952 14.4304 39.8179 14.0832 40.5756 13.5874L 41.3873 14.3312C 41.712 14.5791 42.145 14.5791 42.4697 14.3312L 43.3897 13.4882C 43.6603 13.2402 43.6603 12.7939 43.3897 12.4964L 42.5779 11.7526C 43.1191 11.0087 43.4438 10.2153 43.6061 9.42189L 44.7967 9.42189C 45.2297 9.42189 45.5544 9.12436 45.5544 8.72764L 45.5544 7.53751C 45.5544 7.1408 45.2297 6.84327 44.7967 6.84327L 43.6061 6.84327C 43.4438 6.00026 43.065 5.20683 42.5238 4.51259L 43.3356 3.76876C 43.6061 3.52081 43.6061 3.07451 43.3356 2.77698L 42.4156 1.98356C 42.0908 1.73561 41.6579 1.73561 41.3332 1.98356L 40.5215 2.72739C 39.7097 2.2315 38.8437 1.93397 37.9779 1.7852L 37.9779 0.694244C 37.9779 0.297533 37.6532 1.18229e-08 37.2202 1.18229e-08L 35.9215 1.18229e-08C 35.4885 1.18229e-08 35.1638 0.297533 35.1638 0.694244L 35.1638 1.7852C 34.2438 1.93397 33.378 2.28109 32.6202 2.77698L 31.8085 2.03314C 31.4838 1.7852 31.0509 1.7852 30.7261 2.03314L 29.8061 2.87616C 29.5356 3.17369 29.5356 3.5704 29.8061 3.86793L 30.6179 4.61177C 30.0767 5.3556 29.752 6.14902 29.5897 6.94244L 28.3991 6.94244C 27.9662 6.94244 27.6415 7.23998 27.6415 7.63669L 27.6415 8.82682C 27.6415 9.22353 27.9662 9.52107 28.3991 9.52107L 29.5897 9.52107C 29.752 10.3641 30.1308 11.1575 30.672 11.8517L 29.8603 12.5956C 29.5897 12.8931 29.5897 13.2898 29.8603 13.5874L 30.7803 14.4304C 31.105 14.6783 31.5379 14.6783 31.8627 14.4304L 32.6744 13.6865C 33.4862 14.1824 34.3521 14.48 35.2179 14.6287L 35.2179 15.7197C 35.2179 16.1164 35.5427 16.4139 35.9756 16.4139L 37.2744 16.3643ZM 34.1897 10.4137C 32.8368 9.22353 32.8368 7.23998 34.1897 6.00026C 35.4885 4.76053 37.6532 4.76053 39.0062 6.00026C 40.3591 7.19039 40.3591 9.17394 39.0062 10.4137C 37.6532 11.6038 35.5427 11.6038 34.1897 10.4137ZM 47.7731 20.381C 47.719 20.1331 47.3943 19.9843 47.1237 20.0339L 46.3119 20.2323C 46.0414 19.6868 45.6084 19.1909 45.1214 18.8438L 45.5542 18.1991C 45.7166 17.9512 45.6084 17.6536 45.3378 17.5545L 44.5803 17.1578C 44.3097 17.009 43.9849 17.1082 43.8767 17.3561L 43.4979 17.9016C 42.9025 17.7032 42.2532 17.6536 41.6038 17.6536L 41.3873 16.9098C 41.3332 16.6619 41.0084 16.5131 40.7379 16.5627L 39.872 16.761C 39.6014 16.8106 39.4391 17.1082 39.4932 17.3561L 39.7096 18.0999C 39.1143 18.3479 38.5731 18.7446 38.1943 19.1909L 37.4908 18.7942C 37.2202 18.6454 36.8955 18.7446 36.7874 18.9925L 36.3544 19.6868C 36.1921 19.9347 36.3003 20.2323 36.5709 20.3314L 37.2744 20.7282C 37.0579 21.2736 37.0038 21.8687 37.0038 22.4638L 36.1921 22.6621C 35.9215 22.7117 35.7591 23.0092 35.8132 23.2572L 36.0296 24.0506C 36.0838 24.2986 36.4085 24.4473 36.6791 24.3977L 37.4908 24.1994C 37.7614 24.7449 38.1943 25.2407 38.6815 25.5878L 38.2485 26.2325C 38.0862 26.4804 38.1944 26.7779 38.465 26.8771L 39.2226 27.2738C 39.4932 27.4225 39.8179 27.3234 39.9261 27.0754L 40.359 26.4308C 40.9543 26.6292 41.6037 26.6788 42.2531 26.6788L 42.4156 27.4722C 42.4697 27.7202 42.7944 27.869 43.065 27.8194L 43.9309 27.6211C 44.2014 27.5714 44.3638 27.2739 44.3097 27.0259L 44.0933 26.2821C 44.6886 26.0342 45.2297 25.6375 45.6085 25.1912L 46.312 25.5878C 46.5826 25.7366 46.9073 25.6375 47.0155 25.3895L 47.4484 24.6953C 47.6108 24.4473 47.5025 24.1498 47.2319 24.0506L 46.5285 23.6539C 46.7449 23.1084 46.7991 22.5134 46.7991 21.9183L 47.6108 21.7199C 47.8814 21.6703 48.0437 21.3728 47.9897 21.1249L 47.7731 20.381ZM 42.5238 24.2986C 41.2791 24.5961 39.9803 23.9018 39.6556 22.7613C 39.3309 21.6208 40.0885 20.4306 41.3332 20.1331C 42.5779 19.8356 43.8768 20.5298 44.2014 21.6703C 44.5261 22.8109 43.7685 24.001 42.5238 24.2986ZM 21.6886 22.0175L 23.6368 23.8027L 19.1451 27.869L 17.1968 29.6542L 15.2486 27.869L 13.3545 26.1333L 15.3027 24.3481L 17.1968 26.0838L 21.6886 22.0175ZM 19.578 11.9509C 11.0276 11.4054 3.88399 17.3065 3.34282 24.8936L 3.2887 24.8936L 3.2887 25.2903C 3.2887 26.5301 2.80164 28.5136 2.15224 29.6046C 1.44871 30.7947 0.799301 31.9352 0.20401 32.7287C -0.337164 33.5221 0.258127 34.5635 1.28636 34.5635L 3.2887 34.5635L 3.2887 41.258C 3.2887 42.5969 4.47935 43.6878 5.94045 43.6878L 10.1075 43.6878L 10.1075 47.0599C 10.1075 47.7045 10.811 48.1508 11.4604 47.9525L 28.9403 42.4977C 29.5356 42.2993 29.9686 41.8034 29.9686 41.2083L 29.9686 34.9106C 32.3497 32.3815 33.7568 29.0591 33.6485 25.4391C 33.432 18.3479 27.2627 12.4468 19.578 11.9509ZM 29.9144 28.2161L 29.265 30.0509C 29.1567 30.3981 28.7238 30.646 28.2909 30.4972L 26.6132 30.0013C 26.0179 30.9931 25.2062 31.8361 24.2321 32.5303L 25.0438 33.9684C 25.2603 34.3156 25.098 34.7618 24.7191 34.9106L 22.825 35.8032C 22.4462 36.0015 21.9591 35.8528 21.7968 35.5056L 20.985 34.0676C 19.8485 34.3651 18.6039 34.4642 17.3591 34.3155L 16.818 35.8528C 16.7097 36.1999 16.2768 36.4478 15.8439 36.2991L 13.8415 35.7039C 13.4627 35.6048 13.1921 35.2081 13.3545 34.8114L 13.8956 33.2741C 12.8133 32.7286 11.8933 31.9848 11.1357 31.0922L 9.56625 31.8361C 9.18743 32.0344 8.70037 31.8857 8.53809 31.5385L 7.56397 29.8029C 7.3475 29.4557 7.50986 29.0094 7.88868 28.8607L 9.45808 28.1169C 9.13338 27.0755 9.02514 25.935 9.18749 24.7944L 7.50986 24.2986C 7.13097 24.1994 6.86038 23.8027 7.0228 23.406L 7.67221 21.5712C 7.78051 21.224 8.21338 20.9761 8.64632 21.1249L 10.324 21.6208C 10.9193 20.629 11.731 19.786 12.7051 19.0917L 11.8934 17.6536C 11.6769 17.3065 11.8392 16.8602 12.2181 16.7115L 14.1122 15.8189C 14.491 15.6205 14.9781 15.7693 15.1404 16.1164L 15.9522 17.5545C 17.0886 17.2569 18.3333 17.1578 19.578 17.3065L 20.1192 15.7693C 20.2275 15.4221 20.6604 15.1742 21.0933 15.323L 23.0957 15.918C 23.4745 16.0172 23.7451 16.4139 23.5827 16.8106L 23.0415 18.3479C 24.1239 18.8934 25.0439 19.6372 25.8015 20.5298L 27.3709 19.786C 27.7498 19.5876 28.2368 19.7364 28.3992 20.0835L 29.3732 21.8191C 29.5897 22.1662 29.4274 22.6125 29.0485 22.7613L 27.4791 23.5051C 27.8039 24.5465 27.912 25.687 27.7497 26.8276L 29.4274 27.3235C 29.8603 27.4227 30.0768 27.8194 29.9144 28.2161Z"/>
</defs>
</svg>
