<svg width="150" height="150" viewBox="0 0 150 150" version="1.1" xmlns="http://www.w3.org/2000/svg" xmlns:xlink="http://www.w3.org/1999/xlink">
<title>IQNet</title>
<desc>Created using Figma</desc>
<g id="Canvas" transform="matrix(3 0 0 3 -40035 -22050)">
<g id="IQNet">
<g id="Vector">
<use xlink:href="#path0_fill" transform="translate(13346.1 7351.15)" fill="#FFFFFF"/>
</g>
<g id="Vector">
<use xlink:href="#path1_fill" transform="translate(13346.1 7371.29)" fill="#A7A9AC"/>
<use xlink:href="#path2_fill" transform="translate(13346.1 7371.29)" fill="#A7A9AC"/>
<use xlink:href="#path3_fill" transform="translate(13346.1 7371.29)" fill="#A7A9AC"/>
<use xlink:href="#path4_fill" transform="translate(13346.1 7371.29)" fill="#A7A9AC"/>
<use xlink:href="#path5_fill" transform="translate(13346.1 7371.29)" fill="#A7A9AC"/>
<use xlink:href="#path6_fill" transform="translate(13346.1 7371.29)" fill="#A7A9AC"/>
<use xlink:href="#path7_fill" transform="translate(13346.1 7371.29)" fill="#A7A9AC"/>
</g>
<g id="Vector">
<use xlink:href="#path8_fill" transform="translate(13358.3 7370.89)" fill="#00549E"/>
<use xlink:href="#path9_fill" transform="translate(13358.3 7370.89)" fill="#00549E"/>
<use xlink:href="#path10_fill" transform="translate(13358.3 7370.89)" fill="#00549E"/>
<use xlink:href="#path11_fill" transform="translate(13358.3 7370.89)" fill="#00549E"/>
<use xlink:href="#path12_fill" transform="translate(13358.3 7370.89)" fill="#00549E"/>
<use xlink:href="#path13_fill" transform="translate(13358.3 7370.89)" fill="#00549E"/>
<use xlink:href="#path14_fill" transform="translate(13358.3 7370.89)" fill="#00549E"/>
<use xlink:href="#path15_fill" transform="translate(13358.3 7370.89)" fill="#00549E"/>
<use xlink:href="#path16_fill" transform="translate(13358.3 7370.89)" fill="#00549E"/>
<use xlink:href="#path17_fill" transform="translate(13358.3 7370.89)" fill="#00549E"/>
<use xlink:href="#path18_fill" transform="translate(13358.3 7370.89)" fill="#00549E"/>
<use xlink:href="#path19_fill" transform="translate(13358.3 7370.89)" fill="#00549E"/>
<use xlink:href="#path20_fill" transform="translate(13358.3 7370.89)" fill="#00549E"/>
<use xlink:href="#path21_fill" transform="translate(13358.3 7370.89)" fill="#00549E"/>
</g>
<g id="Vector">
<use xlink:href="#path22_fill" transform="translate(13346 7351)" fill="#00549E"/>
<use xlink:href="#path23_fill" transform="translate(13346 7351)" fill="#00549E"/>
<use xlink:href="#path24_fill" transform="translate(13346 7351)" fill="#00549E"/>
</g>
<g id="Vector">
<use xlink:href="#path25_stroke" transform="translate(13346 7351)" fill="#00549E"/>
</g>
<g id="Vector">
<use xlink:href="#path26_fill" transform="translate(13348.2 7352.9)" fill="#FFFFFF"/>
<use xlink:href="#path27_fill" transform="translate(13348.2 7352.9)" fill="#FFFFFF"/>
<use xlink:href="#path28_fill" transform="translate(13348.2 7352.9)" fill="#FFFFFF"/>
<use xlink:href="#path29_fill" transform="translate(13348.2 7352.9)" fill="#FFFFFF"/>
<use xlink:href="#path30_fill" transform="translate(13348.2 7352.9)" fill="#FFFFFF"/>
<use xlink:href="#path31_fill" transform="translate(13348.2 7352.9)" fill="#FFFFFF"/>
<use xlink:href="#path32_fill" transform="translate(13348.2 7352.9)" fill="#FFFFFF"/>
<use xlink:href="#path33_fill" transform="translate(13348.2 7352.9)" fill="#FFFFFF"/>
<use xlink:href="#path34_fill" transform="translate(13348.2 7352.9)" fill="#FFFFFF"/>
<use xlink:href="#path35_fill" transform="translate(13348.2 7352.9)" fill="#FFFFFF"/>
<use xlink:href="#path36_fill" transform="translate(13348.2 7352.9)" fill="#FFFFFF"/>
<use xlink:href="#path37_fill" transform="translate(13348.2 7352.9)" fill="#FFFFFF"/>
<use xlink:href="#path38_fill" transform="translate(13348.2 7352.9)" fill="#FFFFFF"/>
<use xlink:href="#path39_fill" transform="translate(13348.2 7352.9)" fill="#FFFFFF"/>
<use xlink:href="#path40_fill" transform="translate(13348.2 7352.9)" fill="#FFFFFF"/>
<use xlink:href="#path41_fill" transform="translate(13348.2 7352.9)" fill="#FFFFFF"/>
<use xlink:href="#path42_fill" transform="translate(13348.2 7352.9)" fill="#FFFFFF"/>
<use xlink:href="#path43_fill" transform="translate(13348.2 7352.9)" fill="#FFFFFF"/>
<use xlink:href="#path44_fill" transform="translate(13348.2 7352.9)" fill="#FFFFFF"/>
<use xlink:href="#path45_fill" transform="translate(13348.2 7352.9)" fill="#FFFFFF"/>
<use xlink:href="#path46_fill" transform="translate(13348.2 7352.9)" fill="#FFFFFF"/>
<use xlink:href="#path47_fill" transform="translate(13348.2 7352.9)" fill="#FFFFFF"/>
<use xlink:href="#path48_fill" transform="translate(13348.2 7352.9)" fill="#FFFFFF"/>
<use xlink:href="#path49_fill" transform="translate(13348.2 7352.9)" fill="#FFFFFF"/>
<use xlink:href="#path50_fill" transform="translate(13348.2 7352.9)" fill="#FFFFFF"/>
</g>
</g>
</g>
<defs>
<path id="path0_fill" d="M 4.25896e-07 23.9254C 4.25896e-07 10.7108 10.7141 1.11767e-06 23.9333 1.11767e-06C 37.1516 1.11767e-06 47.867 10.7108 47.867 23.9254C 47.867 37.1393 37.1516 47.8509 23.9333 47.8509C 10.7145 47.8509 4.25896e-07 37.1388 4.25896e-07 23.9254Z"/>
<path id="path1_fill" d="M 39.6624 9.10767L 8.38931 9.10767L 8.38931 9.90642L 39.6624 9.90642L 39.6624 9.10767Z"/>
<path id="path2_fill" d="M 7.05551 1.74756L 0 1.74756L 0 2.73859L 7.05551 2.73859L 7.05551 1.74756Z"/>
<path id="path3_fill" d="M 47.8753 1.74756L 40.9384 1.74756L 40.9384 2.73859L 47.8753 2.73859L 47.8753 1.74756Z"/>
<path id="path4_fill" d="M 9.73597 7.24594L 9.71853 0.0894526L 11.5864 0.0894526L 11.5864 7.24594L 9.73597 7.24594Z"/>
<path id="path5_fill" d="M 20.7407 7.24594L 20.7407 0.0894526L 22.3443 0.0894526L 25.2842 4.31908L 25.2842 0.0894526L 26.7714 0.0894526L 26.7714 7.24594L 25.7177 7.24594L 22.3408 2.89642L 22.3666 7.24594L 20.7407 7.24594Z"/>
<path id="path6_fill" fill-rule="evenodd" d="M 31.683 3.82291C 31.6713 3.41351 31.2962 2.73814 30.5265 2.7473C 29.8553 2.75645 29.4174 3.42179 29.4209 3.80765L 31.683 3.82291ZM 33.216 5.32492L 33.2195 6.54092C 32.8601 6.92068 31.9469 7.24594 30.8771 7.24594C 29.7868 7.24594 28.693 6.94205 28.1701 6.33644C 27.7562 5.85031 27.55 5.23773 27.55 4.49783C 27.55 3.61319 28.2739 1.70047 30.4222 1.68695C 32.752 1.67256 33.2662 3.71217 33.2426 4.79257L 29.3284 4.79257C 29.3393 5.21069 29.2927 6.30593 31.0629 6.31595C 32.0005 6.32119 33.1266 5.59132 33.216 5.32492Z"/>
<path id="path7_fill" fill-rule="evenodd" d="M 37.7719 1.77285L 37.7771 2.94787L 35.771 2.94787C 35.771 2.94787 35.7566 5.23164 35.7788 5.66502C 35.7849 5.77227 35.668 6.05829 36.8573 6.01251C 37.4775 5.9894 37.4858 5.93228 37.757 5.75526L 37.7536 7.0589C 37.2664 7.19581 36.6292 7.3253 36.0143 7.32225C 34.6863 7.31353 34.0618 5.84291 34.0618 5.80497L 34.0618 2.97098L 33.3104 2.97098L 33.3025 2.55198C 33.3025 2.55198 33.9236 1.82997 34.5573 1.13499C 34.9576 0.69637 35.5608 0.0406289 35.5725 0.0432449C 35.617 -0.005151 35.7618 -0.0387248 35.7601 0.0890229C 35.7797 0.0933829 35.7583 1.76936 35.7583 1.76936L 37.7719 1.77285Z"/>
<path id="path8_fill" d="M 1.66497 6.37213L 1.17651 6.01722L 0.688934 6.37213L 0.875154 5.79922L 0.38714 5.44345L 0.990725 5.44345L 1.17651 4.87098L 1.36361 5.44345L 1.96676 5.44345L 1.47831 5.79922L 1.66497 6.37213Z"/>
<path id="path9_fill" d="M 1.27739 4.77724L 0.788936 4.42321L 0.301358 4.77724L 0.487142 4.20346L 0 3.849L 0.603152 3.849L 0.788936 3.27522L 0.975595 3.849L 1.57962 3.849L 1.09117 4.20346L 1.27739 4.77724Z"/>
<path id="path10_fill" d="M 1.69605 3.13571L 1.20759 2.78037L 0.719142 3.13571L 0.905801 2.5615L 0.418656 2.2066L 1.02094 2.2066L 1.20759 1.63413L 1.39425 2.2066L 1.99697 2.2066L 1.50982 2.5615L 1.69605 3.13571Z"/>
<path id="path11_fill" d="M 2.86855 1.85038L 2.38053 1.49548L 1.89208 1.85038L 2.0783 1.2766L 1.59072 0.921264L 2.19344 0.921264L 2.38053 0.347489L 2.56676 0.921264L 3.17034 0.921264L 2.68189 1.2766L 2.86855 1.85038Z"/>
<path id="path12_fill" d="M 4.54827 1.50158L 4.05982 1.14711L 3.57224 1.50158L 3.75803 0.927369L 3.27088 0.57334L 3.87404 0.57334L 4.05982 0L 4.24648 0.57334L 4.8505 0.57334L 4.36205 0.927369L 4.54827 1.50158Z"/>
<path id="path13_fill" d="M 2.88004 7.56721L 2.39246 7.21274L 1.904 7.56721L 2.0911 6.99474L 1.60265 6.63897L 2.2058 6.63897L 2.39246 6.06563L 2.57824 6.63897L 3.18227 6.63897L 2.69425 6.99474L 2.88004 7.56721Z"/>
<path id="path14_fill" d="M 4.53891 8.18676L 4.0509 7.83273L 3.56245 8.18676L 3.74867 7.61298L 3.26109 7.25896L 3.8638 7.25896L 4.0509 6.68562L 4.23756 7.25896L 4.84071 7.25896L 4.35225 7.61298L 4.53891 8.18676Z"/>
<path id="path15_fill" d="M 6.4283 6.37213L 6.91588 6.01722L 7.40433 6.37213L 7.21768 5.79922L 7.70656 5.44345L 7.10298 5.44345L 6.91588 4.87098L 6.7301 5.44345L 6.12694 5.44345L 6.61452 5.79922L 6.4283 6.37213Z"/>
<path id="path16_fill" d="M 6.81589 4.77724L 7.30303 4.42321L 7.79148 4.77724L 7.60482 4.20346L 8.09328 3.849L 7.49013 3.849L 7.30303 3.27522L 7.11725 3.849L 6.51366 3.849L 7.00211 4.20346L 6.81589 4.77724Z"/>
<path id="path17_fill" d="M 6.39723 3.13571L 6.88568 2.78037L 7.37283 3.13571L 7.18704 2.5615L 7.67462 2.2066L 7.07234 2.2066L 6.88568 1.63413L 6.69859 2.2066L 6.095 2.2066L 6.58345 2.5615L 6.39723 3.13571Z"/>
<path id="path18_fill" d="M 5.22429 1.85038L 5.71274 1.49548L 6.20033 1.85038L 6.01497 1.2766L 6.50212 0.921264L 5.89853 0.921264L 5.71274 0.347489L 5.52652 0.921264L 4.92294 0.921264L 5.41095 1.2766L 5.22429 1.85038Z"/>
<path id="path19_fill" d="M 5.2128 7.56721L 5.70081 7.21274L 6.18839 7.56721L 6.0026 6.99474L 6.49062 6.63897L 5.8879 6.63897L 5.70081 6.06563L 5.51415 6.63897L 4.91144 6.63897L 5.39945 6.99474L 5.2128 7.56721Z"/>
<path id="path20_fill" d="M 4.22132 6.18857L 4.70933 5.83497L 5.19778 6.18857L 5.01069 5.61523L 5.49914 5.2612L 4.89555 5.2612L 4.70933 4.68699L 4.52268 5.2612L 3.91952 5.2612L 4.4071 5.61523L 4.22132 6.18857Z"/>
<path id="path21_fill" d="M 6.20386 8.94583L 6.69232 8.59049L 7.18033 8.94583L 6.99368 8.37249L 7.48169 8.01846L 6.87898 8.01846L 6.69232 7.44425L 6.50609 8.01846L 5.90207 8.01846L 6.39052 8.37249L 6.20386 8.94583Z"/>
<path id="path22_fill" d="M 39.7157 17.7874L 8.44254 17.7874L 8.44254 19.2912L 39.7157 19.2912L 39.7157 17.7874Z"/>
<path id="path23_fill" d="M 7.161 21.0692C 8.54742 13.0237 15.5537 6.90186 23.9982 6.90186C 32.4436 6.90186 39.459 13.0246 40.845 21.071L 47.822 21.071C 46.3798 9.19914 36.264 0 23.9982 0C 11.7324 0 1.62492 9.19958 0.183986 21.071L 7.161 21.0692Z"/>
<path id="path24_fill" d="M 41.0958 23.9908C 41.0958 33.428 33.4398 41.0789 23.9987 41.0789C 14.5581 41.0789 6.90505 33.4276 6.90505 23.9908L 0 23.9908C 0 37.2413 10.7446 47.9808 23.9983 47.9808C 37.2532 47.9808 48 37.2408 48 23.9908L 41.0958 23.9908Z"/>
<path id="path25_stroke" d="M 7.161 21.0692L 7.16101 21.1222L 7.20565 21.1222L 7.21323 21.0782L 7.161 21.0692ZM 40.845 21.071L 40.7928 21.08L 40.8003 21.124L 40.845 21.124L 40.845 21.071ZM 47.822 21.071L 47.822 21.124L 47.8818 21.124L 47.8746 21.0646L 47.822 21.071ZM 0.183986 21.071L 0.131372 21.0646L 0.124162 21.124L 0.183999 21.124L 0.183986 21.071ZM 41.0958 23.9908L 41.0958 23.9378L 41.0428 23.9378L 41.0428 23.9908L 41.0958 23.9908ZM 6.90505 23.9908L 6.95805 23.9908L 6.95805 23.9378L 6.90505 23.9378L 6.90505 23.9908ZM 0 23.9908L 0 23.9378L -0.053 23.9378L -0.053 23.9908L 0 23.9908ZM 48 23.9908L 48.053 23.9908L 48.053 23.9378L 48 23.9378L 48 23.9908ZM 7.21323 21.0782C 8.59535 13.0577 15.5799 6.95486 23.9982 6.95486L 23.9982 6.84886C 15.5274 6.84886 8.49949 12.9898 7.10877 21.0602L 7.21323 21.0782ZM 23.9982 6.95486C 32.4174 6.95486 39.4111 13.0586 40.7928 21.08L 40.8972 21.062C 39.5069 12.9906 32.4698 6.84886 23.9982 6.84886L 23.9982 6.95486ZM 40.845 21.124L 47.822 21.124L 47.822 21.018L 40.845 21.018L 40.845 21.124ZM 47.8746 21.0646C 46.4292 9.16646 36.2911 -0.053 23.9982 -0.053L 23.9982 0.053C 36.2369 0.053 46.3303 9.23182 47.7694 21.0774L 47.8746 21.0646ZM 23.9982 -0.053C 11.7053 -0.053 1.57549 9.16692 0.131372 21.0646L 0.2366 21.0773C 1.67434 9.23223 11.7595 0.053 23.9982 0.053L 23.9982 -0.053ZM 0.183999 21.124L 7.16101 21.1222L 7.16099 21.0162L 0.183973 21.018L 0.183999 21.124ZM 41.0428 23.9908C 41.0428 33.3987 33.4105 41.0259 23.9987 41.0259L 23.9987 41.1319C 33.469 41.1319 41.1488 33.4573 41.1488 23.9908L 41.0428 23.9908ZM 23.9987 41.0259C 14.5873 41.0259 6.95805 33.3983 6.95805 23.9908L 6.85205 23.9908C 6.85205 33.4569 14.5288 41.1319 23.9987 41.1319L 23.9987 41.0259ZM 6.90505 23.9378L 0 23.9378L 0 24.0438L 6.90505 24.0438L 6.90505 23.9378ZM -0.053 23.9908C -0.053 37.2706 10.7154 48.0338 23.9983 48.0338L 23.9983 47.9278C 10.7739 47.9278 0.053 37.212 0.053 23.9908L -0.053 23.9908ZM 23.9983 48.0338C 37.2824 48.0338 48.053 37.2701 48.053 23.9908L 47.947 23.9908C 47.947 37.2116 37.2239 47.9278 23.9983 47.9278L 23.9983 48.0338ZM 48 23.9378L 41.0958 23.9378L 41.0958 24.0438L 48 24.0438L 48 23.9378Z"/>
<path id="path26_fill" d="M 4.43086 12.1639L 4.73134 11.7218C 4.99737 11.9015 5.17139 12.1338 5.25294 12.4177C 5.3358 12.702 5.29612 12.9958 5.13388 13.3015C 4.99738 13.5578 4.82206 13.7322 4.60792 13.8225C 4.39422 13.9145 4.15349 13.9441 3.88658 13.9136C 3.61968 13.8822 3.35234 13.7954 3.08587 13.6537C 2.6576 13.4266 2.36366 13.1393 2.20317 12.7944C 2.04268 12.4478 2.0575 12.0977 2.24634 11.7419C 2.39462 11.4633 2.60352 11.2771 2.87392 11.1825C 3.14431 11.0888 3.45134 11.1023 3.79674 11.2252L 3.597 11.721C 3.12687 11.5814 2.81286 11.6604 2.65586 11.9551C 2.55599 12.1443 2.56515 12.3383 2.68551 12.5376C 2.80632 12.736 3.03441 12.9243 3.36935 13.1022C 3.70908 13.2836 3.99649 13.3638 4.23025 13.3442C 4.464 13.3228 4.62973 13.2208 4.72829 13.0351C 4.8081 12.8868 4.81639 12.7303 4.75489 12.5633C 4.6934 12.3972 4.58612 12.2642 4.43086 12.1639Z"/>
<path id="path27_fill" d="M 9.06184 8.07034L 7.6244 9.55797L 5.33478 7.34745L 6.75696 5.87421L 7.09713 6.20295L 6.07313 7.26374L 6.69416 7.86237L 7.51798 7.01086L 7.849 7.33045L 7.02691 8.1837L 7.66757 8.80194L 8.70553 7.72634L 9.06184 8.07034Z"/>
<path id="path28_fill" fill-rule="evenodd" d="M 11.3993 4.22657L 12.0242 3.87995C 12.2048 3.78011 12.3182 3.66806 12.364 3.54292C 12.4102 3.41779 12.3962 3.2883 12.323 3.15445C 12.2549 3.03281 12.1564 2.95781 12.0273 2.93035C 11.8982 2.90375 11.756 2.93296 11.5999 3.01972L 10.9348 3.38858L 11.3993 4.22657ZM 13.9253 4.847L 13.3949 5.14086L 12.3282 4.2366L 11.6221 4.62812L 12.2567 5.77088L 11.7547 6.04948L 10.2117 3.26563L 11.4189 2.59724C 11.7551 2.41063 12.0447 2.34959 12.2859 2.41412C 12.5271 2.47865 12.715 2.63038 12.8485 2.87148C 13.0465 3.22813 13.016 3.56821 12.756 3.88823L 13.9253 4.847Z"/>
<path id="path29_fill" d="M 18.2804 3.51022L 17.6785 3.63885L 17.1186 1.00672L 16.2899 1.18286L 16.1879 0.701957L 18.447 0.221484L 18.549 0.702828L 17.7204 0.878972L 18.2804 3.51022Z"/>
<path id="path30_fill" d="M 22.8372 3.2011L 22.2633 3.18061L 22.3741 0L 22.948 0.0196192L 22.8372 3.2011Z"/>
<path id="path31_fill" d="M 26.8979 3.8721L 26.3332 3.69944L 27.2652 0.656605L 29.1893 1.24433L 29.0454 1.71521L 27.686 1.29883L 27.4313 2.13072L 28.5011 2.45772L 28.362 2.91508L 27.2913 2.58808L 26.8979 3.8721Z"/>
<path id="path32_fill" d="M 31.6757 5.9492L 31.1833 5.6536L 32.8231 2.92599L 33.3146 3.22072L 31.6757 5.9492Z"/>
<path id="path33_fill" d="M 35.9788 9.46117L 34.4908 8.02368L 36.7023 5.73469L 38.1747 7.15648L 37.8463 7.49743L 36.7865 6.47371L 36.1869 7.09457L 37.0386 7.91643L 36.7185 8.24909L 35.8659 7.42593L 35.2475 8.06685L 36.3229 9.10496L 35.9788 9.46117Z"/>
<path id="path34_fill" fill-rule="evenodd" d="M 38.6697 12.4748L 38.8947 12.8973C 39.0147 13.124 39.2022 13.2701 39.456 13.3385C 39.7116 13.4057 40.0064 13.3494 40.3426 13.1707C 40.6178 13.0242 40.8128 12.8328 40.9297 12.5934C 41.0474 12.3549 41.0457 12.1216 40.9244 11.8949L 40.668 11.4131L 38.6697 12.4748ZM 37.9789 12.174L 40.7897 10.6802L 41.3418 11.7149C 41.5446 12.0981 41.5725 12.477 41.4251 12.8532C 41.2768 13.2295 41.0034 13.5234 40.6056 13.7353C 40.207 13.9454 39.8119 14.0034 39.4163 13.9075C 39.0221 13.8111 38.7059 13.5404 38.4691 13.0961L 37.9789 12.174Z"/>
<path id="path35_fill" d="M 0.808563 29.5638L 0.656794 28.9983L 3.34939 28.2772L 0.429576 28.1468L 0.351513 27.8573L 2.81383 26.2794L 0.12255 27.0005L 0 26.5475L 3.0755 25.7239L 3.30839 26.592L 1.50068 27.7662L 3.65031 27.8682L 3.8845 28.7402L 0.808563 29.5638Z"/>
<path id="path36_fill" fill-rule="evenodd" d="M 3.20182 31.9073L 4.27554 30.8683L 2.79535 31.0736L 3.20182 31.9073ZM 2.55592 33.3591L 2.28728 32.8081L 2.85685 32.2478L 2.32086 31.1469L 1.52974 31.255L 1.31517 30.8147L 4.64013 30.3695L 4.94977 31.0039L 2.55592 33.3591Z"/>
<path id="path37_fill" d="M 4.69159 36.3841L 4.36363 35.9337L 5.29911 33.7616C 5.3135 33.7284 5.33661 33.6739 5.36889 33.599C 5.38241 33.5667 5.40508 33.5139 5.43648 33.4433L 3.54896 34.8136L 3.2777 34.4409L 5.85341 32.57L 6.22673 33.0836L 5.36452 35.0866C 5.35755 35.1036 5.30434 35.2261 5.20578 35.4528L 7.00084 34.1483L 7.26687 34.5154L 4.69159 36.3841Z"/>
<path id="path38_fill" fill-rule="evenodd" d="M 7.73623 37.7405L 8.36468 36.3858L 7.05632 37.1079L 7.73623 37.7405ZM 7.65206 39.3275L 7.20373 38.9085L 7.53474 38.1813L 6.63939 37.3468L 5.93986 37.7318L 5.58137 37.3969L 8.52517 35.7898L 9.04284 36.2712L 7.65206 39.3275Z"/>
<path id="path39_fill" d="M 11.5187 40.0099L 10.6325 41.375L 10.4188 41.2372L 10.506 40.7816C 10.1772 40.9486 9.85011 40.9255 9.5239 40.7145C 9.16018 40.4777 8.97788 40.1634 8.97875 39.771C 8.97875 39.3777 9.09694 38.9992 9.33331 38.6356C 9.58321 38.2515 9.8946 37.9908 10.2683 37.8547C 10.6417 37.7178 11.008 37.7654 11.3682 37.9995C 11.6365 38.173 11.8078 38.3945 11.8794 38.6635C 11.9518 38.9325 11.9352 39.1967 11.8305 39.4588L 11.3639 39.2613C 11.4978 38.8841 11.4153 38.5994 11.1197 38.408C 10.9304 38.2855 10.7263 38.2624 10.5073 38.3383C 10.2875 38.415 10.0747 38.6125 9.86712 38.9325C 9.42926 39.6061 9.42141 40.0796 9.84444 40.3548C 10.0084 40.4603 10.1807 40.4925 10.3626 40.4494C 10.5444 40.4062 10.6953 40.2911 10.8161 40.1045L 10.264 39.7461L 10.5161 39.3585L 11.5187 40.0099Z"/>
<path id="path40_fill" d="M 13.8284 42.9333L 11.9383 42.0918L 13.2336 39.1837L 15.1036 40.0169L 14.9122 40.4494L 13.565 39.849L 13.2135 40.6373L 14.2964 41.1195L 14.1084 41.5411L 13.026 41.0598L 12.664 41.8738L 14.029 42.4811L 13.8284 42.9333Z"/>
<path id="path41_fill" d="M 18.1887 44.158L 17.6213 44.0154L 18.2951 41.3126L 16.7656 43.8035L 16.4734 43.7303L 16.288 40.8121L 15.6138 43.5157L 15.1585 43.4015L 15.9291 40.3138L 16.8005 40.5318L 16.9509 42.6812L 18.0831 40.8514L 18.9588 41.0694L 18.1887 44.158Z"/>
<path id="path42_fill" d="M 22.0026 44.3782L 19.9349 44.3058L 20.0457 41.126L 22.0924 41.198L 22.0758 41.6697L 20.6031 41.6183L 20.5725 42.4811L 21.7575 42.5221L 21.7405 42.9834L 20.5568 42.942L 20.5259 43.8323L 22.0196 43.8837L 22.0026 44.3782Z"/>
<path id="path43_fill" d="M 25.7283 44.032L 25.1744 44.1L 23.7274 42.23C 23.706 42.2012 23.6685 42.155 23.6183 42.0905C 23.597 42.0617 23.5612 42.0163 23.5154 41.9557L 23.7998 44.2696L 23.3405 44.3258L 22.9528 41.1675L 23.5821 41.089L 24.9171 42.8142C 24.9289 42.8277 25.01 42.9333 25.1609 43.1303L 24.8909 40.929L 25.3397 40.8745L 25.7283 44.032Z"/>
<path id="path44_fill" d="M 28.3618 43.3557L 27.7734 43.5354L 26.9871 40.9621L 26.1781 41.2097L 26.0333 40.7397L 28.241 40.0652L 28.3849 40.5352L 27.5759 40.782L 28.3618 43.3557Z"/>
<path id="path45_fill" d="M 31.1032 41.5001L 31.5324 41.1265C 31.7435 41.3702 32.0453 41.3837 32.4352 41.1675C 32.614 41.0676 32.7317 40.9573 32.788 40.8335C 32.8451 40.7092 32.8442 40.595 32.7854 40.4903C 32.7435 40.4136 32.6824 40.3565 32.6031 40.316C 32.5237 40.2754 32.4029 40.2767 32.2393 40.3177L 31.6309 40.4751C 31.4216 40.5278 31.2572 40.5492 31.1351 40.5374C 31.016 40.5248 30.8983 40.4777 30.7849 40.3962C 30.6715 40.3159 30.5795 40.2122 30.5114 40.087C 30.3736 39.8385 30.3549 39.5874 30.456 39.335C 30.5581 39.0829 30.7526 38.8758 31.0413 38.7167C 31.2807 38.5837 31.5232 38.5175 31.7696 38.5183C 32.0165 38.5183 32.2184 38.6003 32.3771 38.7629L 31.965 39.1462C 31.7757 38.9757 31.545 38.9657 31.2751 39.1156C 31.1203 39.2015 31.0178 39.2996 30.972 39.4104C 30.9262 39.5229 30.931 39.6284 30.9872 39.7282C 31.0749 39.8874 31.2668 39.9266 31.5599 39.8481L 32.0989 39.7034C 32.4251 39.6175 32.6772 39.6166 32.853 39.7034C 33.0291 39.7901 33.1648 39.9179 33.2585 40.0875C 33.4103 40.3609 33.4264 40.6334 33.3078 40.9041C 33.1888 41.1757 32.9646 41.4033 32.6375 41.5838C 32.3606 41.7373 32.0871 41.8136 31.8154 41.8119C 31.5442 41.811 31.3056 41.7068 31.1032 41.5001Z"/>
<path id="path46_fill" d="M 35.799 39.355L 35.3262 39.7383L 34.4815 38.6949L 32.4806 37.9472L 33.0196 37.5099L 34.4335 38.0549L 34.1688 36.579L 34.597 36.2333L 34.9542 38.3117L 35.799 39.355Z"/>
<path id="path47_fill" d="M 36.555 37.7209L 36.848 37.233C 37.1241 37.3991 37.4154 37.3189 37.7194 36.9928C 37.8581 36.8437 37.9357 36.7015 37.951 36.5659C 37.9654 36.4303 37.9296 36.3231 37.8428 36.2407C 37.7796 36.1818 37.7033 36.1443 37.6156 36.1308C 37.528 36.1173 37.4119 36.1556 37.2706 36.2468L 36.7399 36.5825C 36.5576 36.6985 36.4076 36.7691 36.2894 36.7935C 36.1703 36.8201 36.0447 36.8114 35.9121 36.7695C 35.7783 36.7268 35.6601 36.6579 35.5554 36.5603C 35.3474 36.3662 35.2532 36.133 35.271 35.8618C 35.2898 35.5893 35.4123 35.3338 35.6374 35.0918C 35.8232 34.8917 36.0342 34.7548 36.2684 34.678C 36.5026 34.6022 36.7207 34.6166 36.9209 34.7238L 36.6474 35.2152C 36.4141 35.1123 36.1926 35.1733 35.9823 35.3983C 35.8607 35.5296 35.7948 35.6538 35.7857 35.7746C 35.7756 35.8936 35.8131 35.9926 35.8964 36.0711C 36.0312 36.1953 36.2235 36.1731 36.4791 36.0078L 36.9475 35.7048C 37.2301 35.5208 37.4695 35.4424 37.6649 35.4707C 37.8572 35.4986 38.026 35.5788 38.1682 35.7118C 38.3971 35.9246 38.4961 36.1783 38.4674 36.4731C 38.4386 36.7678 38.2951 37.0521 38.04 37.3254C 37.8254 37.5561 37.5886 37.7139 37.3295 37.7972C 37.07 37.88 36.8118 37.8547 36.555 37.7209Z"/>
<path id="path48_fill" d="M 40.2637 34.44L 39.91 34.944L 37.7063 33.401L 37.22 34.0942L 36.817 33.813L 38.1407 31.9208L 38.5445 32.2038L 38.0582 32.8966L 40.2637 34.44Z"/>
<path id="path49_fill" d="M 42.2103 30.8378L 41.3023 32.696L 38.4423 31.3008L 39.3398 29.4618L 39.765 29.6693L 39.1187 30.9934L 39.8945 31.3706L 40.4139 30.3072L 40.8287 30.509L 40.3093 31.5733L 41.11 31.9635L 41.7659 30.6215L 42.2103 30.8378Z"/>
<path id="path50_fill" d="M 43.5716 26.4529L 43.4203 27.0175L 40.7286 26.2973L 43.1918 27.8699L 43.1137 28.1603L 40.1926 28.295L 42.8843 29.0153L 42.7626 29.4683L 39.6884 28.6451L 39.9209 27.7771L 42.0727 27.6641L 40.2637 26.5009L 40.497 25.6289L 43.5716 26.4529Z"/>
</defs>
</svg>
