<svg width="360" height="360" viewBox="0 0 360 360" version="1.1" xmlns="http://www.w3.org/2000/svg" xmlns:xlink="http://www.w3.org/1999/xlink">
<title>laboratory_</title>
<desc>Created using Figma</desc>
<g id="Canvas" transform="matrix(3 0 0 3 1752 -930)">
<g id="laboratory_">
<g id="Vector">
<use xlink:href="#path0_fill" transform="translate(-584 310)" fill="#00B1EB"/>
</g>
<g id="Vector">
<use xlink:href="#path0_fill" transform="translate(-584 310)" fill="#004F91"/>
</g>
<g id="Vector">
<use xlink:href="#path1_fill" transform="translate(-572 322)" fill="#FFFFFF"/>
<use xlink:href="#path2_fill" transform="translate(-572 322)" fill="#FFFFFF"/>
<use xlink:href="#path3_fill" transform="translate(-572 322)" fill="#FFFFFF"/>
<use xlink:href="#path4_fill" transform="translate(-572 322)" fill="#FFFFFF"/>
<use xlink:href="#path5_fill" transform="translate(-572 322)" fill="#FFFFFF"/>
<use xlink:href="#path6_fill" transform="translate(-572 322)" fill="#FFFFFF"/>
<use xlink:href="#path7_fill" transform="translate(-572 322)" fill="#FFFFFF"/>
<use xlink:href="#path8_fill" transform="translate(-572 322)" fill="#FFFFFF"/>
<use xlink:href="#path9_fill" transform="translate(-572 322)" fill="#FFFFFF"/>
</g>
</g>
</g>
<defs>
<path id="path0_fill" d="M 120 0L 0 0L 0 120L 120 120L 120 0Z"/>
<path id="path1_fill" d="M 83.6526 19.9226C 83.5277 19.8528 83.3962 19.8077 83.2662 19.7534C 82.212 19.1227 81.0294 18.6581 79.827 18.3884L 77.4271 20.5876L 75.1013 18.3638C 75.0937 18.3661 75.0854 18.3661 75.077 18.3684C 73.9246 18.6191 72.793 19.0546 71.7686 19.6416C 71.513 19.7122 71.2598 19.804 71.0184 19.9291C 69.5269 20.6918 68.1079 20.8409 66.5566 20.4006C 61.4152 18.9407 56.6261 11.7938 55.2155 9.16656C 54.8399 8.46072 54.2254 7.9404 53.5091 7.61652L 52.4849 7.30584C 51.7404 7.18908 50.9519 7.26756 50.2199 7.59228C 48.3624 8.41344 47.5896 10.4516 48.491 12.1426C 48.71 12.5537 49.5262 14.0348 50.8494 15.9226L 51.7304 17.1366C 54.4884 20.7952 58.8503 25.3402 64.3147 26.8982C 65.3989 27.2066 66.4882 27.3784 67.5724 27.4304L 67.5724 45.377C 67.5724 46.3037 67.7722 47.1668 68.1236 47.9599C 68.0987 48.1298 68.0654 48.2975 68.0654 48.472L 68.0687 81.0836C 68.0695 83.3078 70.0472 85.1094 72.4872 85.1094C 74.928 85.1078 76.9056 83.3078 76.9056 81.0836L 76.9039 53.0962C 77.0788 53.1046 77.2537 53.1151 77.4303 53.1151C 77.4653 53.1151 77.4985 53.1121 77.5334 53.1114L 77.5334 81.0829C 77.5334 83.3054 79.5104 85.1078 81.9504 85.1078C 84.3902 85.1078 86.3696 83.307 86.3696 81.0829L 86.3705 49.0903C 86.6021 49.2922 86.8568 49.4786 87.1517 49.6243C 87.7195 49.9057 88.3316 50.0384 88.9345 50.0384C 90.2611 50.0384 91.5451 49.3952 92.2215 48.2597C 102.769 30.6025 88.381 22.5644 83.6526 19.9226ZM 77.4505 37.9501L 77.4055 37.9501L 75.0838 35.055L 77.4055 20.9146L 77.4505 20.9146L 79.7738 35.055L 77.4505 37.9501ZM 87.2851 41.8123L 87.2851 32.073C 88.7125 34.5331 89.0322 37.6477 87.2851 41.8123Z"/>
<path id="path2_fill" d="M 77.4272 0.335632C 82.745 0.335632 87.057 4.26311 87.057 9.10775C 87.057 13.9524 82.745 17.8799 77.4272 17.8799C 72.1076 17.8799 67.7975 13.9524 67.7975 9.10775C 67.7975 4.26311 72.1075 0.335632 77.4272 0.335632Z"/>
<path id="path3_fill" d="M 56.164 49.2972L 8.98106 49.2972C 5.98442 49.2972 3.54578 47.0765 3.54578 44.346L 3.54578 4.9512C 3.54578 2.22144 5.98358 0 8.98106 0L 56.164 0C 59.1611 0 61.6002 2.22144 61.6002 4.9512L 61.6002 44.3467C 61.5993 47.0772 59.1594 49.2972 56.164 49.2972ZM 8.98106 3.30048C 7.98134 3.30048 7.1699 4.04088 7.1699 4.95108L 7.1699 44.3466C 7.1699 45.2566 7.98146 45.9972 8.98106 45.9972L 56.164 45.9972C 57.1633 45.9972 57.9761 45.2572 57.9761 44.3466L 57.9761 4.9512C 57.9761 4.041 57.1635 3.3006 56.164 3.3006L 8.98106 3.30048Z"/>
<path id="path4_fill" d="M 17.7361 54.199C 21.9473 54.199 25.3612 57.3091 25.3612 61.1453C 25.3612 64.9813 21.9473 68.0915 17.7361 68.0915C 13.5245 68.0915 10.1107 64.9813 10.1107 61.1453C 10.1107 57.3091 13.5245 54.199 17.7361 54.199Z"/>
<path id="path5_fill" d="M 8.90248 83.9395C 8.67604 82.0355 9.09952 80.4743 9.93256 79.156L 9.93256 83.9395L 17.6858 83.9395L 15.8804 81.6904L 17.72 70.493L 17.7557 70.493L 19.5932 81.6904L 17.7878 83.9395L 25.541 83.9395L 25.541 79.1688C 26.3679 80.4834 26.7876 82.0422 26.5614 83.9395L 32.5296 83.9395C 33.2154 75.6059 25.7133 71.4041 22.8087 69.7808C 22.68 69.7103 22.546 69.658 22.4115 69.6056C 21.562 69.0898 20.6086 68.7104 19.6367 68.492L 17.7368 70.2337L 15.8956 68.4724C 15.889 68.4739 15.8828 68.4739 15.8769 68.4753C 14.8851 68.6923 13.9128 69.0791 13.0493 69.6071C 12.917 69.658 12.7833 69.7095 12.658 69.78C 9.75341 71.4034 2.25041 75.6043 2.93657 83.9395L 8.90248 83.9395Z"/>
<path id="path6_fill" d="M 47.4191 54.199C 51.6306 54.199 55.0449 57.3091 55.0449 61.1453C 55.0449 64.9813 51.6306 68.0915 47.4191 68.0915C 43.2079 68.0915 39.7941 64.9813 39.7941 61.1453C 39.7941 57.3091 43.2078 54.199 47.4191 54.199Z"/>
<path id="path7_fill" d="M 38.5849 83.9395C 38.3571 82.0355 38.7818 80.4743 39.615 79.156L 39.615 83.9395L 47.3661 83.9395L 45.562 81.6904L 47.4003 70.493L 47.4361 70.493L 49.2756 81.6904L 47.4703 83.9395L 55.2231 83.9395L 55.2231 79.1688C 56.0508 80.4834 56.4705 82.0422 56.2441 83.9395L 62.2114 83.9395C 62.8977 75.6059 55.3956 71.4041 52.4918 69.7808C 52.3635 69.7103 52.227 69.658 52.0938 69.6056C 51.2461 69.0898 50.2917 68.7104 49.3191 68.492L 47.4192 70.2337L 45.5784 68.4724C 45.5713 68.4739 45.5655 68.4739 45.5596 68.4753C 44.567 68.6923 43.594 69.0791 42.73 69.6071C 42.5989 69.658 42.4652 69.7095 42.3394 69.78C 39.4345 71.4034 31.9332 75.6043 32.6185 83.9395L 38.5849 83.9395Z"/>
<path id="path8_fill" d="M 87.1784 86.1014L 0 86.1014L 0 96L 87.1784 96L 87.1784 86.1014Z"/>
<path id="path9_fill" d="M 45.6598 26.2769L 44.1405 25.7664C 44.26 24.7575 44.2196 23.7289 44.0119 22.706L 45.4792 22.0901C 46.3952 21.707 46.7957 20.7144 46.3741 19.88L 45.5185 18.1877C 45.0975 17.3526 44.0091 16.9861 43.0935 17.3703L 41.6249 17.9875C 40.9079 17.1769 40.0749 16.4818 39.1563 15.9086L 39.7167 14.5269C 40.0652 13.6652 39.5801 12.7044 38.6345 12.3866L 36.7143 11.7407C 35.7974 11.4327 34.7037 11.892 34.3652 12.726L 33.8048 14.1096C 32.698 14.0007 31.568 14.0364 30.4468 14.2253L 29.7698 12.8898C 29.3485 12.0557 28.2597 11.6889 27.3436 12.0728L 25.4841 12.8526C 24.5681 13.2372 24.1666 14.229 24.5885 15.0635L 25.2647 16.3993C 24.3763 17.0543 23.6122 17.8133 22.9831 18.6488L 21.4671 18.1394C 20.5527 17.8296 19.456 18.2878 19.1167 19.1237L 18.4072 20.8736C 18.2386 21.2916 18.2582 21.7445 18.4609 22.1477C 18.6674 22.5524 19.0322 22.86 19.4893 23.0121L 21.0082 23.5242C 20.8879 24.5323 20.927 25.5617 21.136 26.5831L 19.6683 27.1982C 18.7519 27.5825 18.3508 28.5739 18.7731 29.4072L 19.6292 31.1029C 20.0522 31.9366 21.1394 32.3022 22.0545 31.9176L 23.5226 31.3025C 24.2401 32.1112 25.0731 32.8079 25.9921 33.3791L 25.4329 34.7616C 25.2621 35.1796 25.2808 35.6309 25.4866 36.0348C 25.6893 36.4395 26.0553 36.7478 26.5142 36.9023L 28.4337 37.5486C 28.8913 37.7027 29.3884 37.6848 29.8318 37.4996C 30.2761 37.3134 30.6129 36.98 30.7828 36.5636L 31.342 35.1804C 32.4508 35.2901 33.5795 35.254 34.7008 35.064L 35.3774 36.4006C 35.7983 37.2342 36.8876 37.6003 37.8032 37.2156L 39.6622 36.4357C 40.5787 36.052 40.9797 35.0597 40.5574 34.2257L 39.8812 32.8887C 40.7698 32.2349 41.5337 31.4774 42.1621 30.64L 43.681 31.1513C 44.1399 31.3057 44.6369 31.2871 45.0812 31.1009C 45.5237 30.9151 45.8614 30.5828 46.0301 30.1656L 46.7389 28.4156C 47.09 27.5546 46.6041 26.595 45.6598 26.2769ZM 35.5995 30.6283C 34.6411 31.0308 33.6255 31.2334 32.5774 31.2334C 29.7615 31.2334 27.1829 29.7287 26.0047 27.4007C 24.3367 24.1009 25.9264 20.1806 29.5484 18.6612C 30.506 18.2587 31.5229 18.0563 32.57 18.0563C 35.3847 18.0563 37.9649 19.5601 39.1427 21.887C 40.8095 25.1875 39.2219 29.1081 35.5995 30.6283Z"/>
</defs>
</svg>
