<svg width="107" height="73" viewBox="0 0 107 73" version="1.1" xmlns="http://www.w3.org/2000/svg" xmlns:xlink="http://www.w3.org/1999/xlink">
<title>LOGO_Registracia_2017</title>
<desc>Created using Figma</desc>
<g id="Canvas" transform="translate(651 506)">
<g id="LOGO_Registracia_2017">
<g id="Vector">
<use xlink:href="#path0_fill" transform="translate(-581.912 -482.078)" fill="#00B1EB"/>
</g>
<g id="Vector">
<use xlink:href="#path1_fill" transform="translate(-651 -506)" fill="#005192"/>
<use xlink:href="#path2_fill" transform="translate(-651 -506)" fill="#005192"/>
<use xlink:href="#path3_fill" transform="translate(-651 -506)" fill="#005192"/>
</g>
</g>
</g>
<defs>
<path id="path0_fill" fill-rule="evenodd" d="M 35.9958 0.0983231L 21.8523 4.81284L 21.8516 4.81284L 14.4019 7.29622L 1.91319 11.4591L -8.29932e-07 12.0964L -8.29932e-07 14.115L -8.29932e-07 22.7145C -8.29932e-07 23.8243 0.86186 24.4469 1.91545 24.0952L 16.0588 19.3809L 16.0604 19.3797L 23.5103 16.897L 35.9974 12.7346L 37.9117 12.0962L 37.9117 10.0781L 37.9117 1.47894C 37.9115 0.368011 37.0498 -0.253175 35.9958 0.0983231Z"/>
<path id="path1_fill" fill-rule="evenodd" d="M 105.085 36.6574L 92.5983 40.8198L 85.1484 43.3025L 85.1468 43.3037L 81.3182 44.5794L 79.7656 48.3067L 79.7642 48.3067L 75.2025 59.2557L 70.6418 70.2034C 69.7872 72.2548 70.3728 72.6457 71.9429 71.0759L 104.145 38.8747L 107 36.0194L 105.085 36.6574Z"/>
<path id="path2_fill" fill-rule="evenodd" d="M 104.145 0.962785L 71.9438 33.1637L 69.0878 36.019L 71.001 35.3817L 83.4897 31.2188L 90.9394 28.7354L 90.9408 28.7348L 94.7699 27.4586L 96.3229 23.732L 100.885 12.7827L 105.446 1.83507C 106.301 -0.215221 105.715 -0.607512 104.145 0.962785Z"/>
<path id="path3_fill" fill-rule="evenodd" d="M 35.6309 35.9315L 35.6309 48.5295C 35.6309 49.2572 35.2742 49.6207 34.5599 49.6207L 32.675 49.6207C 32.3711 49.6207 32.133 49.5511 31.9609 49.4124C 31.7892 49.2735 31.6237 49.0455 31.4651 48.7278L 27.8744 41.427C 27.4246 40.4613 27.1469 39.754 27.0413 39.304L 26.8231 39.304C 26.9156 39.965 26.9616 40.6927 26.9616 41.4862L 26.9616 49.6205L 24.085 49.6205L 24.085 37.0227C 24.085 36.2953 24.4489 35.9313 25.176 35.9313L 27.0214 35.9313C 27.3257 35.9313 27.5637 36.0009 27.7357 36.1398C 27.9075 36.2787 28.0729 36.5069 28.2313 36.8242L 31.7037 43.9067C 32.0341 44.5683 32.3648 45.3021 32.6952 46.1091L 32.8935 46.1091C 32.8142 45.0773 32.7748 44.3104 32.7748 43.8077L 32.7748 35.9315L 35.6309 35.9315ZM 48.5861 38.392L 44.4993 38.392L 44.4993 49.6209L 41.4641 49.6209L 41.4641 38.392L 37.3775 38.392L 37.3775 35.9315L 48.5861 35.9315L 48.5861 38.392ZM 50.3322 49.6209L 50.3322 35.9315C 51.5628 35.8125 53.2947 35.7532 55.5306 35.7532C 57.4478 35.7532 58.7607 36.0639 59.4682 36.6857C 60.176 37.3074 60.5302 38.4845 60.5302 40.217C 60.5302 41.9496 60.1957 43.1301 59.5276 43.7583C 58.8604 44.3865 57.6593 44.7006 55.9272 44.7006C 55.0538 44.7006 54.1946 44.648 53.3484 44.542L 53.3484 49.6209L 50.3322 49.6209ZM 53.3482 42.3795L 55.4705 42.3795C 56.2513 42.3664 56.7834 42.2143 57.0676 41.9231C 57.3524 41.6323 57.4945 41.0637 57.4945 40.217C 57.4945 39.3704 57.3524 38.802 57.0676 38.5108C 56.7834 38.2198 56.2513 38.0745 55.4705 38.0745L 53.3482 38.094L 53.3482 42.3795ZM 9.87957 69.4406L 10.1375 71.6826C 8.947 72.0524 7.48571 72.2378 5.75315 72.2378C 3.63713 72.2378 2.1491 71.7093 1.28928 70.6507C 0.429911 69.5931 0 67.761 0 65.1548C 0 62.5495 0.429911 60.7177 1.28928 59.6598C 2.1491 58.6015 3.63713 58.0725 5.75315 58.0725C 7.28764 58.0725 8.65623 58.2246 9.86007 58.5289L 9.60218 60.7907C 8.53068 60.7243 7.24775 60.6914 5.75337 60.6914C 4.76143 60.6914 4.08313 61.0055 3.71962 61.6337C 3.35612 62.2617 3.17436 63.4361 3.17436 65.1548C 3.17436 66.8747 3.35612 68.0491 3.71962 68.6764C 4.08313 69.305 4.7612 69.6189 5.75337 69.6189C 7.59132 69.6189 8.96717 69.5598 9.87957 69.4406ZM 21.1885 69.6386L 21.3274 71.8607C 20.0837 71.9935 17.9679 72.0595 14.9789 72.0595C 14.066 72.0595 13.3388 71.8118 12.7965 71.3154C 12.2539 70.8191 11.9763 70.1483 11.9629 69.3019L 11.9629 61.0089C 11.9763 60.1625 12.2539 59.4912 12.7965 58.9951C 13.3388 58.499 14.0663 58.2511 14.9789 58.2511C 17.9679 58.2511 20.0837 58.317 21.3274 58.4494L 21.1885 60.6914L 15.931 60.6914C 15.6005 60.6914 15.3621 60.7707 15.2166 60.9296C 15.0714 61.0882 14.9986 61.3459 14.9986 61.7031L 14.9986 63.7862L 20.4544 63.7862L 20.4544 65.9684L 14.9986 65.9684L 14.9986 68.6077C 14.9986 68.9778 15.0714 69.242 15.2166 69.4009C 15.3621 69.56 15.6005 69.6389 15.931 69.6389L 21.1885 69.6386ZM 35.056 58.3105L 35.056 70.9082C 35.056 71.6361 34.6988 71.9998 33.9843 71.9998L 32.0999 71.9998C 31.796 71.9998 31.5575 71.9301 31.386 71.7914C 31.214 71.6522 31.0485 71.424 30.8901 71.1067L 27.299 63.8057C 26.8491 62.8405 26.572 62.133 26.4655 61.6834L 26.2477 61.6834C 26.3399 62.3447 26.3866 63.0714 26.3866 63.8655L 26.3866 71.9998L 23.5098 71.9998L 23.5098 59.4019C 23.5098 58.674 23.8738 58.3105 24.6008 58.3105L 26.4458 58.3105C 26.7503 58.3105 26.9883 58.3803 27.1603 58.519C 27.3323 58.6579 27.4971 58.8861 27.6562 59.2034L 31.1281 66.2859C 31.4585 66.9477 31.7894 67.6817 32.1203 68.4885L 32.3186 68.4885C 32.2392 67.4564 32.1994 66.6895 32.1994 66.1871L 32.1994 58.3107L 35.056 58.3105ZM 48.0111 60.7705L 43.9243 60.7705L 43.9243 71.9998L 40.8891 71.9998L 40.8891 60.7705L 36.8017 60.7705L 36.8017 58.3105L 48.0111 58.3105L 48.0111 60.7705ZM 60.5495 71.9998L 57.3551 71.9998L 56.3231 67.8138C 56.1914 67.3769 56.0158 67.0759 55.7975 66.9112C 55.5793 66.7453 55.2654 66.6626 54.8557 66.6626L 52.7326 66.6428L 52.7326 71.9998L 49.7573 71.9998L 49.7573 58.3105C 50.9869 58.1917 52.7265 58.1323 54.9744 58.1323C 56.8135 58.1323 58.1166 58.4231 58.8835 59.0053C 59.6507 59.587 60.0339 60.6452 60.0339 62.1799C 60.0339 63.1852 59.8324 63.9718 59.4288 64.5404C 59.0252 65.109 58.3543 65.4526 57.4152 65.572L 57.4152 65.6711C 58.4602 65.9093 59.1081 66.5971 59.3592 67.7347L 60.5495 71.9998ZM 52.7326 64.3217L 54.9155 64.3217C 55.7089 64.3217 56.2515 64.1862 56.542 63.9154C 56.833 63.6444 56.9785 63.1315 56.9785 62.3775C 56.9785 61.6237 56.8359 61.115 56.5518 60.8503C 56.2673 60.5858 55.7223 60.4534 54.9155 60.4534L 52.7326 60.4732L 52.7326 64.3217Z"/>
</defs>
</svg>
