<svg width="70" height="45" viewBox="0 0 70 45" version="1.1" xmlns="http://www.w3.org/2000/svg" xmlns:xlink="http://www.w3.org/1999/xlink">
<title>2</title>
<desc>Created using Figma</desc>
<g id="Canvas" transform="translate(-22088 81)">
<g id="2">
<g id="Vector">
<use xlink:href="#path0_fill" transform="translate(22088 -81)" fill="#00B1EB"/>
</g>
<g id="2">
<use xlink:href="#path1_fill" transform="translate(21758 -76)" fill="#FFFFFF"/>
</g>
</g>
</g>
<defs>
<path id="path0_fill" fill-rule="evenodd" d="M 66.4625 0.182882L 40.3479 8.95192L 40.3466 8.95192L 26.5916 13.571L 3.5325 21.314L -1.53238e-06 22.4994L -1.53238e-06 26.2539L -1.53238e-06 42.2492C -1.53238e-06 44.3134 1.59133 45.4714 3.53667 44.8171L 29.6508 36.0485L 29.6538 36.0464L 43.4092 31.4286L 66.4654 23.6864L 70 22.499L 70 18.7453L 70 2.75083C 69.9996 0.684503 68.4087 -0.470907 66.4625 0.182882Z"/>
<path id="path1_fill" d="M 359.442 10.192L 359.286 8.424C 361.21 7.97333 363.03 7.748 364.746 7.748C 366.636 7.748 368.022 8.01667 368.906 8.554C 369.808 9.074 370.258 10.0967 370.258 11.622C 370.258 12.7487 370.024 13.7887 369.556 14.742C 369.088 15.678 368.256 16.8133 367.06 18.148L 361.912 23.894C 362.727 23.8247 363.698 23.79 364.824 23.79L 370.908 23.79L 370.908 26L 359.13 26L 359.13 24.57C 359.13 24.154 359.243 23.8247 359.468 23.582L 364.668 17.706C 365.847 16.4407 366.696 15.34 367.216 14.404C 367.736 13.4507 367.979 12.558 367.944 11.726C 367.927 10.9113 367.65 10.3827 367.112 10.14C 366.592 9.89733 365.752 9.776 364.59 9.776C 362.857 9.776 361.141 9.91467 359.442 10.192Z"/>
</defs>
</svg>
