<svg width="70" height="45" viewBox="0 0 70 45" version="1.1" xmlns="http://www.w3.org/2000/svg" xmlns:xlink="http://www.w3.org/1999/xlink">
<title>3</title>
<desc>Created using Figma</desc>
<g id="Canvas" transform="translate(-22088 -62)">
<g id="3">
<g id="Vector">
<use xlink:href="#path0_fill" transform="translate(22088 62)" fill="#00B1EB"/>
</g>
<g id="3">
<use xlink:href="#path1_fill" transform="translate(21758 68)" fill="#FFFFFF"/>
</g>
</g>
</g>
<defs>
<path id="path0_fill" fill-rule="evenodd" d="M 66.4625 0.182882L 40.3479 8.95192L 40.3466 8.95192L 26.5916 13.571L 3.5325 21.314L -1.53238e-06 22.4994L -1.53238e-06 26.2539L -1.53238e-06 42.2492C -1.53238e-06 44.3134 1.59133 45.4714 3.53667 44.8171L 29.6508 36.0485L 29.6538 36.0464L 43.4092 31.4286L 66.4654 23.6864L 70 22.499L 70 18.7453L 70 2.75083C 69.9996 0.684503 68.4087 -0.470907 66.4625 0.182882Z"/>
<path id="path1_fill" d="M 359.622 9.958L 359.44 8.19C 361.208 7.878 362.89 7.722 364.484 7.722C 366.495 7.722 367.916 8.02533 368.748 8.632C 369.598 9.23867 370.022 10.322 370.022 11.882C 370.022 14.5513 369.147 16.0593 367.396 16.406L 367.396 16.51C 368.506 16.7007 369.294 17.1687 369.762 17.914C 370.23 18.6593 370.482 19.6907 370.516 21.008C 370.551 22.8627 370.126 24.2147 369.242 25.064C 368.376 25.9133 366.902 26.338 364.822 26.338C 363.21 26.338 361.312 26.182 359.128 25.87L 359.284 24.024C 361.243 24.1973 362.898 24.284 364.25 24.284C 365.706 24.284 366.738 24.024 367.344 23.504C 367.951 22.984 368.254 22.074 368.254 20.774C 368.254 19.682 368.003 18.8587 367.5 18.304C 367.015 17.7493 366.079 17.472 364.692 17.472L 361.364 17.472L 361.364 15.678L 364.692 15.678C 365.975 15.6607 366.816 15.366 367.214 14.794C 367.63 14.222 367.838 13.4247 367.838 12.402C 367.821 11.31 367.561 10.5993 367.058 10.27C 366.556 9.92333 365.594 9.75 364.172 9.75C 362.734 9.75 361.217 9.81933 359.622 9.958Z"/>
</defs>
</svg>
