<svg width="28" height="28" viewBox="0 0 28 28" version="1.1" xmlns="http://www.w3.org/2000/svg" xmlns:xlink="http://www.w3.org/1999/xlink">
<title>Vector</title>
<desc>Created using Figma</desc>
<g id="Canvas" transform="translate(-6900 482)">
<g id="Vector">
<use xlink:href="#path0_fill" transform="translate(6900 -482)" fill="#FFFFFF"/>
</g>
</g>
<defs>
<path id="path0_fill" d="M 24 16.4L 24 2C 24 0.866667 23.1333 0 22 0L 2 0C 0.866667 0 0 0.866667 0 2L 0 22C 0 23.1333 0.866667 24 2 24L 16.4 24C 17.2 26.3333 19.4 28 22 28C 25.3333 28 28 25.3333 28 22C 28 19.4 26.3333 17.2 24 16.4ZM 2 22.6667C 1.6 22.6667 1.33333 22.4 1.33333 22L 1.33333 2C 1.33333 1.6 1.6 1.33333 2 1.33333L 22 1.33333C 22.4 1.33333 22.6667 1.6 22.6667 2L 22.6667 16.0667C 22.4667 16.0667 22.2 16 22 16C 18.6667 16 16 18.6667 16 22C 16 22.2 16.0667 22.4667 16.0667 22.6667L 2 22.6667ZM 22 26.6667C 19.4 26.6667 17.3333 24.6 17.3333 22C 17.3333 19.4 19.4 17.3333 22 17.3333C 24.6 17.3333 26.6667 19.4 26.6667 22C 26.6667 24.6 24.6 26.6667 22 26.6667ZM 25.3333 22C 25.3333 22.4 25.0667 22.6667 24.6667 22.6667L 22.6667 22.6667L 22.6667 24.6667C 22.6667 25.0667 22.4 25.3333 22 25.3333C 21.6 25.3333 21.3333 25.0667 21.3333 24.6667L 21.3333 22.6667L 19.3333 22.6667C 18.9333 22.6667 18.6667 22.4 18.6667 22C 18.6667 21.6 18.9333 21.3333 19.3333 21.3333L 21.3333 21.3333L 21.3333 19.3333C 21.3333 18.9333 21.6 18.6667 22 18.6667C 22.4 18.6667 22.6667 18.9333 22.6667 19.3333L 22.6667 21.3333L 24.6667 21.3333C 25.0667 21.3333 25.3333 21.6 25.3333 22ZM 9.33333 12C 9.33333 11.6 9.6 11.3333 10 11.3333L 19.3333 11.3333C 19.7333 11.3333 20 11.6 20 12C 20 12.4 19.7333 12.6667 19.3333 12.6667L 10 12.6667C 9.6 12.6667 9.33333 12.4 9.33333 12ZM 6.66667 12C 6.66667 12.7333 6.06667 13.3333 5.33333 13.3333C 4.6 13.3333 4 12.7333 4 12C 4 11.2667 4.6 10.6667 5.33333 10.6667C 6.06667 10.6667 6.66667 11.2667 6.66667 12ZM 6.66667 7.33333C 6.66667 8.06667 6.06667 8.66667 5.33333 8.66667C 4.6 8.66667 4 8.06667 4 7.33333C 4 6.6 4.6 6 5.33333 6C 6.06667 6 6.66667 6.6 6.66667 7.33333ZM 9.33333 7.33333C 9.33333 6.93333 9.6 6.66667 10 6.66667L 16.6667 6.66667C 17.0667 6.66667 17.3333 6.93333 17.3333 7.33333C 17.3333 7.73333 17.0667 8 16.6667 8L 10 8C 9.6 8 9.33333 7.73333 9.33333 7.33333ZM 6.66667 16.6667C 6.66667 17.4 6.06667 18 5.33333 18C 4.6 18 4 17.4 4 16.6667C 4 15.9333 4.6 15.3333 5.33333 15.3333C 6.06667 15.3333 6.66667 15.9333 6.66667 16.6667ZM 14.6667 16.6667C 14.6667 17.0667 14.4 17.3333 14 17.3333L 10 17.3333C 9.6 17.3333 9.33333 17.0667 9.33333 16.6667C 9.33333 16.2667 9.6 16 10 16L 14 16C 14.4 16 14.6667 16.2667 14.6667 16.6667Z"/>
</defs>
</svg>
