<svg width="70" height="45" viewBox="0 0 70 45" version="1.1" xmlns="http://www.w3.org/2000/svg" xmlns:xlink="http://www.w3.org/1999/xlink">
<title>4</title>
<desc>Created using Figma</desc>
<g id="Canvas" transform="translate(-22088 -254)">
<g id="4">
<g id="Vector">
<use xlink:href="#path0_fill" transform="translate(22088 254)" fill="#00B1EB"/>
</g>
<g id="4">
<use xlink:href="#path1_fill" transform="translate(21758 259)" fill="#FFFFFF"/>
</g>
</g>
</g>
<defs>
<path id="path0_fill" fill-rule="evenodd" d="M 66.4625 0.182882L 40.3479 8.95192L 40.3466 8.95192L 26.5916 13.571L 3.5325 21.314L -1.53238e-06 22.4994L -1.53238e-06 26.2539L -1.53238e-06 42.2492C -1.53238e-06 44.3134 1.59133 45.4714 3.53667 44.8171L 29.6508 36.0485L 29.6538 36.0464L 43.4092 31.4286L 66.4654 23.6864L 70 22.499L 70 18.7453L 70 2.75083C 69.9996 0.684503 68.4087 -0.470907 66.4625 0.182882Z"/>
<path id="path1_fill" d="M 371.848 21.372L 369.534 21.606L 369.534 26L 367.376 26L 367.376 21.606L 359.94 21.606C 359.212 21.606 358.666 21.3113 358.302 20.722C 357.955 20.1327 357.929 19.5 358.224 18.824L 363.32 8.06L 365.582 8.06L 360.564 18.668C 360.425 19.0147 360.417 19.2833 360.538 19.474C 360.677 19.6473 360.902 19.734 361.214 19.734L 367.376 19.734L 367.376 14.456L 367.766 11.492L 369.534 11.492L 369.534 19.734L 371.848 19.734L 371.848 21.372Z"/>
</defs>
</svg>
