<svg width="24" height="24" viewBox="0 0 24 24" version="1.1" xmlns="http://www.w3.org/2000/svg" xmlns:xlink="http://www.w3.org/1999/xlink">
<title>Vector</title>
<desc>Created using Figma</desc>
<g id="Canvas" transform="translate(-6834 482)">
<g id="Vector">
<use xlink:href="#path0_fill" transform="translate(6834 -482)" fill="#FFFFFF"/>
</g>
</g>
<defs>
<path id="path0_fill" d="M 23.7924 22.7761L 17.9587 16.9437C 19.5236 15.145 20.4711 12.7982 20.4711 10.2333C 20.4711 4.58714 15.8776 0 10.2355 0C 4.58816 0 3.96571e-11 4.59246 3.96571e-11 10.2333C 3.96571e-11 15.8741 4.59348 20.4665 10.2355 20.4665C 12.8011 20.4665 15.1484 19.5193 16.9474 17.9548L 22.7811 23.7871C 22.9195 23.9255 23.1058 24 23.2868 24C 23.4677 24 23.654 23.9308 23.7924 23.7871C 24.0692 23.5104 24.0692 23.0528 23.7924 22.7761ZM 1.4318 10.2333C 1.4318 5.38004 5.38124 1.43681 10.2302 1.43681C 15.0845 1.43681 19.0286 5.38537 19.0286 10.2333C 19.0286 15.0812 15.0845 19.035 10.2302 19.035C 5.38124 19.035 1.4318 15.0865 1.4318 10.2333Z"/>
</defs>
</svg>
