<svg width="24" height="24" viewBox="0 0 24 24" version="1.1" xmlns="http://www.w3.org/2000/svg" xmlns:xlink="http://www.w3.org/1999/xlink">
<title>translation</title>
<desc>Created using Figma</desc>
<g id="Canvas" transform="translate(-6970 482)">
<g id="translation">
<g id="Group">
<g id="Vector">
<use xlink:href="#path0_fill" transform="translate(6971.64 -480.359)" fill="#FFFFFF"/>
</g>
</g>
<g id="Group">
<g id="Vector">
<use xlink:href="#path1_fill" transform="translate(6970.12 -481.875)" fill="#FFFFFF"/>
</g>
<g id="Vector">
<use xlink:href="#path2_fill" transform="translate(6970 -482)" fill="#FFFFFF"/>
</g>
</g>
</g>
</g>
<defs>
<path id="path0_fill" d="M 20.339 9.98007L 16.4466 9.98007C 16.4157 8.08825 16.1544 6.2601 15.7002 4.63915L 18.2529 4.63915C 18.4623 4.63915 18.6318 4.4695 18.6318 4.26015C 18.6318 4.0508 18.4623 3.88117 18.2529 3.88117L 15.468 3.88117C 15.0629 2.66007 14.5425 1.5809 13.9241 0.715025C 13.8025 0.544675 13.5657 0.505175 13.3955 0.62685C 13.2251 0.748475 13.1856 0.9852 13.3073 1.1555C 13.8439 1.9068 14.3022 2.8331 14.6699 3.88115L 10.738 3.88115L 10.738 0.379C 10.738 0.169625 10.5683 1.2207e-08 10.359 1.2207e-08C 10.1497 1.2207e-08 9.98005 0.169625 9.98005 0.379L 9.98005 3.88117L 6.04818 3.88117C 6.41587 2.83315 6.8742 1.90682 7.41075 1.15552C 7.53237 0.985225 7.4929 0.7485 7.3226 0.626875C 7.15225 0.50525 6.9156 0.54475 6.79395 0.71505C 6.1756 1.58092 5.65522 2.66013 5.25007 3.8812L 2.4651 3.8812C 2.25575 3.8812 2.08612 4.05083 2.08612 4.26018C 2.08612 4.46953 2.25578 4.63917 2.4651 4.63917L 5.0178 4.63917C 4.56363 6.26012 4.3023 8.08827 4.27145 9.9801L 0.379 9.9801C 0.169625 9.9801 1.2207e-08 10.1497 1.2207e-08 10.3591C 1.2207e-08 10.5684 0.169625 10.738 0.379 10.738L 4.27152 10.738C 4.30232 12.6299 4.56372 14.458 5.01788 16.079L 2.46512 16.079C 2.25577 16.079 2.08615 16.2486 2.08615 16.458C 2.08615 16.6673 2.2558 16.837 2.46512 16.837L 5.25003 16.837C 5.65523 18.0583 6.17578 19.1375 6.7943 20.0036C 6.86825 20.1071 6.98478 20.1624 7.10313 20.1624C 7.1793 20.1624 7.25625 20.1394 7.32308 20.0918C 7.49338 19.9702 7.53283 19.7334 7.41115 19.5631C 6.8744 18.8118 6.416 17.8853 6.04818 16.8371L 9.98005 16.8371L 9.98005 20.3392C 9.98005 20.5485 10.1497 20.7182 10.359 20.7182C 10.5683 20.7182 10.738 20.5485 10.738 20.3392L 10.738 16.837L 14.6698 16.837C 14.3021 17.8852 13.8436 18.8116 13.3068 19.563C 13.1852 19.7333 13.2247 19.97 13.3949 20.0917C 13.4617 20.1393 13.5386 20.1622 13.6149 20.1622C 13.7332 20.1622 13.8497 20.107 13.9237 20.0035C 14.5421 19.1374 15.0627 18.0581 15.468 16.8368L 18.2529 16.8368C 18.4622 16.8368 18.6318 16.6672 18.6318 16.4578C 18.6318 16.2485 18.4622 16.0788 18.2529 16.0788L 15.7001 16.0788C 16.1544 14.4579 16.4157 12.6298 16.4465 10.7379L 20.3389 10.7379C 20.5483 10.7379 20.718 10.5683 20.718 10.3589C 20.7181 10.1496 20.5484 9.98007 20.339 9.98007ZM 14.914 4.63915C 15.3846 6.24015 15.6566 8.0732 15.6885 9.98007L 10.738 9.98007L 10.738 4.63915L 14.914 4.63915ZM 5.8041 4.63915L 9.98005 4.63915L 9.98005 9.98007L 5.02965 9.98007C 5.06158 8.07312 5.3335 6.24015 5.8041 4.63915ZM 5.8041 16.0789C 5.3335 14.478 5.06155 12.6449 5.02968 10.738L 9.98005 10.738L 9.98005 16.0789L 5.8041 16.0789ZM 14.914 16.0789L 10.738 16.0789L 10.738 10.738L 15.6885 10.738C 15.6565 12.645 15.3846 14.478 14.914 16.0789Z"/>
<path id="path1_fill" d="M 20.2719 3.47813C 18.0289 1.2352 15.0469 0 11.875 0C 8.70298 0 5.721 1.2352 3.4781 3.47813C 1.23515 5.72102 0 8.70308 0 11.8751C 0 14.2132 0.676575 16.4683 1.95882 18.4096L 0.507625 22.7629C 0.4623 22.899 0.497725 23.0492 0.5992 23.1509C 0.700725 23.2523 0.8508 23.2877 0.9871 23.2424L 5.3405 21.7913C 7.28175 23.0734 9.53683 23.75 11.875 23.75C 15.0469 23.75 18.0289 22.5148 20.2719 20.2719C 22.5148 18.029 23.75 15.047 23.75 11.8751C 23.75 8.70308 22.5148 5.72102 20.2719 3.47813ZM 11.875 22.992C 9.6267 22.992 7.46077 22.3239 5.61092 21.06C 5.54715 21.0165 5.4725 20.9939 5.39712 20.9939C 5.35682 20.9939 5.3164 21.0003 5.27725 21.0133L 1.4664 22.2835L 2.73677 18.4727C 2.77425 18.3603 2.75695 18.2368 2.69012 18.1389C 1.42612 16.2893 0.758 14.1233 0.758 11.8751C 0.758 5.74508 5.74502 0.757975 11.875 0.757975C 18.0049 0.757975 22.992 5.74508 22.992 11.8751C 22.992 18.005 18.0049 22.992 11.875 22.992Z"/>
<path id="path2_fill" d="M 12 24C 9.66123 24 7.3968 23.3272 5.44745 22.054L 1.15163 23.486C 1.10005 23.5031 1.04648 23.5117 0.9923 23.5117C 0.85765 23.5117 0.731075 23.4593 0.63585 23.3643C 0.500025 23.2283 0.453375 23.0307 0.514025 22.8484L 1.94608 18.5527C 0.672775 16.6034 0 14.339 0 12.0001C 0 8.79465 1.24822 5.78118 3.5147 3.51473C 5.7812 1.24822 8.79465 0 12 0C 15.2052 0 18.2187 1.24822 20.4852 3.51473C 22.7518 5.78123 24 8.7947 24 12.0001C 24 15.2053 22.7518 18.2188 20.4852 20.4853C 18.2187 22.7518 15.2052 24 12 24ZM 5.4836 21.7785L 5.53433 21.812C 7.45415 23.0798 9.68993 23.75 12 23.75C 15.1384 23.75 18.0891 22.5278 20.3085 20.3085C 22.5278 18.0892 23.75 15.1386 23.75 12.0001C 23.75 8.86147 22.5278 5.91077 20.3085 3.69152C 18.0892 1.47222 15.1384 0.25 12 0.25C 8.86143 0.25 5.91075 1.47222 3.6915 3.69152C 1.4722 5.91072 0.25 8.86143 0.25 12.0001C 0.25 14.3103 0.9202 16.5461 2.1881 18.4657L 2.2216 18.5165L 0.7512 22.9274C 0.720625 23.0193 0.74415 23.1189 0.812625 23.1875C 0.86055 23.2353 0.924375 23.2617 0.9923 23.2617C 1.01965 23.2617 1.04667 23.2574 1.07265 23.2487L 5.4836 21.7785ZM 12 23.242C 9.72663 23.242 7.53617 22.5665 5.66545 21.2882C 5.60035 21.2438 5.5167 21.232 5.44178 21.257L 1.39375 22.6061L 2.7432 18.5582C 2.76815 18.4833 2.75645 18.3997 2.7119 18.3344C 1.43365 16.464 0.758 14.2736 0.758 12.0001C 0.758 5.80115 5.80115 0.757975 12 0.757975C 18.1989 0.757975 23.242 5.80115 23.242 12.0001C 23.242 18.1989 18.1989 23.242 12 23.242ZM 5.52217 20.9939C 5.62395 20.9939 5.72225 21.0243 5.80648 21.0818C 7.6355 22.3315 9.7772 22.992 12 22.992C 18.061 22.992 22.992 18.0611 22.992 12.0001C 22.992 5.939 18.061 1.00797 12 1.00797C 5.93898 1.00797 1.008 5.939 1.008 12.0001C 1.008 14.223 1.6686 16.3647 2.91835 18.1934C 3.0067 18.3228 3.02987 18.4887 2.98037 18.6372L 1.78902 22.2109L 5.36277 21.0197C 5.41435 21.0026 5.46797 20.9939 5.52217 20.9939Z"/>
</defs>
</svg>
