<svg width="360" height="360" viewBox="0 0 360 360" version="1.1" xmlns="http://www.w3.org/2000/svg" xmlns:xlink="http://www.w3.org/1999/xlink">
<title>unit_</title>
<desc>Created using Figma</desc>
<g id="Canvas" transform="matrix(3 0 0 3 1752 -354)">
<g id="unit_">
<g id="Vector">
<use xlink:href="#path0_fill" transform="translate(-584 118)" fill="#00B1EB"/>
</g>
<g id="Vector">
<use xlink:href="#path0_fill" transform="translate(-584 118)" fill="#004F91"/>
</g>
<g id="Vector">
<use xlink:href="#path1_fill" transform="translate(-572 130)" fill="#FFFFFF"/>
<use xlink:href="#path2_fill" transform="translate(-572 130)" fill="#FFFFFF"/>
<use xlink:href="#path3_fill" transform="translate(-572 130)" fill="#FFFFFF"/>
<use xlink:href="#path4_fill" transform="translate(-572 130)" fill="#FFFFFF"/>
<use xlink:href="#path5_fill" transform="translate(-572 130)" fill="#FFFFFF"/>
<use xlink:href="#path6_fill" transform="translate(-572 130)" fill="#FFFFFF"/>
<use xlink:href="#path7_fill" transform="translate(-572 130)" fill="#FFFFFF"/>
<use xlink:href="#path8_fill" transform="translate(-572 130)" fill="#FFFFFF"/>
</g>
</g>
</g>
<defs>
<path id="path0_fill" d="M 120 0L 0 0L 0 120L 120 120L 120 0Z"/>
<path id="path1_fill" fill-rule="evenodd" d="M 31.3991 36.0695L 39.2909 36.0695L 35.1522 28.5514L 35.151 28.5521L 35.0773 28.4182L 30.4324 19.9804L 24.1366 23.7924L 24.0114 23.8682L 23.9389 23.7372L 23.2757 22.536L 23.2032 22.4046L 23.3284 22.3289L 37.3178 13.8582L 37.4432 13.7824L 37.5155 13.9134L 38.1788 15.1145L 38.2513 15.2458L 38.1256 15.3217L 31.8286 19.1346L 36.4732 27.5713L 36.4928 27.6073L 36.4928 27.6106L 40.8652 35.5529C 40.9954 35.5716 41.1199 35.6102 41.2352 35.666C 41.3778 35.7348 41.5066 35.8294 41.6153 35.9434L 41.7178 36.051L 41.7107 36.0586C 41.7878 36.1596 41.8518 36.2719 41.8999 36.3926C 41.9644 36.555 42 36.7325 42 36.9172C 42 37.1022 41.9644 37.2794 41.8999 37.4419C 41.8518 37.5626 41.7877 37.675 41.7107 37.7759L 41.7178 37.7834L 41.6153 37.891C 41.4944 38.0178 41.35 38.1198 41.1889 38.1898C 41.0338 38.2573 40.8636 38.2945 40.6867 38.2945C 40.5103 38.2945 40.3412 38.2573 40.1867 38.1898C 40.046 38.1286 39.9173 38.0419 39.806 37.9357L 39.8009 37.9357L 39.7584 37.8912C 39.7214 37.8522 39.686 37.8102 39.6528 37.7653L 31.3992 37.7653L 31.3992 41.153L 31.3992 41.8487L 31.3992 42.0001L 31.2542 42.0001L 30.5909 42.0001L 10.3988 42.0001L 9.73548 42.0001L 9.59052 42.0001L 9.59052 41.8482L 9.59052 41.1526L 9.59052 37.7648L 2.34552 37.7648L 2.33844 37.7743L 2.346 37.7818L 2.2416 37.8912C 2.121 38.0178 1.97616 38.12 1.81524 38.19C 1.66008 38.2573 1.4898 38.2948 1.31304 38.2948C 1.13628 38.2948 0.96684 38.2573 0.81156 38.19C 0.65064 38.12 0.50544 38.0177 0.3846 37.8912C 0.14712 37.642 0 37.2976 0 36.9174C 0 36.732 0.0355201 36.5542 0.0998401 36.3914C 0.1668 36.2219 0.26436 36.07 0.38472 35.9437C 0.49356 35.8297 0.6222 35.7352 0.76488 35.6662C 0.88008 35.6106 1.00464 35.5718 1.13484 35.5532L 5.20776 28.1545C 5.01 27.9575 4.836 27.7366 4.68972 27.4978C 4.52256 27.225 4.39068 26.9276 4.29996 26.6146C 4.17204 26.1738 4.1256 25.7039 4.17636 25.2302C 4.2228 24.7975 4.3506 24.3612 4.57164 23.94L 4.57164 23.9359L 4.59084 23.9003L 4.59336 23.8957L 4.59336 23.8908L 4.61328 23.8552C 4.84428 23.4404 5.1432 23.0977 5.48508 22.8302C 5.84412 22.5497 6.2514 22.3518 6.67848 22.2406C 6.74028 22.2246 6.80304 22.2102 6.86652 22.1976L 6.87576 22.1957C 6.85776 22.1431 6.84036 22.0878 6.82332 22.0302C 6.69552 21.5894 6.64896 21.1196 6.69972 20.6462C 6.74604 20.2138 6.87372 19.7773 7.09464 19.3561L 7.09464 19.352L 7.11384 19.3166L 7.11672 19.3114L 7.11672 19.3066L 7.13652 19.2709C 7.36764 18.8562 7.66632 18.5135 8.00856 18.2459C 8.36748 17.9652 8.77488 17.7672 9.2022 17.656C 9.26388 17.6399 9.32688 17.6255 9.39048 17.6129L 9.39996 17.611C 9.38196 17.5582 9.36444 17.5027 9.34752 17.4449C 9.21972 17.0041 9.17316 16.5342 9.22392 16.0608C 9.27024 15.6281 9.39792 15.1916 9.61896 14.7706L 9.61896 14.763L 9.63828 14.7276L 9.64092 14.7228L 9.64092 14.7212L 9.66072 14.6857C 9.89172 14.271 10.1905 13.9282 10.5328 13.6606C 10.8918 13.3798 11.2992 13.1819 11.7265 13.0706C 11.7884 13.0546 11.8513 13.0402 11.915 13.0276L 11.9243 13.0256C 11.9063 12.9728 11.8886 12.9174 11.8718 12.8594C 11.7439 12.4188 11.6972 11.949 11.7481 11.4755C 11.7946 11.0429 11.9224 10.6064 12.1433 10.1852L 12.1433 10.1812L 12.1625 10.1458L 12.1654 10.1405L 12.1654 10.1356L 12.1853 10.0999C 12.416 9.68568 12.713 9.34224 13.0528 9.0732C 13.4088 8.79132 13.8114 8.59164 14.2334 8.47848C 14.5398 8.39628 14.8584 8.3604 15.1781 8.37228C 15.4542 8.3826 15.7308 8.42892 16.001 8.51256L 19.8134 1.80996C 19.7956 1.75308 19.7809 1.69416 19.7699 1.63332C 19.7545 1.54896 19.7465 1.46328 19.7465 1.37712C 19.7465 1.19172 19.7821 1.01388 19.8463 0.85116C 19.9132 0.68148 20.0107 0.52968 20.1312 0.40344C 20.2516 0.2772 20.3965 0.17496 20.5582 0.10476C 20.7132 0.0373201 20.8828 0 21.0596 0C 21.2365 0 21.4061 0.0373201 21.5612 0.10476C 21.723 0.17496 21.8678 0.27732 21.9881 0.40344L 22.0907 0.51096L 22.0834 0.51852C 22.1608 0.61944 22.2247 0.731879 22.2727 0.8526C 22.3373 1.01496 22.3728 1.19244 22.3728 1.37712C 22.3728 1.46676 22.3642 1.55508 22.3478 1.64148C 22.336 1.704 22.3198 1.76628 22.2991 1.82712L 24.7878 6.348L 24.7889 6.34716L 24.8624 6.48096L 29.5076 14.9189L 35.8033 11.1067L 35.9286 11.031L 36.0008 11.162L 36.6644 12.3631L 36.7369 12.4945L 36.6118 12.5705L 22.6223 21.041L 22.4971 21.117L 22.4246 20.9858L 21.7614 19.7848L 21.6888 19.6532L 21.814 19.5774L 28.1113 15.7644L 23.4671 7.32792L 23.4473 7.29192L 23.4473 7.28856L 21.0504 2.93436L 17.0258 10.0102L 16.6912 10.5985L 16.6181 10.7273L 16.4947 10.6522L 15.9301 10.3082L 15.9185 10.3008L 15.8707 10.2714C 15.6894 10.1702 15.4951 10.1065 15.2975 10.0789C 15.0756 10.0478 14.849 10.0626 14.6314 10.121C 14.415 10.179 14.2086 10.2815 14.0263 10.4261C 13.8526 10.5638 13.7002 10.7406 13.581 10.9544L 13.528 11.0498C 13.4302 11.2511 13.3724 11.4574 13.3505 11.6611C 13.3242 11.9046 13.3477 12.1448 13.4129 12.3695C 13.4773 12.5914 13.5814 12.7988 13.7174 12.9796C 13.8442 13.148 13.9991 13.2936 14.1746 13.4066L 14.1902 13.416L 14.1919 13.416L 14.226 13.4368L 14.2369 13.4435L 14.3617 13.5196L 14.2902 13.6502L 13.632 14.8541L 13.5794 14.9502L 13.5618 14.9874L 13.4467 14.9178L 13.4356 14.9111L 13.4304 14.9082L 13.4293 14.9071L 13.4183 14.9004L 13.3602 14.8654C 13.1774 14.7647 12.9808 14.7011 12.7806 14.6735C 12.5576 14.6426 12.3301 14.6564 12.112 14.7133C 11.8943 14.7701 11.6862 14.8715 11.5021 15.0156C 11.3276 15.1523 11.175 15.3278 11.0566 15.5405L 11.0196 15.6068L 11 15.6426C 10.9043 15.8418 10.8479 16.0459 10.8262 16.2476C 10.8 16.4905 10.8236 16.7306 10.8887 16.9549C 10.9529 17.1762 11.0576 17.3839 11.1953 17.5657C 11.3261 17.7388 11.4864 17.8878 11.6695 18.0026L 11.7017 18.0222L 11.7127 18.0289L 11.8222 18.0954L 11.833 18.102L 11.8375 18.1048L 11.766 18.2357L 11.1078 19.4394L 11.0358 19.571L 11.0281 19.5664L 11.0273 19.5677L 10.9043 19.4927L 10.8932 19.4858L 10.883 19.4796L 10.8386 19.4525C 10.6492 19.3477 10.4444 19.2827 10.2361 19.2565C 10.019 19.2292 9.7986 19.2438 9.58752 19.2988C 9.36996 19.3553 9.16176 19.4567 8.9778 19.6008C 8.8032 19.7376 8.65068 19.9129 8.53236 20.1256L 8.47932 20.2208C 8.38164 20.4218 8.32404 20.6281 8.30196 20.832C 8.27568 21.0752 8.29932 21.3157 8.36448 21.5402C 8.42844 21.7607 8.53248 21.9677 8.66868 22.149C 8.7954 22.3176 8.94948 22.4632 9.12492 22.5761L 9.14172 22.586L 9.14352 22.586L 9.1776 22.607L 9.18864 22.6138L 9.3132 22.6901L 9.24192 22.8204L 8.58372 24.0244L 8.56728 24.0546L 8.5248 24.1658L 8.38032 24.0775L 8.36916 24.0707L 8.34984 24.059L 8.34804 24.0577L 8.32464 24.0434C 8.13708 23.9381 7.93584 23.8717 7.73184 23.8436C 7.50912 23.8129 7.28184 23.8266 7.06404 23.8832C 6.84648 23.9399 6.6384 24.0413 6.45444 24.1852C 6.28008 24.3217 6.12744 24.4972 6.00912 24.7098L 5.9562 24.805C 5.85852 25.0061 5.80092 25.2125 5.77872 25.4161C 5.75256 25.6596 5.77596 25.9 5.841 26.1247C 5.90556 26.3468 6.00984 26.5546 6.14616 26.7356C 6.27 26.9002 6.42096 27.0432 6.5928 27.1556L 6.63888 27.1832L 6.65916 27.1955L 7.23648 27.5414L 7.36308 27.617L 7.29024 27.7492L 6.95856 28.3517L 2.70972 36.0697L 9.59088 36.0697L 9.59088 32.6821L 9.59088 31.9864L 9.59088 31.8344L 9.73584 31.8344L 10.3992 31.8344L 30.5911 31.8344L 31.2545 31.8344L 31.399 31.8344L 31.3988 31.9864L 31.3988 32.6821L 31.3991 36.0695ZM 29.7826 33.5296L 11.2073 33.5296L 11.2073 40.3046L 29.7826 40.3046L 29.7826 36.917L 29.7826 36.8707L 29.7826 33.5296Z"/>
<path id="path2_fill" d="M 54.7329 43.0076L 54.0296 42.9611L 53.2805 42.9359C 53.284 42.8309 53.6409 32.3166 54.2576 21.9326C 54.6202 15.827 55.0006 10.9579 55.3882 7.4604C 55.6202 5.36724 55.8582 3.74076 56.096 2.6262C 56.416 1.12644 56.7584 0.25536 57.5613 0.24024C 58.4708 0.22116 58.9032 1.22916 59.4027 4.54572C 59.8119 7.26276 60.224 11.5127 60.6275 17.1778C 60.6448 17.4042 60.6626 17.632 60.681 17.8609C 61.6445 21.7717 62.5277 22.8594 62.9012 23.1574C 64.1186 12.9907 64.75 9.99012 66.3081 9.96624C 66.3138 9.96612 66.3197 9.96612 66.3254 9.96612C 67.3182 9.96612 67.8348 11.294 68.2451 12.731C 68.6974 14.3147 69.1581 16.6489 69.6503 19.8532C 69.9914 19.9724 70.3199 20.1109 70.6361 20.2442L 70.8246 20.3236C 71.2032 20.4822 71.5582 20.6 71.9015 20.6825C 72.0447 20.2091 72.1966 19.66 72.356 19.0229C 73.0698 16.1684 73.9374 14.8134 75.0858 14.7583C 76.1832 14.703 77.0716 15.8039 77.9642 18.3191C 78.3389 19.3752 78.6737 19.9618 78.9312 20.2874C 79.303 20.2819 79.6848 20.2816 80.0655 20.289C 80.2804 20.0502 80.548 19.6716 80.8625 19.0716C 81.6221 17.6218 82.5395 16.8234 83.5892 16.6987C 84.5651 16.5824 85.5402 17.0717 86.4863 18.1523C 87.698 19.536 88.8479 19.5653 90.4553 18.2538C 92.0574 16.9469 93.9606 17.044 95.8149 18.5278C 95.9151 18.6078 95.9832 18.6328 96.0012 18.6355L 95.8335 20.0657C 95.5218 20.0293 95.213 19.8901 94.9154 19.652C 93.5921 18.5929 92.4309 18.5005 91.3658 19.3696C 90.8307 19.8061 90.324 20.1146 89.8461 20.3185L 95.9952 20.274L 96.0056 21.714L 84.4792 21.7973C 84.3761 21.798 84.2378 21.8039 84.0688 21.8106C 83.4699 21.8348 82.4676 21.8752 81.2684 21.7842C 81.0467 21.7673 80.8209 21.7542 80.5937 21.7446C 80.1927 22.0332 79.78 22.1608 79.3528 22.13C 78.9975 22.1048 78.6657 21.9763 78.3528 21.7393C 77.021 21.781 75.9562 21.883 75.7856 21.906C 74.7473 22.1563 73.8297 22.3057 72.9006 22.2678C 72.1827 24.254 71.4524 25.0862 70.563 25.0448C 69.8919 25.0123 68.9427 24.5512 68.3692 21.0014C 67.2612 20.8415 66.1959 21.3256 64.7912 23.5703C 64.6044 23.8686 64.412 24.0941 64.2201 24.2623C 64.2166 24.2917 64.2131 24.3212 64.2096 24.3505C 64.1139 25.1609 64.0198 25.9567 63.927 26.7208C 63.4877 30.3367 63.0687 31.4563 62.1442 31.4564C 62.1354 31.4564 62.1267 31.4563 62.1177 31.4562C 61.2902 31.4375 60.937 30.4948 60.575 28.7616C 60.3365 27.6199 60.0948 26.0376 59.8568 24.0584C 59.5726 21.697 59.36 19.3153 59.2583 18.1033C 59.1495 17.6564 59.0428 17.188 58.9385 16.6979C 58.5872 15.0479 58.2982 14.2529 58.1166 13.8757C 57.7983 14.5546 57.2178 16.5116 56.5275 22.1442C 55.9211 27.0881 55.3342 33.9126 54.7329 43.0076ZM 61.2296 23.4139C 61.5075 25.7672 61.8179 27.8306 62.1084 29.0539C 62.2216 28.5132 62.355 27.717 62.4971 26.5472C 62.5714 25.9356 62.6465 25.3038 62.7226 24.6602C 62.1881 24.5254 61.6946 24.1142 61.2296 23.4139ZM 69.9252 21.5074C 70.185 22.7657 70.4745 23.3473 70.637 23.5506C 70.7699 23.4194 71.0512 23.0503 71.4377 22.0504C 71.0621 21.9533 70.6746 21.822 70.2682 21.6517L 70.0766 21.5711C 70.0257 21.5496 69.9753 21.5284 69.9252 21.5074ZM 66.3405 11.657C 66.1288 12.1171 65.7705 13.2167 65.3372 15.8222C 65.058 17.501 64.8024 19.44 64.5584 21.4331C 65.8426 19.9097 67.0458 19.4868 68.1431 19.5341C 67.2947 14.1569 66.6714 12.2982 66.3405 11.657ZM 75.1503 16.1964C 75.1517 16.1976 74.4923 16.4158 73.7528 19.3722C 73.6209 19.8994 73.4907 20.3856 73.3613 20.8331C 74.0126 20.8145 74.6861 20.6908 75.471 20.5007C 75.5856 20.473 76.2948 20.4001 77.2682 20.3464C 77.0391 19.9136 76.8196 19.3993 76.6071 18.8005C 75.7368 16.3484 75.1559 16.1974 75.1503 16.1964ZM 81.7775 20.3743C 82.7118 20.4244 83.4801 20.3934 84.0101 20.3718C 84.1988 20.3642 84.353 20.3581 84.4682 20.3573L 86.9933 20.339C 86.3612 20.0506 85.8302 19.5892 85.4025 19.1008C 84.9801 18.6184 84.3533 18.0577 83.7586 18.1285C 83.2246 18.192 82.6488 18.7642 82.1376 19.7399C 82.0184 19.9679 81.8982 20.1794 81.7775 20.3743ZM 57.5811 2.55312C 57.237 4.00968 56.7129 7.44996 56.1195 15.5588C 56.1707 15.3313 56.222 15.1174 56.2731 14.9173C 56.7581 13.0236 57.2706 12.2285 58.0422 12.1729C 58.3244 12.1526 58.5801 12.2286 58.8131 12.4195C 58.3116 6.55008 57.8831 3.81828 57.5811 2.55312Z"/>
<path id="path3_fill" d="M 18.9139 78.4532C 19.7623 77.919 20.531 77.2676 21.1969 76.521L 23.5974 77.9178L 25.7833 74.1043L 23.3873 72.7106C 23.6923 71.7744 23.8715 70.7808 23.9048 69.7505L 26.6303 69.2666L 25.8709 64.9302L 23.1458 65.4145C 22.7693 64.4741 22.2641 63.6002 21.6511 62.8142L 23.4328 60.6764L 20.0833 57.846L 18.3037 59.9821C 17.4343 59.5134 16.4933 59.162 15.5009 58.9519L 15.5009 56.1659L 11.1294 56.1659L 11.1294 58.9519C 10.137 59.162 9.19548 59.5134 8.32608 59.9821L 6.54624 57.846L 3.19752 60.6764L 4.97868 62.8142C 4.3662 63.6002 3.861 64.4741 3.48384 65.4145L 0.75888 64.9302L 0 69.2666L 2.72508 69.7505C 2.75892 70.7808 2.93796 71.7744 3.24264 72.7114L 0.8466 74.1043L 3.03252 77.9178L 5.4336 76.5217C 6.09888 77.2676 6.8676 77.919 7.716 78.4532L 6.76872 81.0751L 10.8768 82.5812L 11.8232 79.9628C 12.3109 80.0321 12.8087 80.0688 13.315 80.0688C 13.8217 80.0688 14.3197 80.0321 14.8074 79.9628L 15.7537 82.5812L 19.8619 81.0751L 18.9139 78.4532ZM 13.3148 75.0192C 10.2364 75.0192 7.73208 72.4967 7.73208 69.3961C 7.73208 66.2951 10.2365 63.7728 13.3148 63.7728C 16.3934 63.7728 18.8976 66.2952 18.8976 69.3961C 18.8976 72.4968 16.3934 75.0192 13.3148 75.0192Z"/>
<path id="path4_fill" d="M 37.7049 81.7596L 35.8204 82.3735C 35.4611 81.7444 35.017 81.1747 34.5054 80.6791L 35.5584 78.9859L 32.9069 77.3127L 31.8543 79.0041C 31.1917 78.7581 30.4902 78.6033 29.7661 78.5529L 29.493 76.5775L 26.3934 77.0124L 26.6667 78.9877C 25.9837 79.2353 25.3506 79.578 24.7803 79.9972L 23.3091 78.6598L 21.2122 80.9996L 22.6848 82.3384C 22.3275 82.9564 22.0552 83.6266 21.8805 84.3307L 19.9011 84.2587L 19.7874 87.4083L 21.7674 87.4807C 21.8922 88.2078 22.117 88.8936 22.4249 89.5278L 20.8631 90.7542L 22.7866 93.2399L 24.3519 92.0117C 24.8968 92.4742 25.5059 92.8594 26.1594 93.154L 25.7447 95.1076L 28.8051 95.7659L 29.2193 93.8151C 29.5717 93.816 29.9287 93.7924 30.2875 93.7421C 30.6469 93.6918 30.9965 93.6158 31.3348 93.5183L 32.263 95.2808L 35.0278 93.8039L 34.099 92.0394C 34.6483 91.5765 35.1286 91.0379 35.5276 90.4426L 37.3665 91.1936L 38.5425 88.2723L 36.7069 87.5227C 36.8308 86.8287 36.8607 86.1062 36.7834 85.3723L 38.6688 84.7578L 37.7049 81.7596ZM 29.7925 90.1621C 27.6095 90.4681 25.5864 88.9294 25.2825 86.7304C 24.9779 84.532 26.5065 82.4938 28.6895 82.1881C 30.8717 81.8813 32.8947 83.4209 33.1992 85.6193C 33.5032 87.8176 31.9752 89.8553 29.7925 90.1621Z"/>
<path id="path5_fill" d="M 41.927 70.8365L 42 68.349L 40.4373 68.3023C 40.3394 67.7537 40.1647 67.2107 39.9075 66.6892L 41.135 65.713L 39.6036 63.7604L 38.3766 64.7365C 37.9389 64.3705 37.4546 64.0717 36.9407 63.8462L 37.2583 62.3017L 34.8392 61.7974L 34.5215 63.3409C 33.9639 63.3413 33.4028 63.4214 32.853 63.5845L 32.1117 62.1977L 29.9365 63.3779L 30.6777 64.7644C 30.2401 65.1368 29.8645 65.5661 29.5571 66.0334L 28.1035 65.4509L 27.1899 67.7627L 28.6446 68.3465C 28.5486 68.9028 28.5305 69.4734 28.5931 70.0428L 27.1082 70.5376L 27.8837 72.9006L 29.3687 72.4058C 29.6594 72.9092 30.0129 73.3546 30.4139 73.7389L 29.5923 75.0792L 31.6941 76.3865L 32.5177 75.0441C 33.0474 75.2356 33.6031 75.3522 34.1671 75.3887L 34.3928 76.9495L 36.8378 76.59L 36.6127 75.0313C 36.8736 74.9346 37.1311 74.8183 37.3832 74.681C 37.6355 74.5451 37.8733 74.3917 38.0976 74.2261L 39.2651 75.2735L 40.9082 73.4156L 39.7395 72.3666C 40.0196 71.872 40.2282 71.3405 40.3614 70.7894L 41.927 70.8365ZM 36.0397 72.169C 34.5078 72.9997 32.5905 72.421 31.7655 70.8775C 30.9405 69.335 31.5158 67.4038 33.0479 66.573C 34.5793 65.7418 36.4965 66.3211 37.322 67.8642C 38.1465 69.4074 37.5717 71.3378 36.0397 72.169Z"/>
<path id="path6_fill" d="M 71.1625 90.0085L 74.868 84.8125L 81.7707 75.1334L 83.7439 72.366L 80.346 72.366L 77.8512 72.366L 78.5247 66.4009L 79.2605 59.8864L 75.3762 65.167L 68.244 74.8616L 66.1932 77.6492L 69.6539 77.6492L 72.2058 77.6492L 71.6995 83.6485L 71.1625 90.0085ZM 69.6539 75.8994L 76.7862 66.2042L 75.8921 74.1168L 80.3461 74.1168L 73.4436 83.7959L 74.1099 75.8994L 69.6539 75.8994Z"/>
<path id="path7_fill" d="M 67.5089 57.2623C 69.8808 56.2591 72.4013 55.7501 75 55.7501C 77.5987 55.7501 80.1192 56.259 82.4906 57.2623C 84.7824 58.232 86.8409 59.6198 88.609 61.3884C 89.0454 61.8257 89.4581 62.2807 89.8483 62.7518L 85.4974 62.7518C 85.0141 62.7518 84.6227 63.1434 84.6227 63.6268C 84.6227 64.1101 85.0141 64.5017 85.4974 64.5017L 91.5998 64.5017C 91.6601 64.5017 91.7191 64.4959 91.7761 64.4844C 91.7869 64.4819 91.7972 64.4786 91.8083 64.476C 91.8257 64.4716 91.8427 64.4677 91.8601 64.4627C 91.8634 64.4612 91.8667 64.4602 91.8697 64.4587C 92.1896 64.3556 92.428 64.0729 92.4683 63.7294C 92.4722 63.6954 92.4749 63.6614 92.4749 63.6268L 92.4749 57.5002C 92.4749 57.0168 92.0832 56.6251 91.6 56.6251C 91.1167 56.6251 90.7253 57.0168 90.7253 57.5002L 90.7253 61.0859C 86.8786 56.7397 81.2594 54.0001 75 54.0001C 63.4355 54.0001 54.0506 63.4453 54 75.0001C 54 75.4834 54.3917 75.875 54.8748 75.875C 55.358 75.875 55.754 75.4834 55.754 75.0001C 55.754 72.4008 56.2628 69.8797 57.266 67.5079C 58.2349 65.2156 59.6232 63.1567 61.3913 61.3883C 63.1594 59.6197 65.2178 58.232 67.5089 57.2623Z"/>
<path id="path8_fill" d="M 95.1253 74.1252C 94.642 74.1252 94.2459 74.5168 94.2459 75.0001C 94.2459 77.5993 93.7371 80.1204 92.7339 82.4927C 91.7651 84.7843 90.377 86.8432 88.6087 88.6117C 86.8406 90.3803 84.7822 91.7681 82.4911 92.7379C 80.1192 93.741 77.5987 94.25 75 94.25C 72.4013 94.25 69.8808 93.7411 67.5096 92.7379C 65.2176 91.7681 63.1593 90.3804 61.3911 88.6117C 60.9547 88.1746 60.5414 87.7194 60.1518 87.2484L 64.5026 87.2484C 64.9858 87.2484 65.3774 86.8567 65.3774 86.3734C 65.3774 85.8901 64.9858 85.4984 64.5026 85.4984L 58.4002 85.4984C 58.3401 85.4984 58.2811 85.5042 58.2241 85.5157C 58.213 85.5182 58.2029 85.5215 58.1919 85.5241C 58.1745 85.5287 58.1567 85.5324 58.1399 85.5376C 58.1369 85.5389 58.1335 85.5401 58.1304 85.5414C 57.8106 85.6452 57.5723 85.9272 57.5318 86.2709C 57.528 86.3047 57.5253 86.3388 57.5253 86.3734L 57.5253 92.5001C 57.5253 92.9834 57.917 93.375 58.4001 93.375C 58.8834 93.375 59.2749 92.9834 59.2749 92.5001L 59.2749 88.9144C 63.1217 93.2605 68.7408 96.0001 75 96.0001C 86.5645 96.0001 95.9493 86.5549 96 75.0001C 96 74.5168 95.6085 74.1252 95.1253 74.1252Z"/>
</defs>
</svg>
