<svg width="594" height="144" viewBox="0 0 594 144" version="1.1" xmlns="http://www.w3.org/2000/svg" xmlns:xlink="http://www.w3.org/1999/xlink">
<title>wd_logo</title>
<desc>Created using Figma</desc>
<g id="Canvas" transform="matrix(3 0 0 3 -39120 -22053)">
<g id="wd_logo">
<g id="Vector">
<use xlink:href="#path0_fill" transform="translate(13140.5 7351)" fill="#0095DA"/>
<use xlink:href="#path1_fill" transform="translate(13140.5 7351)" fill="#0095DA"/>
<use xlink:href="#path2_fill" transform="translate(13140.5 7351)" fill="#0095DA"/>
<use xlink:href="#path3_fill" transform="translate(13140.5 7351)" fill="#0095DA"/>
<use xlink:href="#path4_fill" transform="translate(13140.5 7351)" fill="#0095DA"/>
</g>
<g id="Vector">
<use xlink:href="#path5_fill" transform="translate(13040 7351.05)" fill="#000066"/>
<use xlink:href="#path6_fill" transform="translate(13040 7351.05)" fill="#000066"/>
<use xlink:href="#path7_fill" transform="translate(13040 7351.05)" fill="#000066"/>
<use xlink:href="#path8_fill" transform="translate(13040 7351.05)" fill="#000066"/>
<use xlink:href="#path9_fill" transform="translate(13040 7351.05)" fill="#000066"/>
<use xlink:href="#path10_fill" transform="translate(13040 7351.05)" fill="#000066"/>
</g>
</g>
</g>
<defs>
<path id="path0_fill" d="M 16.5103 0L 16.5103 12.6699L 16.4175 12.6699C 16.0788 12.1111 15.6085 11.6217 15.0153 11.1859C 14.4135 10.7502 13.7048 10.413 12.8797 10.1603C 12.0471 9.90768 11.115 9.7856 10.0818 9.77808C 8.7183 9.77808 7.42958 10.0533 6.22034 10.5895C 5.00163 11.1249 3.93053 11.9129 2.99852 12.9376C 2.058 13.9707 1.32562 15.2179 0.793853 16.6944C 0.261142 18.1633 0 19.8398 0 21.7135C 0.00756962 23.4426 0.26116 25.0036 0.747508 26.4049C 1.24048 27.8043 1.92646 29.0064 2.80549 30.0086C 3.68451 31.0182 4.70168 31.7903 5.87308 32.3265C 7.0369 32.8694 8.30103 33.1371 9.6664 33.1446C 10.7526 33.1371 11.7623 32.9765 12.7028 32.6487C 13.6433 32.319 14.476 31.8597 15.2008 31.2558C 15.9331 30.651 16.5197 29.94 16.9739 29.106L 17.0667 29.106L 17.3439 32.6412L 22.3852 32.6412C 22.355 32.1284 22.3238 31.531 22.2925 30.8435C 22.2698 30.1617 22.2462 29.4357 22.231 28.6627C 22.2083 27.8982 22.2007 27.1252 22.2007 26.3523L 22.2007 0L 16.5103 0ZM 16.5103 22.9533C 16.5103 23.2519 16.5027 23.5346 16.4725 23.8098C 16.4412 24.086 16.3948 24.3527 16.3258 24.6063C 16.1337 25.4253 15.8015 26.1287 15.3237 26.726C 14.8449 27.3224 14.2754 27.7817 13.5969 28.1029C 12.9261 28.4326 12.2013 28.5922 11.4235 28.5998C 10.2209 28.5922 9.19615 28.2786 8.35498 27.6746C 7.51475 27.0698 6.88266 26.2292 6.44268 25.1651C 6.00364 24.1019 5.78036 22.8697 5.78036 21.4853C 5.78036 20.4446 5.9043 19.481 6.15788 18.5925C 6.40484 17.705 6.76724 16.9245 7.25169 16.2586C 7.73804 15.5936 8.3313 15.0808 9.04095 14.7061C 9.74209 14.3313 10.552 14.1473 11.4689 14.1397C 12.3319 14.1473 13.103 14.3313 13.7805 14.6835C 14.4513 15.0358 15.0068 15.51 15.4534 16.1064C 15.8934 16.6953 16.2018 17.3612 16.3712 18.0882C 16.4176 18.3249 16.4563 18.5775 16.479 18.8461C 16.5017 19.1147 16.5094 19.3664 16.5094 19.6031L 16.5103 22.9533Z"/>
<path id="path1_fill" d="M 31.5005 32.6402L 31.5005 10.2834L 25.812 10.2834L 25.812 32.6402L 31.5005 32.6402ZM 28.6789 0.963627C 28.0393 0.971141 27.4839 1.10921 27.0061 1.36937C 26.5358 1.63704 26.1582 2.00425 25.8952 2.46353C 25.6265 2.93031 25.495 3.45064 25.4865 4.03952C 25.495 4.59741 25.6255 5.1027 25.8801 5.56198C 26.1412 6.01279 26.5046 6.38098 26.9739 6.64865C 27.4441 6.92384 27.9996 7.0619 28.6316 7.06941C 29.2949 7.0619 29.873 6.92384 30.3575 6.64865C 30.8363 6.38098 31.2053 6.01373 31.4683 5.56198C 31.7295 5.1027 31.8695 4.59741 31.8695 4.03952C 31.8535 3.45064 31.7153 2.93031 31.4532 2.46353C 31.1911 2.00425 30.8287 1.63704 30.3585 1.36937C 29.8892 1.10921 29.3271 0.971141 28.6789 0.963627Z"/>
<path id="path2_fill" d="M 50.2354 0L 50.2354 12.6699L 50.1427 12.6699C 49.8039 12.1111 49.3337 11.6217 48.7404 11.1859C 48.1386 10.7502 47.4299 10.413 46.6048 10.1603C 45.7721 9.90768 44.8402 9.7856 43.8069 9.77808C 42.4434 9.77808 41.1547 10.0533 39.9454 10.5895C 38.7267 11.1249 37.6556 11.9129 36.7236 12.9376C 35.7831 13.9707 35.0507 15.2179 34.519 16.6944C 33.9862 18.1633 33.7242 19.8398 33.7242 21.7135C 33.7327 23.4426 33.9862 25.0036 34.4726 26.4049C 34.9655 27.8043 35.6516 29.0064 36.5306 30.0086C 37.4096 31.0182 38.4268 31.7903 39.5982 32.3265C 40.762 32.8694 42.0261 33.1371 43.3915 33.1446C 44.4777 33.1371 45.4873 32.9765 46.4278 32.6487C 47.3684 32.319 48.201 31.8597 48.9258 31.2558C 49.6582 30.651 50.2449 29.94 50.699 29.106L 50.7917 29.106L 51.069 32.6412L 56.1104 32.6412C 56.0801 32.1284 56.0488 31.531 56.0176 30.8435C 55.9949 30.1617 55.9712 29.4357 55.9561 28.6627C 55.9334 27.8982 55.9258 27.1252 55.9258 26.3523L 55.9258 0L 50.2354 0ZM 50.2354 22.9533C 50.2354 23.2519 50.2278 23.5346 50.1975 23.8098C 50.1663 24.086 50.12 24.3527 50.0509 24.6063C 49.8588 25.4253 49.5267 26.1287 49.0488 26.726C 48.5701 27.3224 48.0004 27.7817 47.322 28.1029C 46.6512 28.4326 45.9264 28.5922 45.1486 28.5998C 43.946 28.5922 42.9203 28.2786 42.0801 27.6746C 41.2398 27.0707 40.6078 26.2292 40.1678 25.1651C 39.7288 24.1019 39.5055 22.8697 39.5055 21.4853C 39.5055 20.4446 39.6294 19.481 39.883 18.5925C 40.129 17.705 40.4923 16.9245 40.9768 16.2586C 41.4631 15.5936 42.0564 15.0808 42.766 14.7061C 43.4672 14.3313 44.2772 14.1473 45.194 14.1397C 46.057 14.1473 46.8281 14.3313 47.5056 14.6835C 48.1765 15.0358 48.7309 15.51 49.1785 16.1064C 49.6185 16.6953 49.9269 17.3612 50.0963 18.0882C 50.1426 18.3249 50.1815 18.5775 50.2042 18.8461C 50.2269 19.1147 50.2344 19.3664 50.2344 19.6031L 50.2354 22.9533Z"/>
<path id="path3_fill" d="M 77.0187 19.235C 77.0272 17.9961 76.8806 16.809 76.5797 15.6848C 76.2788 14.5605 75.7783 13.5499 75.0762 12.6624C 74.3751 11.7748 73.4194 11.0779 72.2177 10.5661C 71.0151 10.0542 69.5191 9.78561 67.7233 9.77809C 66.5358 9.78561 65.4258 9.87765 64.4011 10.0692C 63.3754 10.2524 62.4576 10.49 61.641 10.7887C 60.832 11.0873 60.146 11.4086 59.5831 11.7532L 60.6929 15.4255C 61.2096 15.1043 61.7953 14.8132 62.4501 14.568C 63.1048 14.3229 63.7993 14.1247 64.5308 13.9867C 65.2631 13.8495 66.004 13.7725 66.7515 13.7725C 67.7384 13.78 68.5398 13.9181 69.1482 14.1783C 69.7566 14.4384 70.2202 14.7671 70.5363 15.1729C 70.8523 15.5786 71.0605 15.9994 71.1759 16.4436C 71.2838 16.8879 71.3377 17.3011 71.3301 17.6759L 71.3301 18.0431C 68.5483 18.0281 66.1573 18.3342 64.1617 18.9691C 62.1728 19.5965 60.6466 20.5451 59.5831 21.7999C 58.511 23.0547 57.9717 24.6232 57.9641 26.4903C 57.9641 27.3469 58.1259 28.1734 58.4344 28.9614C 58.7419 29.7578 59.198 30.4622 59.8064 31.0896C 60.4072 31.7245 61.1472 32.2214 62.0262 32.5811C 62.8976 32.9492 63.9063 33.1399 65.0408 33.1474C 66.0276 33.1399 66.9455 33.0178 67.7848 32.7661C 68.625 32.5059 69.3725 32.1603 70.0348 31.7095C 70.6981 31.2662 71.2535 30.7534 71.7001 30.1635L 71.8392 30.1635L 72.2546 32.6431L 77.3887 32.6431C 77.2505 31.9396 77.1578 31.1281 77.1029 30.1955C 77.0424 29.2694 77.0178 28.2898 77.0178 27.2727L 77.0187 19.235ZM 71.4693 24.7903C 71.4693 24.997 71.4693 25.2036 71.4541 25.4102C 71.438 25.6168 71.3992 25.8225 71.3301 26.0292C 71.1456 26.573 70.8438 27.0783 70.436 27.5441C 70.0273 28.0034 69.5192 28.3791 68.9107 28.6608C 68.309 28.952 67.6154 29.0976 66.8442 29.1051C 66.2349 29.1051 65.688 28.9905 65.2026 28.7613C 64.7162 28.5312 64.3311 28.1799 64.0463 27.7047C 63.7605 27.2304 63.6148 26.6265 63.6063 25.8911C 63.6148 25.0496 63.8372 24.3452 64.2696 23.7957C 64.7011 23.2519 65.2868 22.8162 66.0267 22.51C 66.7666 22.2038 67.6069 21.9896 68.5389 21.8675C 69.4794 21.753 70.4511 21.6994 71.4683 21.7144L 71.4683 24.7903L 71.4693 24.7903Z"/>
<path id="path4_fill" d="M 96.3097 27.7733C 95.7552 28.0109 95.1146 28.2184 94.3747 28.3856C 93.6433 28.5537 92.7869 28.6383 91.8237 28.6458C 90.8453 28.6458 89.9436 28.4842 89.111 28.163C 88.2698 27.8493 87.5459 27.3825 86.9224 26.7627C 86.2979 26.1513 85.8115 25.3933 85.4652 24.4983C 85.1189 23.6117 84.9411 22.586 84.9325 21.4374C 84.925 20.4127 85.0706 19.4556 85.3801 18.5841C 85.6885 17.704 86.1361 16.9386 86.7294 16.2802C 87.3236 15.6228 88.0483 15.1099 88.9037 14.7427C 89.7666 14.3755 90.7375 14.1923 91.8247 14.1839C 92.8343 14.1914 93.6906 14.2759 94.3917 14.4441C 95.0929 14.6122 95.6719 14.8188 96.1261 15.0564L 97.1432 10.7868C 96.7042 10.6036 96.1952 10.4346 95.6019 10.2815C 95.0162 10.1284 94.3841 10.0063 93.7057 9.91426C 93.0263 9.82222 92.3413 9.77714 91.6392 9.77714C 89.6579 9.78466 87.8932 10.0908 86.3433 10.6957C 84.7934 11.2921 83.4839 12.1345 82.4043 13.2052C 81.3332 14.2844 80.5156 15.5467 79.9536 16.9855C 79.3897 18.4235 79.1124 19.9844 79.1058 21.6675C 79.1134 23.4041 79.3831 24.9726 79.93 26.3804C 80.4778 27.7808 81.2556 28.983 82.2737 29.9851C 83.2918 30.9863 84.5096 31.7518 85.9355 32.2871C 87.3614 32.8224 88.9501 33.0901 90.7147 33.0986C 91.6628 33.0901 92.5419 33.0375 93.3584 32.922C 94.175 32.8065 94.9008 32.6693 95.5328 32.4937C 96.1725 32.3171 96.6891 32.134 97.0969 31.9499L 96.3097 27.7733Z"/>
<path id="path5_fill" d="M 0 10.3754L 6.75208 32.5942L 10.4527 32.5942L 14.0605 22.0356C 14.4532 20.8494 14.8232 19.6641 15.1629 18.4619C 15.5101 17.2682 15.8176 16.0144 16.0958 14.6901L 16.1886 14.6901C 16.374 15.5551 16.5661 16.3891 16.7743 17.1922C 16.9824 17.9952 17.2057 18.7916 17.4375 19.5796C 17.6694 20.3601 17.9154 21.1716 18.1775 21.9896L 21.5999 32.5942L 25.3005 32.5942L 32.5153 10.3754L 28.492 10.3754L 25.3005 21.5303C 24.9305 22.8311 24.5993 24.0775 24.306 25.2721C 24.0127 26.4659 23.7743 27.6211 23.5888 28.7378L 23.4507 28.7378C 23.1961 27.6211 22.9028 26.4574 22.5792 25.2646C 22.2481 24.0709 21.8781 22.8077 21.4618 21.4843L 17.993 10.3745L 14.5706 10.3745L 10.9173 21.7135C 10.5397 22.9072 10.1849 24.1009 9.83766 25.2787C 9.49135 26.4574 9.19046 27.6126 8.92837 28.7378L 8.79022 28.7378C 8.58111 27.5976 8.33509 26.4424 8.05028 25.2721C 7.77304 24.1019 7.47974 22.9006 7.17127 21.6684L 4.16519 10.3754L 0 10.3754Z"/>
<path id="path6_fill" d="M 43.049 9.91515C 41.4991 9.91515 40.0571 10.1838 38.7164 10.7107C 37.3822 11.2385 36.2033 12.0115 35.1937 13.0211C 34.1755 14.0308 33.3902 15.263 32.8196 16.7094C 32.2481 18.1633 31.9558 19.8163 31.9482 21.6674C 31.9558 23.4275 32.233 25.011 32.7808 26.4189C 33.3277 27.8193 34.0838 29.0205 35.0621 30.0151C 36.0339 31.0097 37.1665 31.7752 38.4618 32.303C 39.7638 32.8318 41.167 33.091 42.6781 33.0985C 43.7577 33.0985 44.8364 32.9539 45.8999 32.6627C 46.9644 32.365 47.974 31.9208 48.9211 31.3084C 49.8692 30.7045 50.7095 29.94 51.4494 29.0064C 52.1818 28.0728 52.7599 26.9627 53.1762 25.6854C 53.6001 24.4081 53.8159 22.9457 53.8244 21.3021C 53.8168 19.6115 53.5623 18.0656 53.0457 16.6727C 52.529 15.2884 51.7966 14.0871 50.8485 13.0765C 49.8929 12.0659 48.7593 11.2939 47.4413 10.7426C 46.1242 10.1988 44.6595 9.92361 43.049 9.91515ZM 42.9554 12.946C 43.9195 12.9535 44.7673 13.1291 45.4987 13.4663C 46.2387 13.811 46.8707 14.2693 47.3949 14.8516C 47.9191 15.433 48.3506 16.0914 48.6903 16.8258C 49.0215 17.5528 49.2684 18.3182 49.4302 19.1137C 49.5844 19.9017 49.6611 20.6822 49.6611 21.4402C 49.6535 22.695 49.4841 23.8502 49.1444 24.8983C 48.8057 25.9465 48.3355 26.8575 47.7185 27.6295C 47.1092 28.4025 46.3929 28.9998 45.5678 29.4281C 44.7427 29.8479 43.841 30.063 42.8626 30.0705C 41.8681 30.063 40.9503 29.8489 40.1262 29.4206C 39.3087 28.9923 38.5924 28.395 37.9916 27.6305C 37.3983 26.8584 36.9356 25.9549 36.6044 24.9218C 36.2799 23.8821 36.1105 22.756 36.1105 21.5322C 36.1105 20.4765 36.2421 19.4434 36.5117 18.4253C 36.7814 17.4157 37.1901 16.4971 37.7456 15.6706C 38.3 14.8441 39.0173 14.1942 39.8802 13.6964C 40.7441 13.2052 41.7688 12.9535 42.9554 12.946Z"/>
<path id="path7_fill" d="M 56.405 32.5942L 60.4746 32.5942L 60.4746 20.7508C 60.4746 20.4211 60.4822 20.0999 60.5049 19.7712C 60.5285 19.45 60.5664 19.1438 60.6127 18.8686C 60.7982 17.8515 61.1445 16.9554 61.6375 16.19C 62.1304 15.417 62.7559 14.8206 63.5034 14.3848C 64.2509 13.9566 65.1062 13.7349 66.0704 13.7265C 66.3477 13.7265 66.5946 13.7265 66.8179 13.734C 67.0412 13.749 67.2494 13.7725 67.4576 13.8176L 67.4576 10.0072C 67.2721 9.98374 67.0952 9.96119 66.9182 9.94617C 66.7403 9.92362 66.5558 9.91515 66.3477 9.91515C 65.4308 9.92267 64.5593 10.1218 63.7428 10.5125C 62.9262 10.9107 62.2014 11.4695 61.5694 12.1956C 60.9373 12.9225 60.4519 13.78 60.1046 14.7821L 59.9665 14.7821L 59.781 10.3754L 56.2205 10.3754C 56.2895 11.4001 56.3359 12.4867 56.3662 13.6344C 56.3889 14.7746 56.405 15.9984 56.405 17.3067L 56.405 32.5942Z"/>
<path id="path8_fill" d="M 70.3765 32.5942L 74.4471 32.5942L 74.4471 0L 70.3765 0L 70.3765 32.5942Z"/>
<path id="path9_fill" d="M 94.0003 0L 94.0003 13.2672L 93.9076 13.2672C 93.5689 12.6783 93.091 12.127 92.4741 11.6227C 91.8648 11.1174 91.1097 10.7116 90.2231 10.3979C 89.3365 10.0852 88.3118 9.92363 87.1555 9.91612C 85.7911 9.92363 84.5043 10.1913 83.3016 10.7351C 82.0914 11.278 81.0194 12.0585 80.0949 13.0916C 79.162 14.1172 78.4381 15.3644 77.9054 16.8334C 77.3812 18.2948 77.1191 19.9553 77.1191 21.8065C 77.1267 23.497 77.3737 25.0355 77.86 26.4208C 78.3454 27.7986 79.0314 28.9914 79.9019 29.9869C 80.7734 30.9816 81.7905 31.7461 82.9544 32.2815C 84.1182 32.8243 85.3823 33.092 86.7392 33.0995C 87.9569 33.092 89.0669 32.9013 90.0537 32.5191C 91.0397 32.1443 91.8875 31.624 92.6047 30.9731C 93.3143 30.3147 93.8764 29.5728 94.2776 28.7388L 94.4157 28.7388L 94.6002 32.5942L 98.2081 32.5942C 98.1778 32.0814 98.1466 31.5085 98.1154 30.8726C 98.0927 30.2377 98.069 29.5718 98.0539 28.8834C 98.0312 28.1959 98.0227 27.5216 98.0227 26.8566L 98.0227 0L 94.0003 0ZM 94.0003 23.2754C 94.0003 23.5957 93.9928 23.8953 93.9615 24.178C 93.9303 24.4691 93.8839 24.7443 93.8149 25.0195C 93.5603 26.0216 93.1365 26.8782 92.5432 27.5985C 91.9575 28.318 91.2554 28.8693 90.4464 29.2516C 89.6374 29.6413 88.7659 29.8329 87.8481 29.8405C 86.7619 29.8329 85.8053 29.6188 84.9811 29.1905C 84.156 28.7622 83.4701 28.1734 82.9071 27.4229C 82.3526 26.665 81.9363 25.7934 81.659 24.8063C 81.3733 23.8192 81.2351 22.7551 81.2351 21.6233C 81.2351 20.3995 81.3894 19.2744 81.6893 18.2337C 81.9902 17.2006 82.4292 16.298 83.0074 15.5251C 83.5855 14.7596 84.2876 14.1632 85.1193 13.7349C 85.9444 13.3057 86.8849 13.0916 87.9399 13.085C 88.9647 13.0925 89.8749 13.3067 90.6839 13.7274C 91.4929 14.1407 92.1638 14.6995 92.7031 15.3955C 93.2349 16.0924 93.6124 16.8719 93.813 17.7219C 93.8821 17.982 93.9284 18.2657 93.9597 18.5709C 93.9899 18.8771 93.9984 19.1598 93.9984 19.42L 93.9984 23.2754L 94.0003 23.2754Z"/>
<path id="path10_fill" d="M 13.9244 47.8657L 15.7865 47.8657L 15.3332 39.4466L 12.8164 39.4466L 11.9222 42.2445C 11.6327 43.1809 11.3431 44.2929 11.117 45.2678L 11.0669 45.2678C 10.8786 44.2807 10.6268 43.2317 10.3496 42.2568L 9.5198 39.4466L 6.96504 39.4466L 6.42383 47.8657L 8.19795 47.8657L 8.36165 44.6686C 8.4118 43.6195 8.46194 42.3197 8.49979 41.1832L 8.52535 41.1832C 8.73919 42.2821 9.01643 43.4815 9.29272 44.4808L 10.1992 47.7295L 11.697 47.7295L 12.7293 44.4441C 13.0567 43.457 13.4087 42.2577 13.6859 41.1832L 13.7105 41.1832C 13.7105 42.408 13.7484 43.6317 13.7862 44.6442L 13.9244 47.8657ZM 50.6909 42.7564L 47.5704 42.7564L 47.5704 41.0076L 50.8802 41.0076L 50.8802 39.4466L 45.6571 39.4466L 45.6571 47.8657L 51.0562 47.8657L 51.0562 46.3047L 47.5704 46.3047L 47.5704 44.3061L 50.6909 44.3061L 50.6909 42.7564ZM 88.0612 47.8657L 89.9233 47.8657L 89.4701 39.4466L 86.9532 39.4466L 86.059 42.2445C 85.7695 43.1809 85.4809 44.2929 85.2538 45.2678L 85.2027 45.2678C 85.0144 44.2807 84.7627 43.2317 84.4855 42.2568L 83.6547 39.4466L 81.1 39.4466L 80.5587 47.8657L 82.3329 47.8657L 82.4966 44.6686C 82.5467 43.6195 82.5969 42.3197 82.6347 41.1832L 82.6593 41.1832C 82.8732 42.2821 83.1504 43.4815 83.4276 44.4808L 84.3341 47.7295L 85.8319 47.7295L 86.8642 44.4441C 87.1916 43.457 87.5436 42.2577 87.8208 41.1832L 87.8464 41.1832C 87.8464 42.408 87.8842 43.6317 87.9221 44.6442L 88.0612 47.8657ZM 119.782 47.829C 120.209 47.891 120.914 47.954 121.858 47.954C 123.544 47.954 124.576 47.6788 125.192 47.1913C 125.721 46.7668 126.074 46.1667 126.074 45.3928C 126.074 44.3174 125.356 43.581 124.388 43.3321L 124.388 43.3068C 125.344 42.9442 125.784 42.2577 125.784 41.5213C 125.784 40.7465 125.37 40.1717 124.779 39.8589C 124.149 39.4964 123.432 39.3846 122.262 39.3846C 121.293 39.3846 120.286 39.472 119.783 39.5603L 119.783 47.829L 119.782 47.829ZM 121.682 40.8207C 121.833 40.7963 122.071 40.7709 122.5 40.7709C 123.368 40.7709 123.859 41.1071 123.859 41.7448C 123.859 42.3694 123.331 42.7817 122.311 42.7817L 121.682 42.7817L 121.682 40.8207ZM 121.682 44.1436L 122.336 44.1436C 123.293 44.1436 124.059 44.4798 124.059 45.3176C 124.059 46.2042 123.292 46.5423 122.423 46.5423C 122.096 46.5423 121.87 46.5423 121.681 46.5179L 121.682 44.1436ZM 160.814 42.7564L 157.693 42.7564L 157.693 41.0076L 161.002 41.0076L 161.002 39.4466L 155.779 39.4466L 155.779 47.8657L 161.178 47.8657L 161.178 46.3047L 157.692 46.3047L 157.692 44.3061L 160.813 44.3061L 160.814 42.7564ZM 190.873 47.8657L 192.774 47.8657L 192.774 44.5437L 193.34 44.5437C 194.133 44.5559 194.498 44.8311 194.738 45.8962C 194.976 46.9368 195.191 47.614 195.316 47.8657L 197.279 47.8657C 197.116 47.5388 196.864 46.4362 196.599 45.4697C 196.385 44.693 196.059 44.1436 195.467 43.906L 195.467 43.8684C 196.197 43.6064 196.964 42.871 196.964 41.8134C 196.964 41.0433 196.688 40.445 196.171 40.0449C 195.567 39.5706 194.687 39.3837 193.428 39.3837C 192.396 39.3837 191.491 39.4579 190.874 39.5593L 190.874 47.8657L 190.873 47.8657ZM 192.773 40.8686C 192.911 40.8329 193.176 40.8094 193.641 40.8094C 194.522 40.8094 195.05 41.2067 195.05 41.9637C 195.05 42.6963 194.483 43.1697 193.528 43.1697L 192.773 43.1697L 192.773 40.8686Z"/>
</defs>
</svg>
